<svg xmlns="http://www.w3.org/2000/svg" viewBox="0 0 3341.26 2597.65"><defs><style>.cls-1{fill:#f7a491;}.cls-2{fill:#f4f4f4;}.cls-3,.cls-4{fill:#fff;}.cls-5,.cls-6{fill:#13375b;}.cls-7{fill:#c9c2c2;}.cls-8{fill:#a5a5a5;}.cls-9{fill:#f5f5f5;}.cls-10{fill:#2d4972;}.cls-11{isolation:isolate;}.cls-12{fill:#fe875e;}.cls-13{fill:#dd6652;}.cls-14,.cls-15{fill:#6ea7ce;}.cls-16{fill:#071521;}.cls-4{opacity:.8;}.cls-17{fill:#e7e4e4;}.cls-6{mix-blend-mode:multiply;}.cls-6,.cls-15{opacity:.5;}.cls-18{fill:#b62126;}.cls-19{fill:#fae0b2;}.cls-20{fill:#f7cc7f;}.cls-21{fill:#f47458;}.cls-22{fill:#213854;}.cls-23{fill:#183658;}.cls-24{fill:#001333;}.cls-25{fill:#902126;}</style></defs><g class="cls-11"><g id="Layer_1"><g><path class="cls-7" d="m3173.38,369.66h0c-3.2,0-5.82,2.62-5.82,5.82v113.32c0,3.2,2.62,5.82,5.82,5.82h0c3.2,0,5.82-2.62,5.82-5.82v-113.32c0-3.2-2.62-5.82-5.82-5.82Z"></path><path class="cls-7" d="m3195.89,390.83h0c-3.2,0-5.82,2.62-5.82,5.82v113.32c0,3.2,2.62,5.82,5.82,5.82h0c3.2,0,5.82-2.62,5.82-5.82v-113.32c0-3.2-2.62-5.82-5.82-5.82Z"></path><g><rect class="cls-7" x="3050.59" y="410.71" width="23.1" height="79.96"></rect><circle class="cls-9" cx="3062.14" cy="396.7" r="40.87" transform="translate(175.14 1491.84) rotate(-28.15)"></circle><path class="cls-17" d="m3070,356.6c8.87,7.5,14.52,18.69,14.52,31.21,0,22.57-18.3,40.87-40.87,40.87-2.69,0-5.31-.28-7.86-.77,7.12,6.02,16.31,9.66,26.35,9.66,22.57,0,40.87-18.3,40.87-40.87,0-19.88-14.2-36.43-33.02-40.1Z"></path><g><rect class="cls-17" x="3030.32" y="745.62" width="62.19" height="1385.65"></rect><rect class="cls-7" x="3092.51" y="745.62" width="48.12" height="1385.65"></rect><rect class="cls-9" x="2982.19" y="745.62" width="48.12" height="1385.65" transform="translate(6012.51 2876.89) rotate(180)"></rect><rect class="cls-17" x="3006.26" y="714.52" width="110.32" height="31.1"></rect><path class="cls-9" d="m2928.91,714.52h77.34v31.1h-77.34c-8.58,0-15.55-6.97-15.55-15.55h0c0-8.58,6.97-15.55,15.55-15.55Z"></path><path class="cls-7" d="m3116.57,714.52h77.34c8.58,0,15.55,6.97,15.55,15.55h0c0,8.58-6.97,15.55-15.55,15.55h-77.34v-31.1h0Z"></path><polygon class="cls-18" points="3061.41 538.6 2877.5 538.6 2934.36 714.52 3061.41 714.52 3188.47 714.52 3245.33 538.6 3061.41 538.6"></polygon><path class="cls-9" d="m2977.9,508.39h-112.84c-8.34,0-15.1,6.76-15.1,15.1h0c0,8.34,6.76,15.1,15.1,15.1h112.84v-30.21Z"></path><path class="cls-7" d="m3144.93,508.39h112.84c8.34,0,15.1,6.76,15.1,15.1h0c0,8.34-6.76,15.1-15.1,15.1h-112.84v-30.21Z"></path><rect class="cls-17" x="2977.9" y="508.39" width="167.04" height="30.21" transform="translate(6122.83 1046.99) rotate(180)"></rect><path class="cls-9" d="m2929.92,480.85h72.54v27.54h-90.31v-9.77c0-9.81,7.97-17.78,17.78-17.78Z"></path><path class="cls-7" d="m3120.37,480.85h90.31v27.54h-72.54c-9.81,0-17.78-7.97-17.78-17.78v-9.77h0Z" transform="translate(6331.05 989.24) rotate(180)"></path><rect class="cls-17" x="3002.46" y="480.85" width="117.91" height="27.54" transform="translate(6122.83 989.24) rotate(180)"></rect><path class="cls-9" d="m2980.81,453.31h43.06v27.54h-57.52v-13.08c0-7.98,6.48-14.47,14.47-14.47Z"></path><path class="cls-7" d="m3098.96,453.31h57.52v27.54h-43.06c-7.98,0-14.47-6.48-14.47-14.47v-13.08h0Z" transform="translate(6255.45 934.16) rotate(180)"></path><rect class="cls-17" x="3023.87" y="453.31" width="75.1" height="27.54" transform="translate(6122.83 934.16) rotate(180)"></rect><polygon class="cls-18" points="2982.19 799.82 3030.32 767.83 3092.51 767.83 3140.64 883.34 3140.64 745.62 2982.19 745.62 2982.19 799.82"></polygon><polygon class="cls-17" points="3020.64 714.52 2990.33 618.57 2925.56 687.3 2934.36 714.52 3020.64 714.52"></polygon><polygon class="cls-17" points="3107.29 714.52 3188.47 714.52 3212.7 639.56 3116.57 691.42 3107.29 714.52"></polygon><polygon class="cls-17" points="3132.49 584.72 3006.26 686.09 3013.44 714.52 3107.29 714.52 3132.49 584.72"></polygon><polygon class="cls-9" points="2968.96 538.6 3006.26 714.52 3020.54 714.52 2985.22 538.6 2968.96 538.6"></polygon><polygon class="cls-17" points="3153.87 538.6 3116.57 714.52 3102.29 714.52 3137.6 538.6 3153.87 538.6"></polygon><polygon class="cls-25" points="2892.97 586.46 2988.26 553.71 3134.97 553.71 3215.52 630.84 3245.33 538.6 2877.5 538.6 2892.97 586.46"></polygon></g></g><rect class="cls-25" x="3167.56" y="396.7" width="11.64" height="24.14"></rect><rect class="cls-25" x="3167.56" y="432.14" width="11.64" height="24.14"></rect><rect class="cls-25" x="3190.07" y="416.36" width="11.64" height="24.14"></rect><rect class="cls-25" x="3190.07" y="451.8" width="11.64" height="24.14"></rect></g><ellipse class="cls-9" cx="1670.63" cy="2113.58" rx="1623.76" ry="432.61"></ellipse><g><path class="cls-8" d="m2147.27,608.39s289.94,184.5,286.66,196.55-23.47,2.65-64.46-13.87c-40.99-16.52-281.88-153.86-279.72-155.3,2.16-1.44,57.53-27.38,57.53-27.38Z"></path><path class="cls-7" d="m1641.14,732.76l79.14,35.23s33.03,6.47,46.34,3.24c13.3-3.24-62.74-46.02-62.74-46.02l-62.74,7.55Z"></path><path class="cls-8" d="m1766.62,771.23c13.3-3.24-62.74-46.02-62.74-46.02l-10,1.2c23.3,16.24,58.8,41.55,59.78,45.67,5.01.16,9.61-.04,12.96-.85Z"></path><path class="cls-7" d="m1949.98,676.67c2.88,1.44,434.33,141.66,434.33,141.66,0,0,43.14,8.63,49.62-5.03,0,0,3.51-4.04,0-8.36-3.51-4.31-320.71-205.22-320.71-205.22l-163.23,76.95Z"></path><path class="cls-18" d="m1569.59,674.52l650.77-230.1s106.42-40.27,179.05,3.6c0,0,20.13,10.79,12.22,48.9-7.91,38.11-69.75,62.56-69.75,62.56l-404.84,128.71s-197.03,56.09-307.77,50.34c-110.74-5.75-114.33-5.75-112.18-40.99,2.16-35.23,52.49-23.01,52.49-23.01Z"></path><path class="cls-7" d="m2007.51,583.23l-540.03-171.9s-99.95-32.36-108.58-32.36-47.46-5.03-51.77,4.31c-4.31,9.35,18.7,16.54,18.7,16.54l529.24,241.61,152.45-58.21Z"></path><path class="cls-8" d="m1596.37,683.59s-186.87-58.91-197.66-61.88c-10.79-2.97-40.99,0-40.99,0v7.41s19.8,3.62,30.92,5.26l161.61,66.2,46.11-16.99Z"></path><polygon class="cls-8" points="1358.9 378.98 1989.97 589.93 2007.51 583.23 1627.96 462.42 1358.9 378.98"></polygon><path class="cls-3" d="m1672.07,651.69h5.5c2.58,0,4.67,2.09,4.67,4.67v10.08c0,2.58-2.09,4.67-4.67,4.67h-5.5c-2.58,0-4.67-2.09-4.67-4.67v-10.08c0-2.58,2.09-4.67,4.67-4.67Z"></path><path class="cls-3" d="m1718.45,636.59h5.5c2.58,0,4.67,2.09,4.67,4.67v10.08c0,2.58-2.09,4.67-4.67,4.67h-5.5c-2.58,0-4.67-2.09-4.67-4.67v-10.08c0-2.58,2.09-4.67,4.67-4.67Z"></path><rect class="cls-3" x="1763.13" y="618.64" width="14.83" height="19.41" rx="4.67" ry="4.67"></rect><path class="cls-3" d="m1976.78,544.63h5.5c2.58,0,4.67,2.09,4.67,4.67v10.08c0,2.58-2.09,4.67-4.67,4.67h-5.5c-2.58,0-4.67-2.09-4.67-4.67v-10.08c0-2.58,2.09-4.67,4.67-4.67Z"></path><rect class="cls-3" x="2019.57" y="527.38" width="14.83" height="19.41" rx="4.67" ry="4.67"></rect><path class="cls-3" d="m2071.16,511.47h5.5c2.58,0,4.67,2.09,4.67,4.67v10.08c0,2.58-2.09,4.67-4.67,4.67h-5.5c-2.58,0-4.67-2.09-4.67-4.67v-10.08c0-2.58,2.09-4.67,4.67-4.67Z"></path><path class="cls-3" d="m2118.61,495.47h5.5c2.58,0,4.67,2.09,4.67,4.67v10.08c0,2.58-2.09,4.67-4.67,4.67h-5.5c-2.58,0-4.67-2.09-4.67-4.67v-10.08c0-2.58,2.09-4.67,4.67-4.67Z"></path><path class="cls-3" d="m2166.88,479.83h5.5c2.58,0,4.67,2.09,4.67,4.67v10.08c0,2.58-2.09,4.67-4.67,4.67h-5.5c-2.58,0-4.67-2.09-4.67-4.67v-10.08c0-2.58,2.09-4.67,4.67-4.67Z"></path><path class="cls-7" d="m1357.73,629.13s30.2-2.97,40.99,0c10.79,2.97,188.22,57.71,188.22,57.71l-46.11,16.99-183.1-74.69Z"></path><g><path class="cls-17" d="m1843.96,576.09c1.91,16.02-8.88,30.48-24.1,32.29-15.22,1.82-29.11-9.7-31.02-25.72-1.91-16.02,8.88-30.48,24.11-32.29,15.22-1.82,29.11,9.7,31.02,25.72Z"></path><path class="cls-17" d="m1809.26,551.09l85.16-39.67,27.81,66.16s-97.83,31.72-99.07,30.42-13.9-56.91-13.9-56.91Z"></path><ellipse class="cls-18" cx="1910.68" cy="543.42" rx="34.34" ry="36.13" transform="translate(-50.94 230.28) rotate(-6.81)"></ellipse><path class="cls-25" d="m1891.31,545.73c-2.05-17.15,7.69-32.85,22.55-38.22-2.44-.27-4.94-.27-7.46.03-18.83,2.25-32.18,20.13-29.82,39.95,2.36,19.82,19.54,34.06,38.37,31.81,2.53-.3,4.96-.89,7.26-1.73-15.71-1.72-28.86-14.69-30.91-31.84Z"></path></g><g><path class="cls-17" d="m1764.26,519.51c1.53,12.87-7.13,24.48-19.36,25.93-12.22,1.46-23.38-7.79-24.91-20.65-1.53-12.86,7.13-24.48,19.36-25.93,12.22-1.46,23.38,7.79,24.91,20.65Z"></path><path class="cls-17" d="m1736.39,499.42l68.39-31.86,22.33,53.13s-78.56,25.47-79.56,24.43c-1-1.04-11.16-45.7-11.16-45.7Z"></path><path class="cls-18" d="m1845.22,490c1.9,15.91-8.82,30.27-23.94,32.08-15.12,1.8-28.92-9.63-30.82-25.55-1.9-15.91,8.82-30.27,23.94-32.08,15.12-1.8,28.92,9.63,30.82,25.55Z"></path><path class="cls-25" d="m1802.29,495.12c-1.64-13.78,6.17-26.38,18.11-30.69-1.96-.21-3.96-.22-5.99.02-15.12,1.8-25.84,16.17-23.94,32.08,1.9,15.91,15.69,27.35,30.82,25.55,2.03-.24,3.98-.72,5.83-1.39-12.62-1.38-23.18-11.8-24.82-25.57Z"></path></g><g><path class="cls-17" d="m2262.12,740.2c1.55,12.99-7.2,24.72-19.55,26.19-12.35,1.47-23.61-7.87-25.16-20.86-1.55-12.99,7.2-24.72,19.55-26.19,12.35-1.47,23.61,7.87,25.16,20.86Z"></path><path class="cls-17" d="m2233.98,719.91l69.07-32.17,22.55,53.66s-79.34,25.72-80.35,24.67c-1.01-1.05-11.27-46.16-11.27-46.16Z"></path><path class="cls-18" d="m2343.89,710.4c1.92,16.07-8.91,30.58-24.18,32.4-15.27,1.82-29.21-9.73-31.12-25.8-1.92-16.07,8.91-30.58,24.18-32.4,15.27-1.82,29.21,9.73,31.12,25.8Z"></path><path class="cls-25" d="m2300.53,715.57c-1.66-13.91,6.23-26.64,18.29-31-1.98-.22-4-.22-6.05.02-15.27,1.82-26.1,16.33-24.18,32.4,1.92,16.07,15.85,27.62,31.12,25.8,2.05-.24,4.02-.73,5.89-1.4-12.74-1.39-23.41-11.91-25.07-25.83Z"></path></g><g><path class="cls-17" d="m2173.76,690.74c1.91,16.02-8.88,30.48-24.1,32.29-15.22,1.82-29.11-9.7-31.02-25.72-1.91-16.02,8.88-30.48,24.1-32.29,15.22-1.82,29.11,9.7,31.02,25.72Z"></path><path class="cls-17" d="m2139.06,665.73l85.16-39.67,27.81,66.16s-97.83,31.72-99.07,30.42c-1.24-1.3-13.9-56.91-13.9-56.91Z"></path><path class="cls-18" d="m2274.58,654c2.36,19.82-10.99,37.7-29.82,39.94-18.83,2.25-36.01-12-38.37-31.81-2.36-19.82,10.99-37.7,29.82-39.95s36.01,12,38.37,31.81Z"></path><path class="cls-25" d="m2221.12,660.38c-2.05-17.15,7.69-32.85,22.55-38.22-2.44-.27-4.93-.27-7.46.03-18.83,2.25-32.18,20.13-29.82,39.95,2.36,19.82,19.54,34.06,38.37,31.81,2.53-.3,4.96-.89,7.26-1.73-15.71-1.72-28.86-14.69-30.91-31.84Z"></path></g><path class="cls-3" d="m2239.83,470.52c38.25-13.34,92.76-32.8,145.99-17.2,0,0-6.47-18.07-59.59-18.07-37.58,0-71.79,14.98-90.12,27.95-3.94,2.79-.83,8.91,3.72,7.32Z"></path><path class="cls-18" d="m2270.95,438.77l7.82,25.89s13.21-3.24,13.21-4.04-10.52-25.35-10.52-25.35l-10.52,3.51Z"></path><path class="cls-18" d="m2339.17,433.36l4.04,24.27s1.62,1.89,1.89,0-2.97-24.27-2.97-24.27h-2.97Z"></path></g><rect class="cls-9" x="406.21" y="1534.16" width="2500.85" height="603.95"></rect><rect class="cls-18" x="406.21" y="1525.4" width="2500.85" height="43.76"></rect><rect class="cls-18" x="406.21" y="1911.78" width="2500.85" height="226.32"></rect><path class="cls-24" d="m747.84,1797.76l-4.54-3.31c16.56-22.74,33.68-46.26,42.19-73.47,1.48-4.72,2.74-9.69,3.95-14.5,3.35-13.22,6.81-26.89,15.3-38.01,6.3-8.25,14.78-14.29,22.98-20.13,2.57-1.83,5.23-3.73,7.76-5.64,43.55-33.07,66.48-91.48,57.05-145.34l5.53-.97c9.79,55.88-14,116.48-59.18,150.79-2.6,1.97-5.29,3.89-7.9,5.75-8.22,5.85-15.99,11.38-21.78,18.96-7.79,10.21-10.96,22.73-14.32,35.98-1.24,4.88-2.52,9.93-4.04,14.8-8.79,28.09-26.19,51.99-43.01,75.1Z"></path><path class="cls-24" d="m773.76,1842.26c-1.23,0-2.47-.18-3.73-.55l1.62-5.38c4.6,1.39,9.76-2.39,11.9-6.68,2.47-4.96,2.55-11.04,2.64-16.93v-.22c.49-35.26,4.83-79.29,34.3-106.95,6.51-6.11,13.98-11.09,21.2-15.91,2.52-1.68,5.04-3.36,7.52-5.09,21.52-14.99,50.09-40.87,63.97-78.99,12.38-34.02,10.69-72.48,9.19-106.42l5.61-.25c1.52,34.46,3.24,73.52-9.53,108.59-14.38,39.51-43.85,66.23-66.04,81.68-2.51,1.75-5.06,3.45-7.61,5.15-7.03,4.69-14.3,9.54-20.47,15.33-27.93,26.22-32.05,68.78-32.52,102.93v.22c-.09,6.52-.18,13.25-3.23,19.36-2.67,5.36-8.44,10.11-14.83,10.11Z"></path><path class="cls-24" d="m1732.83,1807.12l-4.54-3.31c16.56-22.74,33.68-46.26,42.19-73.47,1.48-4.72,2.74-9.69,3.95-14.5,3.35-13.22,6.81-26.89,15.3-38.01,6.3-8.25,14.78-14.29,22.98-20.13,2.57-1.83,5.24-3.73,7.76-5.64,43.55-33.07,66.48-91.48,57.05-145.34l5.53-.97c9.79,55.88-14,116.48-59.18,150.79-2.59,1.97-5.29,3.89-7.9,5.75-8.22,5.85-15.99,11.38-21.78,18.96-7.79,10.21-10.96,22.73-14.32,35.99-1.24,4.88-2.51,9.93-4.04,14.8-8.79,28.09-26.19,51.99-43.01,75.1Z"></path><path class="cls-24" d="m1758.74,1851.63c-1.23,0-2.47-.18-3.73-.55l1.62-5.38c4.6,1.39,9.76-2.39,11.9-6.68,2.47-4.96,2.55-11.05,2.63-16.93v-.22c.49-35.26,4.83-79.29,34.3-106.95,6.51-6.11,13.98-11.09,21.2-15.91,2.52-1.68,5.04-3.36,7.52-5.09,21.52-14.99,50.09-40.87,63.97-78.99,12.38-34.01,10.69-72.48,9.19-106.42l5.61-.25c1.52,34.46,3.24,73.52-9.53,108.59-14.38,39.51-43.85,66.23-66.04,81.68-2.51,1.75-5.06,3.45-7.61,5.15-7.03,4.69-14.3,9.54-20.47,15.33-27.93,26.22-32.05,68.78-32.53,102.93v.22c-.09,6.52-.18,13.25-3.23,19.36-2.67,5.36-8.44,10.11-14.83,10.11Z"></path><path class="cls-22" d="m2235.39,988.8h-645.44c-15.82,0-28.64,12.82-28.64,28.64v386.23c0,11.09,7.33,20.09,16.38,20.09h277.02v79.27h-164.12c-12.26,0-22.2,9.94-22.2,22.2h485.02c0-12.26-9.94-22.2-22.2-22.2h-164.12v-79.27h280.56c9.05,0,16.38-9,16.38-20.09v-386.23c0-15.82-12.82-28.64-28.64-28.64Z"></path><path class="cls-24" d="m2146.5,1503.03h-164.12v-93.73h-112.39v93.73h-164.12c-12.26,0-22.2,9.94-22.2,22.2h485.02c0-12.26-9.94-22.2-22.2-22.2Z"></path><path class="cls-24" d="m2279.32,1350.33v-332.89c0-15.82-12.82-28.64-28.64-28.64h-645.45c-15.82,0-28.64,12.82-28.64,28.64v332.89h702.72Z"></path><path class="cls-24" d="m1576.6,1350.33v53.34c0,11.1,7.33,20.09,16.38,20.09h669.96c9.05,0,16.38-9,16.38-20.09v-53.34h-702.72Z"></path><path class="cls-9" d="m2262.87,1335.87v-317.54c0-8.32-6.99-15.07-15.62-15.07h-638.59c-8.62,0-15.61,6.75-15.61,15.07v317.54h669.82Z"></path><rect class="cls-24" x="2680.31" y="1525.54" width="12.01" height="553.3"></rect><g><path class="cls-1" d="m2215.61,1511.69l121.02-29.41s42.8-57.4,84.02-106.89c12.68,12.04,19.98,30.8,32.74,42.72l-90.69,104.58c-3.27,3.77-7.98,5.99-12.97,6.11l-128.84,3.09-5.27-20.2Z"></path><path class="cls-1" d="m2133.3,1523.9c-1.27-1.96,1.91-5.27,4.3-7.76,2.65-2.76,18.66-9.68,21.38-10.51,2.72-.83,26.06,2.46,35,5.38,8.93,2.93,14.82,1.72,14.82,1.72,2.34-.48,5.86-1.12,8.6-1.69l5.6,20.84c-20.97-.27-42.91,1.29-44.89,1.25-6.3-.16-17.85-6.75-20.53-7.72-2.68-.97-8.1-.2-11.75,1.51-3.65,1.71-14.26,5.77-16.04,4.83-1.78-.95,3.5-7.84,3.5-7.84Z"></path><path class="cls-2" d="m2210.08,1506.26l-5.15.97v29.07s4.59,1.25,5.15.84c.56-.42,0-30.88,0-30.88Z"></path><path class="cls-24" d="m2446.06,1339.79c-21.76-3.28-114.17,139.86-114.17,139.86l-122.97,25.94v32.48l134.41-5.45c.19-.04.34-.08.54-.12,16.54-2.76,26.88-13.06,28.79-15.09,28.02-30.44,90.56-99.45,98.26-116.97,9.97-22.67-3.09-57.37-24.85-60.65Z"></path></g><rect class="cls-24" x="2851.67" y="1525.54" width="12.01" height="553.3"></rect><rect class="cls-19" x="1739.84" y="1525.54" width="1125.33" height="20.82"></rect><g><g><path class="cls-1" d="m2542.98,1262.81l24.15,61.52s-31.6,39.32-55.42,37.75c-19.99-1.31-12.53-28.71-12.53-28.71,0,0,2.5-36.24-4.51-53.4-7.01-17.16,48.31-17.16,48.31-17.16Z"></path><path class="cls-12" d="m2539.99,1283.68c-8.62,6.67-26.28,17.07-40.76,21.84-.55-9.23-1.83-18.85-4.57-25.55-3.23-7.92,6.81-12.18,18.56-14.48,15.59-2.07,29.75-2.69,29.75-2.69l4.64,11.82c-2.23,3.71-4.75,6.83-7.62,9.05Z"></path><path class="cls-1" d="m2575.21,1178.59c1.59-.34.54,74.56-22.7,92.54-23.24,17.98-63.35,20.14-74.84,2.56-12.71-19.44.54-98.55,35-115.84,34.46-17.28,62.55,20.74,62.55,20.74Z"></path><path class="cls-10" d="m2530.74,1119.79c23.36,7.38,36.79,23.01,41.59,29.56,10.75,2.47,24.72,9.86,36.31,35.51,14.25,31.54-4.82,62.49-29.31,75.95-24.49,13.45-24.71,31.67-24.71,31.67l-7.09-17.99s2.24-17.52,9.21-27.58c6.97-10.06-8.56-19.05-11.82-28.46-2.52-7.25-.23-22.9-4.11-34.84,0,0-19.42-18.84-34.96-21.12-26.5-3.89-5.08-52.16,24.9-42.69Z"></path></g><path class="cls-10" d="m2529.18,1173.92s4.4,9.16,1.86,18.38c-2.55,9.22-21.12,71.66-15.71,78.87,5.41,7.21,39.29,21.31,39.29,21.31l15.25-51.18-15.76-71.41-24.93,4.03Z"></path><path class="cls-16" d="m2534.03,1194.31s25.32-38.07,30.54-54.58c0,0,7.81-.48,12.06,3.37,4.25,3.85-15.78,50.35-26.05,68.46l-16.56-17.25Z"></path><path class="cls-13" d="m2555.71,1209.38c3.42,15.51-6.37,30.86-21.88,34.28-15.51,3.42-30.86-6.37-34.28-21.88-3.42-15.51,6.37-30.86,21.88-34.28,15.51-3.42,30.86,6.37,34.28,21.88Z"></path><path class="cls-20" d="m2552.36,1210.12c3.42,15.51-6.37,30.86-21.88,34.28-15.51,3.42-30.86-6.37-34.28-21.88-3.42-15.51,6.37-30.86,21.88-34.28,15.51-3.42,30.86,6.37,34.28,21.88Z"></path><path class="cls-5" d="m2541.7,1212.47c2.12,9.62-3.95,19.15-13.58,21.27-9.62,2.12-19.15-3.95-21.27-13.58-2.12-9.62,3.96-19.15,13.58-21.27,9.62-2.12,19.14,3.95,21.27,13.58Z"></path><path class="cls-6" d="m2513.55,1218.68c-1.87-8.48,2.63-16.87,10.3-20.2-1.13.03-2.27.16-3.42.41-9.62,2.12-15.7,11.65-13.58,21.27,2.12,9.62,11.65,15.7,21.27,13.58,1.15-.25,2.24-.62,3.27-1.07-8.37.21-15.98-5.51-17.85-13.99Z"></path></g><g><g><path class="cls-1" d="m2498.71,2007.43l-15.56-44.59h40.74c2.12,28.62,2.91,47.93,2.91,47.93l10.36,29.32,10.52,34.84s-34.65,8.93-52.83-1.11l2.02-34.68,1.84-31.71Z"></path><path class="cls-24" d="m2496.87,2039.01c15.99,7.12,33.2,2.83,40.13.55l2.3,6.2,8.82,29.4s-35.09,8.71-53.27-1.33l2.03-34.82Z"></path></g><g><path class="cls-1" d="m2231.32,1999.43s11.33,26.87,1.92,38c-9.41,11.13-48.57,22.08-53.7,28.11-5.13,6.03-4.74,11.16-4.74,11.16l109.91-3.12-1.23-33.08-10.13-49.85-42.03,8.79Z"></path><path class="cls-24" d="m2226.4,2042.98s28.25,11.36,41.89,4.61c13.64-6.75,13.22-8.62,17.17-6.11,3.95,2.51,5.39,33.52,5.39,33.52l-123.59,3.74c-8.6-.19-12.96-6.5-5.97-11.91,4.79-3.71,10.32-6.2,13.47-8,9.66-5.54,51.64-15.85,51.64-15.85Z"></path><path class="cls-24" d="m2428.21,1611.57c-12.31-3.37-269.86,46.34-290.72,103.15-3.39,9.24,37.73,155.51,90.5,295.23l56.05-8.61s-7.09-143.07-55.21-240.68c28.42,7.06,181.94-24.6,210.07-49.66,35.88-31.98,1.64-96.06-10.67-99.42Z"></path></g><path class="cls-24" d="m2376.12,1783.82s78.98,162.87,91.7,192.7c12.71,29.83,16.29,44.75,16.29,44.75h49.52s-19.09-186.14-51.31-237.45c-32.22-51.31-106.2,0-106.2,0Z"></path><g><path class="cls-25" d="m2473.33,1316.17l194.63,1.45c14.87.11,25.05,10.57,22.74,23.36l-73.24,406.21c-2.31,12.79-16.23,23.07-31.09,22.96l-194.64-1.45c-14.87-.11-25.05-10.57-22.74-23.36l73.24-406.21c2.31-12.79,16.23-23.07,31.09-22.96Z"></path><path class="cls-18" d="m2260.74,1742.02h143.56l76.26-405.54c2.19-11.22,16.01-20.31,30.88-20.31h194.64c14.87,0,25.15,9.09,22.96,20.31l-82.65,438.35c-2.19,11.22-16.01,20.31-30.88,20.31h-354.77c-19.44,0-35.2-11.89-35.2-26.56s15.76-26.56,35.2-26.56Z"></path></g><rect class="cls-3" x="2455.9" y="1795.15" width="20.35" height="250.61" transform="translate(4932.15 3840.91) rotate(180)"></rect><path class="cls-3" d="m2568.93,2059.03h-202.22c-9.31,0-16.86,7.55-16.86,16.87h0c0,1.63,1.32,2.95,2.95,2.95h230.05c1.63,0,2.95-1.32,2.95-2.95h0c0-9.31-7.55-16.87-16.86-16.87Z"></path><path class="cls-3" d="m2477.84,2045.76h-24.77c-7.33,0-13.27,5.94-13.27,13.27h0c0,7.33,5.94,13.27,13.27,13.27h24.77c7.33,0,13.27-5.94,13.27-13.27h0c0-7.33-5.94-13.27-13.27-13.27Z"></path></g><g><path class="cls-22" d="m1218.35,988.8h-645.44c-15.82,0-28.64,12.82-28.64,28.64v386.23c0,11.09,7.33,20.09,16.38,20.09h277.02v79.27h-164.12c-12.26,0-22.2,9.94-22.2,22.2h485.02c0-12.26-9.94-22.2-22.2-22.2h-164.12v-79.27h280.56c9.05,0,16.38-9,16.38-20.09v-386.23c0-15.82-12.82-28.64-28.64-28.64Z"></path><path class="cls-24" d="m1129.46,1503.03h-164.12v-93.73h-112.39v93.73h-164.12c-12.26,0-22.2,9.94-22.2,22.2h485.02c0-12.26-9.94-22.2-22.2-22.2Z"></path><path class="cls-24" d="m1262.28,1350.33v-332.89c0-15.82-12.82-28.64-28.64-28.64h-645.44c-15.82,0-28.64,12.82-28.64,28.64v332.89h702.72Z"></path><path class="cls-24" d="m559.56,1350.33v53.34c0,11.1,7.33,20.09,16.38,20.09h669.96c9.05,0,16.38-9,16.38-20.09v-53.34h-702.72Z"></path><path class="cls-9" d="m1245.83,1335.87v-317.54c0-8.32-6.99-15.07-15.62-15.07h-638.59c-8.62,0-15.61,6.75-15.61,15.07v317.54h669.82Z"></path><g><rect x="752.57" y="1050.66" width="31.87" height="246.7"></rect><rect x="708.06" y="1124.52" width="31.87" height="171.45"></rect><rect x="797.72" y="1104.11" width="31.87" height="193.25"></rect><rect x="663.54" y="1095.12" width="31.87" height="200.85"></rect><rect x="619.03" y="1154.67" width="31.87" height="141.3"></rect><g><rect class="cls-18" x="752.57" y="1106.12" width="31.87" height="191.24"></rect><rect class="cls-18" x="708.06" y="1164.03" width="31.87" height="131.94"></rect><rect class="cls-18" x="797.72" y="1147.25" width="31.87" height="150.1"></rect><rect class="cls-18" x="663.54" y="1141.41" width="31.87" height="154.56"></rect><rect class="cls-18" x="619.03" y="1187.23" width="31.87" height="108.73"></rect></g></g><rect class="cls-23" x="596.55" y="1027.88" width="97.44" height="12.72"></rect><rect class="cls-23" x="596.55" y="1051.2" width="81.47" height="12.72"></rect><rect class="cls-23" x="596.55" y="1074.51" width="46.55" height="12.72"></rect></g><rect class="cls-24" x="535.54" y="1525.54" width="12.01" height="553.3"></rect><rect class="cls-24" x="706.9" y="1525.54" width="12.01" height="553.3"></rect><g><path class="cls-1" d="m1119.92,1511.69l121.02-29.41s42.8-57.4,84.02-106.89c12.68,12.04,19.98,30.8,32.74,42.72l-90.69,104.58c-3.27,3.77-7.98,5.99-12.97,6.11l-128.84,3.09-5.27-20.2Z"></path><path class="cls-1" d="m1037.61,1523.9c-1.27-1.96,1.91-5.27,4.3-7.76,2.64-2.76,18.66-9.68,21.38-10.51,2.72-.83,26.06,2.46,35,5.38,8.94,2.93,14.82,1.72,14.82,1.72,2.34-.48,5.86-1.12,8.6-1.69l5.6,20.84c-20.97-.27-42.91,1.29-44.89,1.25-6.3-.16-17.85-6.75-20.53-7.72-2.68-.97-8.1-.2-11.75,1.51-3.65,1.71-14.26,5.77-16.04,4.83-1.78-.95,3.5-7.84,3.5-7.84Z"></path><path class="cls-2" d="m1114.39,1506.26l-5.15.97v29.07s4.59,1.25,5.15.84c.56-.42,0-30.88,0-30.88Z"></path><path class="cls-24" d="m1350.37,1339.79c-21.76-3.28-114.17,139.86-114.17,139.86l-122.97,25.94v32.48l134.41-5.45c.19-.04.34-.08.54-.12,16.54-2.76,26.89-13.06,28.79-15.09,28.02-30.44,90.56-99.45,98.26-116.97,9.97-22.67-3.1-57.37-24.85-60.65Z"></path></g><rect class="cls-19" x="535.54" y="1525.54" width="1217.08" height="20.82"></rect><rect class="cls-20" x="535.54" y="1525.54" width="183.37" height="20.82"></rect><g><g><path class="cls-1" d="m1447.29,1262.81l24.15,61.52s-31.6,39.32-55.42,37.75c-19.99-1.31-12.53-28.71-12.53-28.71,0,0,2.49-36.24-4.51-53.4-7.01-17.16,48.31-17.16,48.31-17.16Z"></path><path class="cls-12" d="m1444.3,1283.68c-8.62,6.67-26.28,17.07-40.76,21.84-.55-9.23-1.83-18.85-4.57-25.55-3.23-7.92,6.81-12.18,18.56-14.48,15.59-2.07,29.75-2.69,29.75-2.69l4.64,11.82c-2.23,3.71-4.75,6.83-7.62,9.05Z"></path><path class="cls-1" d="m1479.52,1178.59c1.59-.34.54,74.56-22.7,92.54-23.24,17.98-63.35,20.14-74.84,2.56-12.71-19.44.54-98.55,35-115.84,34.46-17.28,62.54,20.74,62.54,20.74Z"></path><path class="cls-19" d="m1435.05,1119.79c23.36,7.38,36.79,23.01,41.59,29.56,10.75,2.47,24.72,9.86,36.31,35.51,14.25,31.54-4.82,62.49-29.31,75.95-24.49,13.45-24.71,31.67-24.71,31.67l-7.09-17.99s2.24-17.52,9.21-27.58c6.97-10.06-8.56-19.05-11.83-28.46-2.52-7.25-.23-22.9-4.11-34.84,0,0-19.42-18.84-34.96-21.12-26.5-3.89-5.08-52.16,24.9-42.69Z"></path></g><path class="cls-19" d="m1433.49,1173.92s4.4,9.16,1.86,18.38c-2.55,9.22-21.12,71.66-15.71,78.87,5.41,7.21,39.29,21.31,39.29,21.31l15.25-51.18-15.77-71.41-24.93,4.03Z"></path><path class="cls-16" d="m1438.35,1194.31s25.32-38.07,30.54-54.58c0,0,7.81-.48,12.06,3.37,4.25,3.85-15.78,50.35-26.05,68.46l-16.56-17.25Z"></path><path class="cls-13" d="m1460.02,1209.38c3.42,15.51-6.37,30.86-21.88,34.28-15.51,3.42-30.86-6.37-34.28-21.88-3.42-15.51,6.37-30.86,21.88-34.28,15.51-3.42,30.86,6.37,34.28,21.88Z"></path><path class="cls-20" d="m1456.67,1210.12c3.42,15.51-6.37,30.86-21.88,34.28-15.51,3.42-30.86-6.37-34.28-21.88-3.42-15.51,6.37-30.86,21.88-34.28,15.51-3.42,30.86,6.37,34.28,21.88Z"></path><path class="cls-5" d="m1446.01,1212.47c2.12,9.62-3.95,19.15-13.58,21.27-9.62,2.12-19.15-3.95-21.27-13.58-2.12-9.62,3.95-19.15,13.58-21.27,9.62-2.12,19.15,3.95,21.27,13.58Z"></path><path class="cls-6" d="m1417.86,1218.68c-1.87-8.48,2.63-16.87,10.3-20.2-1.13.03-2.27.16-3.42.41-9.62,2.12-15.7,11.65-13.58,21.27,2.12,9.62,11.65,15.7,21.27,13.58,1.15-.25,2.24-.62,3.27-1.07-8.37.21-15.98-5.51-17.85-13.99Z"></path></g><g><g><path class="cls-1" d="m1403.02,2007.43l-15.56-44.59h40.74c2.12,28.62,2.91,47.93,2.91,47.93l10.36,29.32,10.52,34.84s-34.65,8.93-52.83-1.11l2.02-34.68,1.84-31.71Z"></path><path class="cls-24" d="m1401.18,2039.01c15.99,7.12,33.2,2.83,40.13.55l2.3,6.2,8.82,29.4s-35.09,8.71-53.27-1.33l2.03-34.82Z"></path></g><g><path class="cls-1" d="m1135.63,1999.43s11.33,26.87,1.92,38c-9.41,11.13-48.57,22.08-53.7,28.11-5.13,6.03-4.74,11.16-4.74,11.16l109.91-3.12-1.23-33.08-10.13-49.85-42.03,8.79Z"></path><path class="cls-24" d="m1130.72,2042.98s28.25,11.36,41.89,4.61c13.64-6.75,13.22-8.62,17.17-6.11,3.95,2.51,5.39,33.52,5.39,33.52l-123.59,3.74c-8.6-.19-12.96-6.5-5.97-11.91,4.79-3.71,10.32-6.2,13.47-8,9.66-5.54,51.64-15.85,51.64-15.85Z"></path><path class="cls-24" d="m1332.52,1611.57c-12.31-3.37-269.86,46.34-290.72,103.15-3.39,9.24,37.73,155.51,90.49,295.23l56.05-8.61s-7.09-143.07-55.21-240.68c28.42,7.06,181.94-24.6,210.07-49.66,35.88-31.98,1.64-96.06-10.67-99.42Z"></path></g><path class="cls-24" d="m1280.44,1783.82s78.98,162.87,91.69,192.7c12.71,29.83,16.29,44.75,16.29,44.75h49.52s-19.09-186.14-51.31-237.45c-32.22-51.31-106.2,0-106.2,0Z"></path><g><path class="cls-25" d="m1377.64,1316.17l194.64,1.45c14.87.11,25.05,10.57,22.74,23.36l-73.24,406.21c-2.31,12.79-16.23,23.07-31.09,22.96l-194.64-1.45c-14.87-.11-25.05-10.57-22.74-23.36l73.24-406.21c2.31-12.79,16.23-23.07,31.09-22.96Z"></path><path class="cls-18" d="m1165.05,1742.02h143.56l76.26-405.54c2.19-11.22,16.01-20.31,30.88-20.31h194.64c14.87,0,25.15,9.09,22.96,20.31l-82.66,438.35c-2.18,11.22-16.01,20.31-30.87,20.31h-354.77c-19.44,0-35.2-11.89-35.2-26.56s15.76-26.56,35.2-26.56Z"></path></g><rect class="cls-3" x="1360.21" y="1795.15" width="20.35" height="250.61" transform="translate(2740.77 3840.91) rotate(180)"></rect><path class="cls-3" d="m1473.24,2059.03h-202.22c-9.31,0-16.86,7.55-16.86,16.87h0c0,1.63,1.32,2.95,2.95,2.95h230.05c1.63,0,2.95-1.32,2.95-2.95h0c0-9.31-7.55-16.87-16.86-16.87Z"></path><path class="cls-3" d="m1382.15,2045.76h-24.77c-7.33,0-13.27,5.94-13.27,13.27h0c0,7.33,5.94,13.27,13.27,13.27h24.77c7.33,0,13.27-5.94,13.27-13.27h0c0-7.33-5.94-13.27-13.27-13.27Z"></path></g><g><path class="cls-10" d="m1859.5,1091.6h0s-1.08-1.48-1.08-1.48h0c-22.86-30.79-59.5-50.75-100.8-50.75s-74.42,18.1-97.42,46.41h0s-1.14,1.42-1.14,1.42h0c-16.84,21.36-26.9,48.32-26.9,77.63,0,24.57,7.07,47.48,19.27,66.83h0s.5.79.5.79c0,0,0,0,0,.01l.47.75h.01c22.38,34.36,61.14,57.09,105.21,57.09,69.29,0,125.46-56.17,125.46-125.46,0-27.34-8.75-52.62-23.59-73.23Zm-189.04-13.93c11.32-11.32,24.5-20.21,39.18-26.42,15.2-6.43,31.34-9.69,47.98-9.69s32.79,3.26,47.98,9.69c14.68,6.21,27.86,15.1,39.18,26.42,4.32,4.32,8.28,8.9,11.87,13.74l-14.19,10.36c-19.27-25.88-50.1-42.65-84.84-42.65s-62.61,15.2-81.99,38.99l-13.72-10.97c2.67-3.29,5.52-6.45,8.55-9.48Zm88.26,88.98l40,25.3c-1.82,2.75-3.92,5.33-6.29,7.7-4.52,4.52-9.79,8.07-15.65,10.55-5.73,2.43-11.81,3.72-18.07,3.86v-47.4Zm.49-1.84l38.72-28.27c2,2.84,3.7,5.89,5.06,9.12,2.57,6.07,3.87,12.52,3.87,19.16s-1.3,13.09-3.87,19.16c-.94,2.23-2.04,4.37-3.29,6.42l-40.49-25.61Zm-1.56-1.13l-37.91-30.3c.97-1.16,1.99-2.28,3.07-3.36,4.52-4.52,9.79-8.07,15.65-10.55,6.07-2.57,12.52-3.87,19.16-3.87s13.09,1.3,19.16,3.87c5.86,2.48,11.13,6.03,15.65,10.55,1.59,1.59,3.06,3.28,4.41,5.05l-39.2,28.61Zm-1.39,1.23l-40.53,25.8c-1.32-2.14-2.49-4.38-3.48-6.72-2.57-6.07-3.87-12.52-3.87-19.16s1.3-13.09,3.87-19.16c1.65-3.9,3.78-7.53,6.34-10.86l37.66,30.11Zm.63,1.77v47.38c-6.39-.09-12.59-1.39-18.43-3.86-5.86-2.48-11.13-6.03-15.65-10.55-2.28-2.28-4.31-4.75-6.09-7.39l40.17-25.57Zm0,48.25v28.23c-10.32-.09-20.33-2.16-29.76-6.15-9.33-3.95-17.71-9.6-24.9-16.79-3.79-3.79-7.15-7.92-10.06-12.34l23.83-15.17c8.87,13.21,23.86,21.97,40.91,22.21Zm1.83,0c17.03-.37,31.96-9.23,40.74-22.51l23.87,15.1c-2.97,4.56-6.41,8.81-10.31,12.72-7.2,7.2-15.57,12.84-24.9,16.79-9.32,3.94-19.21,6-29.4,6.14v-28.23Zm41.72-24.04c4.63-7.59,7.3-16.51,7.3-26.05,0-10.72-3.37-20.65-9.1-28.8l22.81-16.65c3.32,4.65,6.12,9.65,8.37,14.96,4.08,9.66,6.16,19.92,6.16,30.49s-2.07,20.84-6.16,30.5c-1.57,3.71-3.41,7.26-5.51,10.65l-23.87-15.1Zm-2.89-56.33c-9.15-12.05-23.63-19.83-39.93-19.83s-29.37,7.05-38.56,18.11l-22.06-17.63c1.64-2,3.38-3.92,5.22-5.76,7.2-7.2,15.57-12.84,24.9-16.79,9.66-4.09,19.92-6.16,30.5-6.16s20.84,2.07,30.5,6.16c9.33,3.95,17.71,9.59,24.9,16.79,2.66,2.66,5.11,5.49,7.34,8.47l-22.81,16.65Zm-79.63-.29c-6.52,8.46-10.41,19.06-10.41,30.57,0,9.67,2.74,18.7,7.49,26.35l-23.83,15.17c-2.19-3.5-4.11-7.18-5.74-11.03-4.09-9.66-6.16-19.92-6.16-30.5s2.07-20.84,6.16-30.49c2.7-6.37,6.19-12.3,10.42-17.71l22.06,17.64Zm-40.04,30.57c0,15.53,4.44,30.01,12.12,42.27l-20.36,12.96c-2.95-4.7-5.54-9.64-7.72-14.8-5.42-12.8-8.16-26.4-8.16-40.43s2.75-27.62,8.16-40.43c3.61-8.54,8.3-16.48,14-23.72l18.85,15.07c-10.58,13.53-16.89,30.57-16.89,49.08Zm13.11,43.81c14.13,21.46,38.35,35.68,65.9,35.92v24.12c-13.76-.09-27.12-2.83-39.7-8.15-12.37-5.23-23.48-12.72-33.01-22.26-5.12-5.12-9.64-10.7-13.55-16.67l20.36-12.96Zm67.73,35.92c27.57-.37,51.75-14.73,65.79-36.3l20.4,12.9c-3.97,6.14-8.59,11.87-13.84,17.12-9.54,9.54-20.65,17.03-33.01,22.26-12.47,5.27-25.7,8.01-39.33,8.15v-24.12Zm66.76-37.83c7.53-12.17,11.88-26.52,11.88-41.89,0-17.25-5.48-33.23-14.8-46.27l19.49-14.23c4.48,6.23,8.25,12.94,11.27,20.08,5.42,12.8,8.16,26.41,8.16,40.43s-2.75,27.62-8.16,40.43c-2.12,5-4.61,9.79-7.45,14.36l-20.4-12.9Zm-3.99-89.64c-14.54-19.42-37.74-31.99-63.87-31.99s-47.08,11.39-61.71,29.24l-18.84-15.07c2.23-2.73,4.6-5.36,7.11-7.87,9.54-9.54,20.65-17.03,33.01-22.26,12.8-5.42,26.41-8.16,40.43-8.16s27.62,2.75,40.43,8.16c12.37,5.23,23.48,12.72,33.01,22.26,3.6,3.6,6.91,7.43,9.92,11.46l-19.49,14.23Zm-177.45,95.73c-6.43-15.2-9.69-31.34-9.69-47.98s3.26-32.78,9.69-47.98c4.31-10.19,9.91-19.66,16.72-28.28l13.72,10.97c-14.14,17.98-22.57,40.65-22.57,65.3,0,20.66,5.93,39.93,16.18,56.22l-14.82,9.44c-3.54-5.61-6.62-11.51-9.23-17.67Zm26.42,39.18c-6.13-6.13-11.54-12.81-16.2-19.97l14.82-9.44c18.75,28.68,51.05,47.7,87.81,47.95v17.56c-16.38-.09-32.28-3.34-47.25-9.68-14.68-6.21-27.86-15.1-39.18-26.42Zm174.33,0c-11.32,11.32-24.5,20.21-39.18,26.42-14.86,6.29-30.63,9.53-46.88,9.67v-17.56c36.8-.38,69.1-19.55,87.74-48.39l14.85,9.39c-4.74,7.35-10.26,14.19-16.53,20.46Zm17.49-22l-14.85-9.39c10.08-16.19,15.9-35.3,15.9-55.77,0-22.98-7.34-44.24-19.79-61.59l14.19-10.36c5.36,7.44,9.87,15.45,13.47,23.96,6.43,15.2,9.69,31.34,9.69,47.98s-3.26,32.79-9.69,47.98c-2.53,5.99-5.52,11.72-8.92,17.19Z"></path><path class="cls-10" d="m1842.85,1159.34c0,3.84-3.11,6.95-6.95,6.95s-6.95-3.11-6.95-6.95,3.11-6.95,6.95-6.95,6.95,3.11,6.95,6.95Z"></path><path class="cls-10" d="m1693.24,1240.91c0,3.84-3.11,6.95-6.95,6.95s-6.95-3.11-6.95-6.95,3.11-6.95,6.95-6.95,6.95,3.11,6.95,6.95Z"></path><path class="cls-21" d="m1739.33,1063.51c0,3.84-3.11,6.95-6.95,6.95s-6.95-3.11-6.95-6.95,3.11-6.95,6.95-6.95,6.95,3.11,6.95,6.95Z"></path><path class="cls-21" d="m1644.23,1152.39c0,5.46-4.42,9.88-9.88,9.88s-9.88-4.42-9.88-9.88,4.42-9.88,9.88-9.88,9.88,4.42,9.88,9.88Z"></path><path class="cls-21" d="m1792.74,1208.36c0,5.46-4.42,9.88-9.88,9.88s-9.88-4.42-9.88-9.88,4.42-9.88,9.88-9.88,9.88,4.42,9.88,9.88Z"></path></g><g><rect x="1977.97" y="1047.67" width="31.87" height="246.7" transform="translate(3987.81 2342.04) rotate(180)"></rect><rect x="2022.48" y="1121.53" width="31.87" height="171.45" transform="translate(4076.84 2414.51) rotate(180)"></rect><rect x="1932.82" y="1101.12" width="31.87" height="193.25" transform="translate(3897.51 2395.49) rotate(180)"></rect><rect x="2066.99" y="1092.13" width="31.87" height="200.85" transform="translate(4165.86 2385.11) rotate(180)"></rect><rect x="2111.51" y="1151.68" width="31.87" height="141.3" transform="translate(4254.89 2444.66) rotate(180)"></rect><g><g><rect class="cls-18" x="1977.97" y="1103.13" width="31.87" height="191.24" transform="translate(3987.81 2397.5) rotate(180)"></rect></g><rect class="cls-18" x="2022.48" y="1161.04" width="31.87" height="131.94" transform="translate(4076.84 2454.02) rotate(180)"></rect><rect class="cls-18" x="1932.82" y="1144.27" width="31.87" height="150.1" transform="translate(3897.51 2438.64) rotate(180)"></rect><rect class="cls-18" x="2066.99" y="1138.42" width="31.87" height="154.56" transform="translate(4165.86 2431.4) rotate(180)"></rect><rect class="cls-18" x="2111.51" y="1184.24" width="31.87" height="108.73" transform="translate(4254.89 2477.22) rotate(180)"></rect></g></g><rect class="cls-23" x="2068.41" y="1024.89" width="97.45" height="12.72" transform="translate(4234.27 2062.5) rotate(180)"></rect><rect class="cls-23" x="2084.39" y="1048.21" width="81.47" height="12.72" transform="translate(4250.24 2109.13) rotate(180)"></rect><rect class="cls-23" x="2119.31" y="1071.53" width="46.55" height="12.72" transform="translate(4285.17 2155.77) rotate(180)"></rect><rect class="cls-22" x="591.84" y="1713.65" width="261.21" height="364.99"></rect><rect class="cls-24" x="834.01" y="1713.65" width="143.58" height="364.99"></rect><rect class="cls-22" x="1604.91" y="1713.65" width="261.21" height="364.99"></rect><rect class="cls-24" x="1847.09" y="1713.65" width="143.58" height="364.99"></rect><rect class="cls-15" x="1863.33" y="1737.84" width="116.1" height="16.85"></rect><rect class="cls-15" x="1863.33" y="1780.91" width="116.1" height="16.85"></rect><rect class="cls-15" x="1863.33" y="1823.98" width="116.1" height="16.85"></rect><rect class="cls-15" x="850.25" y="1737.84" width="116.1" height="16.85"></rect><rect class="cls-15" x="850.25" y="1780.91" width="116.1" height="16.85"></rect><rect class="cls-15" x="850.25" y="1823.98" width="116.1" height="16.85"></rect><rect class="cls-14" x="859.9" y="1053.68" width="363.39" height="1.99"></rect><rect class="cls-14" x="859.9" y="1099.35" width="363.39" height="1.99"></rect><rect class="cls-14" x="859.9" y="1145.02" width="363.39" height="1.99"></rect><rect class="cls-14" x="859.9" y="1190.69" width="363.39" height="1.99"></rect><rect class="cls-14" x="859.9" y="1236.36" width="363.39" height="1.99"></rect><g><path d="m934.88,1156.09c-1.28,4.46-2.1,8.93-4.1,13.31-2.02-4.32-2.84-8.79-4.08-13.29-7.33,1.7-14.61,3.39-22.03,5.12v-2.51c0-.6.1-1.23-.02-1.81-.28-1.44.4-2.09,1.63-2.72,6.03-3.11,12.01-6.32,18.01-9.49.47-.25.66-.47.61-1.07-.63-7.18-1.22-14.37-1.81-21.55-.28-3.4-.54-6.79-.78-10.19-.04-.49-.23-.63-.68-.62-1.52.05-3.04.18-4.55.12-4.35-.16-8.41,1.32-12.58,2.16-10.79,2.17-21.55,4.43-32.33,6.65-.25.05-.51.07-1,.14,0-1.45-.03-2.83.03-4.2,0-.23.35-.5.6-.65,2.68-1.59,5.37-3.18,8.07-4.73,3.91-2.24,7.83-4.46,11.76-6.67.48-.27.64-.58.63-1.12,0-1.99.02-3.99.07-5.98.04-1.95.58-2.64,2.53-2.79,1.61-.12,3.25-.06,4.86.07,1.35.11,1.88.74,2.04,2.07.07.59.08,1.19.12,1.91.34-.18.61-.31.88-.46,5.96-3.36,11.91-6.72,17.88-10.06.53-.29.75-.62.75-1.22-.02-1.86-.01-3.72,0-5.59.06-5.43,0-10.86.76-16.25.65-4.67,1.95-9.12,4.58-13.09.54-.82,1.22-1.6,1.97-2.22,1.55-1.3,3.17-1.22,4.7.1,1.3,1.12,2.15,2.57,2.86,4.1,1.89,4.06,3.03,8.34,3.35,12.78.31,4.36.35,8.75.53,13.12.07,1.89.16,3.77.3,5.65.02.29.31.64.57.81,5.39,3.48,10.8,6.95,16.21,10.41,1.01.65,2.03,1.29,3.2,2.04,0-.58,0-1.03,0-1.48.02-1.7.87-2.61,2.56-2.62,1.68,0,3.36,0,5.02.16,1.32.12,1.84.65,1.92,1.98.12,1.96.1,3.93.05,5.9-.04,1.56-.03,1.57,1.32,2.31,3.92,2.16,7.83,4.36,11.73,6.56,2.31,1.3,4.59,2.63,6.91,3.91.78.43,1.14.97,1.02,1.89-.1.75,0,1.52-.03,2.28,0,.33-.08.66-.13,1.07-2.08-.43-4.08-.84-6.07-1.24-9.91-2.02-19.82-4.04-29.73-6.05-2.51-.51-5.01-1.16-7.56-1.46-2.64-.31-5.33-.26-8.1-.37-.11,1.27-.23,2.41-.32,3.55-.29,3.84-.56,7.68-.87,11.52-.47,5.85-.96,11.71-1.47,17.56-.05.54.24.69.59.87,2.85,1.49,5.71,2.99,8.56,4.48,3.41,1.79,6.82,3.58,10.24,5.35.67.35.92.79.88,1.56-.07,1.47-.02,2.94-.02,4.41,0,.2-.04.41-.08.79-7.35-1.74-14.64-3.47-21.98-5.21Z"></path></g><g><path class="cls-18" d="m1117.75,1243.84c-2.75,3.73-5.07,7.65-8.47,11.06-.4-4.75.39-9.23.78-13.88-7.46-.95-14.88-1.89-22.44-2.85.3-.81.59-1.58.87-2.36.21-.57.52-1.12.61-1.7.23-1.45,1.1-1.82,2.47-1.98,6.73-.82,13.45-1.76,20.18-2.64.52-.07.78-.21.94-.79,1.9-6.95,3.84-13.9,5.78-20.84.92-3.28,1.85-6.56,2.81-9.83.14-.47,0-.67-.42-.81-1.44-.48-2.91-.89-4.31-1.47-4.03-1.67-8.35-1.68-12.55-2.34-10.87-1.71-21.75-3.33-32.63-4.99-.26-.04-.51-.11-.99-.21.5-1.36.96-2.66,1.49-3.93.09-.21.5-.35.79-.4,3.07-.56,6.14-1.12,9.21-1.63,4.45-.74,8.89-1.46,13.35-2.17.54-.09.8-.32.98-.83.68-1.87,1.4-3.73,2.14-5.58.72-1.82,1.46-2.28,3.34-1.74,1.55.44,3.07,1.07,4.54,1.75,1.23.57,1.51,1.34,1.2,2.65-.14.58-.34,1.15-.55,1.83.38-.05.68-.08.98-.13,6.75-1.08,13.51-2.17,20.26-3.23.6-.09.92-.32,1.12-.89.62-1.75,1.28-3.5,1.95-5.24,1.94-5.07,3.77-10.18,6.36-14.97,2.23-4.15,4.99-7.88,8.84-10.69.79-.58,1.69-1.07,2.62-1.4,1.91-.68,3.39-.05,4.37,1.72.83,1.5,1.13,3.16,1.26,4.84.36,4.46-.05,8.87-1.3,13.15-1.23,4.2-2.71,8.32-4.06,12.49-.58,1.79-1.16,3.59-1.68,5.4-.08.28.07.71.25.96,3.85,5.14,7.72,10.27,11.59,15.39.72.96,1.45,1.92,2.29,3.02.2-.54.35-.96.51-1.38.61-1.58,1.73-2.15,3.31-1.57,1.57.58,3.15,1.17,4.66,1.89,1.19.57,1.5,1.25,1.11,2.52-.57,1.88-1.27,3.72-2,5.55-.57,1.45-.57,1.46.44,2.63,2.93,3.39,5.82,6.81,8.72,10.23,1.71,2.02,3.39,4.06,5.12,6.07.59.68.74,1.3.3,2.13-.35.67-.54,1.42-.82,2.12-.12.31-.3.59-.49.96-1.8-1.12-3.53-2.2-5.26-3.27-8.59-5.33-17.18-10.67-25.78-16-2.18-1.35-4.3-2.83-6.58-3.99-2.37-1.2-4.91-2.09-7.46-3.15-.55,1.15-1.05,2.18-1.53,3.22-1.61,3.5-3.19,7.01-4.81,10.51-2.47,5.33-4.96,10.65-7.47,15.96-.23.49,0,.73.26,1.02,2.16,2.39,4.32,4.78,6.48,7.18,2.58,2.86,5.15,5.73,7.74,8.57.51.56.59,1.06.29,1.77-.57,1.35-1.04,2.75-1.55,4.12-.07.19-.18.37-.35.71-6.29-4.19-12.53-8.34-18.81-12.52Z"></path></g><g><rect class="cls-3" x="477.97" y="333.63" width="695.04" height="442.97" rx="17.24" ry="17.24"></rect><path class="cls-10" d="m1148.37,327.42h-32.99c-.3-5.49-4.83-9.84-10.39-9.84h-9.39v-179.47h-3.96v179.47h-87.49v-179.47h-3.96v179.47h-4c-5.56,0-10.09,4.36-10.39,9.84h-318.15c-.3-5.49-4.83-9.84-10.39-9.84h-8.48v-179.47h-3.96v179.47h-87.48v-179.47h-3.96v179.47h-4.91c-5.56,0-10.09,4.36-10.39,9.84h-35.46c-17.01,0-30.85,13.84-30.85,30.85v393.68c0,17.01,13.84,30.85,30.85,30.85h645.76c17.01,0,30.85-13.84,30.85-30.85v-393.68c0-17.01-13.84-30.85-30.85-30.85Zm18.44,424.53c0,10.16-8.27,18.44-18.44,18.44H502.61c-10.17,0-18.44-8.27-18.44-18.44v-393.68c0-10.16,8.27-18.43,18.44-18.43h645.76c10.16,0,18.44,8.27,18.44,18.43v393.68Z"></path></g><path class="cls-10" d="m849.96,445.48h.01s-1.55-2.13-1.55-2.13h0c-32.88-44.28-85.56-72.98-144.95-72.98s-107.01,26.02-140.1,66.74h-.01s-1.64,2.05-1.64,2.05h0c-24.22,30.71-38.68,69.49-38.68,111.64,0,35.33,10.16,68.27,27.71,96.1h0s.72,1.13.72,1.13c0,0,0,.01.01.02l.68,1.07h.02c32.18,49.41,87.92,82.1,151.3,82.1,99.65,0,180.42-80.78,180.42-180.42,0-39.31-12.58-75.68-33.92-105.31Zm-271.85-20.03c16.28-16.28,35.24-29.06,56.35-37.99,21.85-9.24,45.07-13.93,69-13.93s47.15,4.69,69,13.93c21.11,8.93,40.07,21.71,56.35,37.99,6.21,6.21,11.9,12.8,17.07,19.76l-20.41,14.9c-27.71-37.22-72.04-61.33-122.01-61.33s-90.03,21.86-117.91,56.07l-19.73-15.77c3.85-4.72,7.94-9.27,12.29-13.63Zm126.93,127.96l57.53,36.38c-2.62,3.96-5.64,7.66-9.04,11.07-6.5,6.5-14.07,11.61-22.51,15.17-8.25,3.49-16.98,5.35-25.98,5.54v-68.17Zm.7-2.65l55.69-40.65c2.88,4.09,5.31,8.48,7.28,13.12,3.69,8.73,5.56,18,5.56,27.56s-1.87,18.83-5.56,27.56c-1.36,3.21-2.94,6.29-4.73,9.24l-58.23-36.83Zm-2.24-1.62l-54.51-43.58c1.39-1.67,2.86-3.28,4.41-4.83,6.5-6.5,14.08-11.61,22.51-15.17,8.73-3.69,18-5.56,27.56-5.56s18.83,1.87,27.56,5.56c8.43,3.57,16,8.67,22.51,15.17,2.29,2.29,4.4,4.72,6.34,7.26l-56.37,41.15Zm-1.99,1.77l-58.28,37.11c-1.9-3.08-3.58-6.3-5-9.67-3.69-8.73-5.56-18-5.56-27.56s1.87-18.83,5.56-27.56c2.37-5.61,5.43-10.83,9.12-15.62l54.16,43.3Zm.91,2.54v68.13c-9.19-.13-18.1-1.99-26.51-5.55-8.43-3.57-16-8.67-22.51-15.17-3.28-3.28-6.2-6.83-8.75-10.63l57.77-36.78Zm0,69.39v40.6c-14.84-.13-29.23-3.1-42.8-8.84-13.42-5.67-25.46-13.8-35.81-24.15-5.46-5.46-10.29-11.39-14.47-17.74l34.26-21.81c12.75,19,34.31,31.59,58.82,31.94Zm2.63,0c24.49-.53,45.97-13.27,58.59-32.37l34.33,21.71c-4.27,6.56-9.22,12.67-14.83,18.29-10.35,10.35-22.4,18.47-35.81,24.15-13.41,5.67-27.62,8.63-42.28,8.83v-40.6Zm59.99-34.58c6.66-10.92,10.49-23.74,10.49-37.47,0-15.42-4.84-29.7-13.09-41.42l32.81-23.95c4.78,6.69,8.8,13.88,12.03,21.52,5.87,13.89,8.85,28.64,8.85,43.85s-2.98,29.96-8.85,43.85c-2.25,5.33-4.9,10.44-7.92,15.32l-34.33-21.71Zm-4.15-81.01c-13.16-17.33-33.98-28.52-57.42-28.52s-42.24,10.13-55.46,26.04l-31.72-25.36c2.36-2.87,4.86-5.64,7.51-8.29,10.35-10.35,22.4-18.47,35.81-24.15,13.89-5.87,28.64-8.85,43.85-8.85s29.96,2.98,43.85,8.85c13.42,5.67,25.46,13.8,35.81,24.15,3.83,3.83,7.35,7.89,10.56,12.17l-32.81,23.95Zm-114.52-.42c-9.38,12.17-14.97,27.41-14.97,43.96,0,13.9,3.94,26.89,10.76,37.9l-34.26,21.81c-3.15-5.04-5.91-10.33-8.25-15.86-5.87-13.89-8.85-28.64-8.85-43.85s2.98-29.96,8.85-43.85c3.88-9.17,8.9-17.69,14.99-25.47l31.73,25.36Zm-57.57,43.96c0,22.33,6.39,43.16,17.43,60.78l-29.28,18.64c-4.25-6.76-7.96-13.86-11.1-21.29-7.79-18.41-11.74-37.97-11.74-58.14s3.95-39.72,11.74-58.14c5.19-12.28,11.94-23.7,20.13-34.11l27.1,21.67c-15.22,19.46-24.29,43.96-24.29,70.57Zm18.85,63c20.32,30.85,55.15,51.3,94.77,51.66v34.69c-19.79-.14-38.99-4.07-57.08-11.72-17.79-7.52-33.76-18.29-47.48-32.01-7.36-7.36-13.87-15.38-19.49-23.98l29.28-18.64Zm97.4,51.65c39.64-.54,74.42-21.18,94.61-52.2l29.33,18.55c-5.71,8.84-12.36,17.07-19.9,24.61-13.72,13.72-29.69,24.49-47.48,32.01-17.93,7.58-36.95,11.52-56.56,11.72v-34.69Zm96-54.41c10.83-17.51,17.09-38.14,17.09-60.24,0-24.81-7.88-47.78-21.28-66.55l28.03-20.46c6.44,8.97,11.86,18.61,16.2,28.87,7.79,18.41,11.74,37.97,11.74,58.14s-3.95,39.72-11.74,58.14c-3.04,7.19-6.63,14.08-10.71,20.66l-29.33-18.55Zm-5.74-128.91c-20.91-27.93-54.27-46-91.84-46s-67.71,16.38-88.74,42.04l-27.1-21.66c3.2-3.92,6.61-7.7,10.23-11.32,13.72-13.72,29.69-24.49,47.48-32.01,18.41-7.79,37.97-11.74,58.14-11.74s39.72,3.95,58.14,11.74c17.79,7.52,33.76,18.29,47.48,32.01,5.18,5.18,9.94,10.68,14.26,16.48l-28.03,20.46Zm-255.18,137.67c-9.24-21.85-13.93-45.07-13.93-69s4.69-47.15,13.93-69c6.2-14.65,14.26-28.27,24.05-40.67l19.73,15.77c-20.33,25.85-32.46,58.46-32.46,93.9,0,29.71,8.53,57.42,23.27,80.84l-21.32,13.57c-5.08-8.07-9.52-16.55-13.27-25.41Zm37.99,56.35c-8.81-8.81-16.59-18.42-23.3-28.72l21.31-13.57c26.96,41.25,73.41,68.59,126.28,68.95v25.25c-23.56-.14-46.42-4.81-67.95-13.92-21.11-8.93-40.07-21.71-56.35-37.99Zm250.69,0c-16.28,16.28-35.24,29.06-56.35,37.99-21.37,9.04-44.05,13.71-67.42,13.91v-25.25c52.92-.54,99.37-28.12,126.18-69.58l21.36,13.51c-6.81,10.57-14.75,20.41-23.76,29.43Zm25.16-31.63l-21.35-13.51c14.49-23.28,22.87-50.76,22.87-80.21,0-33.05-10.55-63.63-28.46-88.57l20.41-14.9c7.71,10.7,14.19,22.21,19.37,34.46,9.24,21.85,13.93,45.07,13.93,69s-4.69,47.15-13.93,69c-3.64,8.61-7.93,16.85-12.83,24.71Z"></path><path class="cls-10" d="m677.16,405.09c0,5.52-4.47,9.99-9.99,9.99s-9.99-4.47-9.99-9.99,4.47-9.99,9.99-9.99,9.99,4.47,9.99,9.99Z"></path><path class="cls-10" d="m540.4,532.91c0,7.84-6.36,14.2-14.2,14.2s-14.2-6.36-14.2-14.2,6.36-14.2,14.2-14.2,14.2,6.36,14.2,14.2Z"></path><g><path class="cls-18" d="m627.28,395.1c0,7.84-6.36,14.2-14.2,14.2s-14.2-6.36-14.2-14.2,6.36-14.2,14.2-14.2,14.2,6.36,14.2,14.2Z"></path></g><g><path class="cls-18" d="m606.77,689.83c0,7.84-6.36,14.2-14.2,14.2s-14.2-6.36-14.2-14.2,6.36-14.2,14.2-14.2,14.2,6.36,14.2,14.2Z"></path></g><path class="cls-18" d="m824.84,536.6c0,5.15-4.17,9.32-9.32,9.32s-9.32-4.17-9.32-9.32,4.17-9.32,9.32-9.32,9.32,4.17,9.32,9.32Z"></path><g><path class="cls-10" d="m783.59,539.53c0,5.15-4.17,9.32-9.32,9.32s-9.32-4.17-9.32-9.32,4.17-9.32,9.32-9.32,9.32,4.17,9.32,9.32Z"></path></g><path class="cls-18" d="m641.98,548.85c0,5.15-4.17,9.32-9.32,9.32s-9.32-4.17-9.32-9.32,4.17-9.32,9.32-9.32,9.32,4.17,9.32,9.32Z"></path><path class="cls-10" d="m649.71,644.51c0,5.15-4.17,9.32-9.32,9.32s-9.32-4.17-9.32-9.32,4.17-9.32,9.32-9.32,9.32,4.17,9.32,9.32Z"></path><path class="cls-10" d="m727.49,438.13c0,5.15-4.17,9.32-9.32,9.32s-9.32-4.17-9.32-9.32,4.17-9.32,9.32-9.32,9.32,4.17,9.32,9.32Z"></path><path class="cls-18" d="m817.71,441.78c0,5.15-4.17,9.32-9.32,9.32s-9.32-4.17-9.32-9.32,4.17-9.32,9.32-9.32,9.32,4.17,9.32,9.32Z"></path><path class="cls-10" d="m778.51,385.77c0,5.15-4.17,9.32-9.32,9.32s-9.32-4.17-9.32-9.32,4.17-9.32,9.32-9.32,9.32,4.17,9.32,9.32Z"></path><path class="cls-10" d="m1123.95,624.4h-148.49c-9.28,0-16.82-7.55-16.82-16.82v-220.38c0-9.28,7.55-16.82,16.82-16.82h148.49c9.28,0,16.82,7.55,16.82,16.82v220.38c0,9.28-7.55,16.82-16.82,16.82Zm-148.49-252.56c-8.47,0-15.36,6.89-15.36,15.36v220.38c0,8.47,6.89,15.36,15.36,15.36h148.49c8.47,0,15.36-6.89,15.36-15.36v-220.38c0-8.47-6.89-15.36-15.36-15.36h-148.49Z"></path><path class="cls-10" d="m1040.65,709.31h-232.26v-2h232.26c7.45,0,13.52-6.06,13.52-13.52v-69.89h2v69.89c0,8.56-6.96,15.52-15.52,15.52Z"></path><rect class="cls-18" x="976.79" y="393.18" width="151.71" height="19.12"></rect><rect class="cls-23" x="976.79" y="427.37" width="151.71" height="4.68"></rect><rect class="cls-14" x="976.79" y="445.31" width="151.71" height="4.68"></rect><rect class="cls-23" x="976.79" y="463.25" width="151.71" height="4.68"></rect><rect class="cls-14" x="976.79" y="481.19" width="151.71" height="4.68"></rect><rect class="cls-23" x="976.79" y="499.14" width="151.71" height="4.68"></rect><rect class="cls-23" x="976.79" y="517.08" width="151.71" height="4.68"></rect><rect class="cls-14" x="976.79" y="535.02" width="151.71" height="4.68"></rect><rect class="cls-23" x="976.79" y="552.97" width="151.71" height="4.68"></rect><rect class="cls-14" x="976.79" y="570.91" width="151.71" height="4.68"></rect><rect class="cls-23" x="976.79" y="588.85" width="151.71" height="4.68"></rect><path class="cls-10" d="m932.71,693.63l-.64-.77c-.86-1.03-21.08-25.32-21.42-37.32-.35-12.28,9.06-22.54,20.96-22.88h0c5.77-.17,11.26,2,15.46,6.1,4.19,4.09,6.59,9.62,6.76,15.56.34,12.01-19.64,37.44-20.49,38.51l-.62.79Zm-1.06-59.33c-11,.31-19.7,9.82-19.38,21.2.29,10.28,16.89,31.22,20.4,35.53,3.43-4.47,19.81-26.38,19.52-36.65-.15-5.52-2.38-10.65-6.26-14.44-3.88-3.79-8.95-5.78-14.27-5.64h0Zm.59,30.04c-4.92,0-8.99-4.05-9.14-9.14-.15-5.18,3.83-9.51,8.86-9.66,2.45-.07,4.77.85,6.54,2.58,1.77,1.73,2.78,4.06,2.85,6.56.07,2.51-.81,4.89-2.48,6.71-1.67,1.83-3.94,2.88-6.38,2.94-.08,0-.17,0-.25,0Zm-.02-17.17c-.07,0-.14,0-.21,0-4.13.12-7.4,3.69-7.27,7.98.12,4.28,3.57,7.68,7.71,7.56h0c2-.06,3.85-.91,5.23-2.41,1.38-1.51,2.11-3.48,2.05-5.56-.06-2.08-.9-4.01-2.36-5.44-1.4-1.37-3.22-2.12-5.14-2.12Z"></path><circle class="cls-18" cx="799.06" cy="704.04" r="14.2" transform="translate(-19.04 22.21) rotate(-1.57)"></circle><path class="cls-18" d="m939.37,707.91c0,3.94-3.19,7.14-7.14,7.14s-7.14-3.19-7.14-7.14,3.19-7.14,7.14-7.14,7.14,3.19,7.14,7.14Z"></path><path class="cls-4" d="m2787.99,365.35c-2.91-12.69-14.27-22.15-27.84-22.15-2.49,0-4.91.32-7.21.92-6.7-14.32-21.23-24.25-38.09-24.25-4.36,0-8.56.66-12.51,1.89-9.07-15.02-25.56-25.07-44.39-25.07-22.41,0-41.49,14.22-48.72,34.13-5.12-2.85-11.01-4.49-17.29-4.49-19.64,0-35.56,15.92-35.56,35.56,0,1.16.06,2.31.17,3.45h231.43Z"></path><g><path class="cls-9" d="m2836.16,986.05c-6.1-26.54-29.85-46.35-58.25-46.35-5.21,0-10.27.67-15.09,1.92-14.01-29.97-44.43-50.73-79.7-50.73-9.12,0-17.91,1.39-26.18,3.96-18.99-31.44-53.48-52.46-92.89-52.46-46.88,0-86.82,29.76-101.95,71.41-10.71-5.97-23.04-9.39-36.17-9.39-41.1,0-74.41,33.31-74.41,74.41,0,2.44.13,4.84.35,7.22h484.28Z"></path></g><g><path class="cls-9" d="m2462.27,141.67h263.15s-.99-12.44-21.89-11.44c-.99-20.4-29.85-32.83-48.75-16.42,13.93-34.32,5.47-59.69-18.41-62.18-23.88-2.49-39.8,22.39-44.27,37.81-14.43-15.42-17.41-2.49-17.91,0-21.89-23.88-51.24-15.92-60.19-6.47-8.95,9.45-6.96,31.84-6.96,31.84,0,0-31.34-13.43-38.3.99-6.96,14.43,5.47,19.4,5.47,19.4,0,0-10.45-1.99-11.94,6.47Z"></path></g><path class="cls-9" d="m1260.23,252.27h347.88s-1.32-16.44-28.94-15.13c-1.32-26.96-39.46-43.4-64.45-21.7,18.41-45.38,7.23-78.91-24.33-82.2-31.57-3.29-52.61,29.59-58.53,49.98-19.07-20.39-23.02-3.29-23.67,0-28.94-31.57-67.73-21.04-79.57-8.55-11.84,12.49-9.21,42.09-9.21,42.09,0,0-41.43-17.76-50.64,1.32-9.21,19.07,7.23,25.65,7.23,25.65,0,0-13.81-2.63-15.78,8.55Z"></path><path class="cls-9" d="m2561.57,642.72h-140.91s.53-6.66,11.72-6.13c.53-10.92,15.98-17.58,26.1-8.79-7.46-18.38-2.93-31.97,9.86-33.3,12.79-1.33,21.31,11.99,23.71,20.24,7.72-8.26,9.32-1.33,9.59,0,11.72-12.79,27.44-8.52,32.23-3.46,4.79,5.06,3.73,17.05,3.73,17.05,0,0,16.78-7.19,20.51.53,3.73,7.72-2.93,10.39-2.93,10.39,0,0,5.59-1.07,6.39,3.46Z"></path></g></g></svg>