<svg xmlns="http://www.w3.org/2000/svg" id="Layer_1" data-name="Layer 1" viewBox="0 0 116 116.77"><defs><style>      .cls-1 {        fill: #fff;      }      .cls-2 {        fill: none;      }    </style></defs><g><path class="cls-1" d="m87.66,69.87l-6.18-1.24c-.88-.25-1.6-.84-2.04-1.6.96-.84,1.74-1.86,2.26-3.04h.74c2.89,0,5.24-2.35,5.24-5.24v-4.83c0-7.51-5.76-13.99-13.26-14.36-8.02-.4-14.67,6.02-14.67,13.95v5.24c0,2.89,2.35,5.24,5.24,5.24h.74c.52,1.18,1.31,2.21,2.26,3.04-.44.76-1.13,1.34-1.91,1.57l-6.31,1.27c-4.07.82-7,4.4-7,8.56v6.51h41.9v-6.51c0-4.14-2.95-7.74-7-8.56h0Zm-19.19-9.61v-3.26c0-.85.61-1.56,1.41-1.71,2.41,1.12,5.07,1.71,7.73,1.71h1.33v3.49c0,3.06-2.64,5.52-5.76,5.21-2.72-.27-4.71-2.71-4.71-5.45Zm13.97.23v-3.49c.96,0,1.75.78,1.75,1.75s-.78,1.75-1.75,1.75Zm-19.21-1.75c0-.96.78-1.75,1.75-1.75v3.49c-.96,0-1.75-.78-1.75-1.75Zm3.11-5.24h-1.36c-.61,0-1.2.13-1.75.32v-.09c0-5.13,3.6-9.69,8.66-10.55,6.58-1.11,12.29,3.95,12.29,10.32v.32c-.55-.2-1.13-.32-1.75-.32h-4.79c-2.31,0-4.58-.53-6.65-1.56l-.37-.18h-.41c-1.54,0-2.92.68-3.88,1.75Zm7.37,15.71c.94,0,1.84-.19,2.69-.47.17.29.36.56.56.82l-3.25,3.9-3.25-3.9c.21-.26.39-.54.56-.83.85.28,1.74.47,2.69.47h0Zm17.46,12.22h-34.92v-3.02c0-2.48,1.77-4.64,4.2-5.13l6.45-1.31c.27-.08.53-.18.79-.28l6.03,7.23,6.03-7.24c.29.13.6.23.91.32l6.32,1.27c2.43.49,4.2,2.65,4.2,5.14v3.02Z"></path><g><path class="cls-2" d="m59.75,102.4h10.48c2.27,0,4.19-1.46,4.92-3.49h-20.31c.72,2.03,2.64,3.49,4.92,3.49Z"></path><path class="cls-2" d="m31.81,66.77v21.66h66.35v-47.95c0-2.44-1.98-4.42-4.42-4.42h-41.06c-.86,13.03-8.46,24.56-20.27,30.46-.19.1-.4.17-.6.25Z"></path><path class="cls-2" d="m70.22,105.89h-10.48c-4.22,0-7.74-3-8.55-6.98h-29.73c.85,5.92,5.95,10.48,12.1,10.48h62.86c6.15,0,11.25-4.56,12.1-10.48h-29.73c-.81,3.98-4.34,6.98-8.55,6.98Z"></path><path class="cls-1" d="m33.56,25.81c0-2.73-1.99-5.18-4.71-5.45-3.12-.31-5.76,2.15-5.76,5.21v5.24h10.48v-5Z"></path><path class="cls-1" d="m108.63,95.41v-61.11c0-4.82-3.91-8.73-8.73-8.73h-47.14v-13.97h-7.58c-5.86,0-11.48-2.33-15.63-6.47l-1.23-1.23-1.23,1.23c-4.14,4.14-9.76,6.47-15.63,6.47H3.87v21.97c0,12.92,6.62,24.63,17.46,31.3v30.53h-3.49v1.75c0,8.68,7.04,15.71,15.71,15.71h62.86c8.68,0,15.71-7.04,15.71-15.71v-1.75h-3.49Zm-55.96-59.36h41.06c2.44,0,4.42,1.98,4.42,4.42v47.95H31.81v-21.66c.2-.08.4-.16.6-.25,11.82-5.91,19.41-17.43,20.27-30.46Zm22.46,62.86c-.72,2.03-2.64,3.49-4.92,3.49h-10.48c-2.27,0-4.19-1.46-4.92-3.49h20.31ZM16.1,50.02v-13.97c0-2.27,1.46-4.19,3.49-4.92v-5.56c0-5.01,4.24-9.05,9.33-8.71,4.63.31,8.13,4.37,8.13,9.02v5.25c2.03.72,3.49,2.64,3.49,4.92v13.97c0,2.89-2.35,5.24-5.24,5.24h-13.97c-2.89,0-5.24-2.35-5.24-5.24Zm80.31,59.36h-62.86c-6.15,0-11.25-4.56-12.1-10.48h29.73c.81,3.98,4.34,6.98,8.55,6.98h10.48c4.21,0,7.74-3,8.55-6.98h29.73c-.85,5.92-5.95,10.48-12.1,10.48Z"></path></g><g><path class="cls-1" d="m35.3,34.31h-13.97c-.96,0-1.75.79-1.75,1.75v13.97c0,.96.79,1.75,1.75,1.75h13.97c.96,0,1.75-.79,1.75-1.75v-13.97c0-.96-.79-1.75-1.75-1.75Zm-5.24,11.9v3.81h-3.49v-3.81c-2.34-.83-3.93-3.26-3.39-5.98.4-2,2-3.63,3.99-4.05,3.38-.72,6.38,1.86,6.38,5.12,0,2.27-1.46,4.19-3.49,4.92Z"></path><path class="cls-1" d="m28.32,39.54c-.96,0-1.75.78-1.75,1.75s.78,1.75,1.75,1.75,1.75-.78,1.75-1.75-.78-1.75-1.75-1.75Z"></path></g><path class="cls-1" d="m35.3,81.45h13.97v3.49h-13.97v-3.49Z"></path><path class="cls-1" d="m35.3,74.46h13.97v3.49h-13.97v-3.49Z"></path><path class="cls-1" d="m35.3,67.48h13.97v3.49h-13.97v-3.49Z"></path></g><g><path class="cls-1" d="m87.66,69.87l-6.18-1.24c-.88-.25-1.6-.84-2.04-1.6.96-.84,1.74-1.86,2.26-3.04h.74c2.89,0,5.24-2.35,5.24-5.24v-4.83c0-7.51-5.76-13.99-13.26-14.36-8.02-.4-14.67,6.02-14.67,13.95v5.24c0,2.89,2.35,5.24,5.24,5.24h.74c.52,1.18,1.31,2.21,2.26,3.04-.44.76-1.13,1.34-1.91,1.57l-6.31,1.27c-4.07.82-7,4.4-7,8.56v6.51h41.9v-6.51c0-4.14-2.95-7.74-7-8.56h0Zm-19.19-9.61v-3.26c0-.85.61-1.56,1.41-1.71,2.41,1.12,5.07,1.71,7.73,1.71h1.33v3.49c0,3.06-2.64,5.52-5.76,5.21-2.72-.27-4.71-2.71-4.71-5.45Zm13.97.23v-3.49c.96,0,1.75.78,1.75,1.75s-.78,1.75-1.75,1.75Zm-19.21-1.75c0-.96.78-1.75,1.75-1.75v3.49c-.96,0-1.75-.78-1.75-1.75Zm3.11-5.24h-1.36c-.61,0-1.2.13-1.75.32v-.09c0-5.13,3.6-9.69,8.66-10.55,6.58-1.11,12.29,3.95,12.29,10.32v.32c-.55-.2-1.13-.32-1.75-.32h-4.79c-2.31,0-4.58-.53-6.65-1.56l-.37-.18h-.41c-1.54,0-2.92.68-3.88,1.75Zm7.37,15.71c.94,0,1.84-.19,2.69-.47.17.29.36.56.56.82l-3.25,3.9-3.25-3.9c.21-.26.39-.54.56-.83.85.28,1.74.47,2.69.47h0Zm17.46,12.22h-34.92v-3.02c0-2.48,1.77-4.64,4.2-5.13l6.45-1.31c.27-.08.53-.18.79-.28l6.03,7.23,6.03-7.24c.29.13.6.23.91.32l6.32,1.27c2.43.49,4.2,2.65,4.2,5.14v3.02Z"></path><g><path class="cls-2" d="m59.75,102.4h10.48c2.27,0,4.19-1.46,4.92-3.49h-20.31c.72,2.03,2.64,3.49,4.92,3.49Z"></path><path class="cls-2" d="m31.81,66.77v21.66h66.35v-47.95c0-2.44-1.98-4.42-4.42-4.42h-41.06c-.86,13.03-8.46,24.56-20.27,30.46-.19.1-.4.17-.6.25Z"></path><path class="cls-2" d="m70.22,105.89h-10.48c-4.22,0-7.74-3-8.55-6.98h-29.73c.85,5.92,5.95,10.48,12.1,10.48h62.86c6.15,0,11.25-4.56,12.1-10.48h-29.73c-.81,3.98-4.34,6.98-8.55,6.98Z"></path><path class="cls-1" d="m33.56,25.81c0-2.73-1.99-5.18-4.71-5.45-3.12-.31-5.76,2.15-5.76,5.21v5.24h10.48v-5Z"></path><path class="cls-1" d="m108.63,95.41v-61.11c0-4.82-3.91-8.73-8.73-8.73h-47.14v-13.97h-7.58c-5.86,0-11.48-2.33-15.63-6.47l-1.23-1.23-1.23,1.23c-4.14,4.14-9.76,6.47-15.63,6.47H3.87v21.97c0,12.92,6.62,24.62,17.46,31.3v30.53h-3.49v1.75c0,8.68,7.04,15.71,15.71,15.71h62.86c8.68,0,15.71-7.04,15.71-15.71v-1.75h-3.49Zm-55.96-59.36h41.06c2.44,0,4.42,1.98,4.42,4.42v47.95H31.81v-21.66c.2-.08.4-.16.6-.25,11.82-5.91,19.41-17.43,20.27-30.46Zm22.46,62.85c-.72,2.03-2.64,3.49-4.92,3.49h-10.48c-2.27,0-4.19-1.46-4.92-3.49h20.31ZM16.1,50.02v-13.97c0-2.27,1.46-4.19,3.49-4.92v-5.56c0-5.01,4.24-9.05,9.33-8.71,4.63.31,8.13,4.37,8.13,9.02v5.25c2.03.72,3.49,2.64,3.49,4.92v13.97c0,2.89-2.35,5.24-5.24,5.24h-13.97c-2.89,0-5.24-2.35-5.24-5.24Zm80.31,59.36h-62.86c-6.15,0-11.25-4.56-12.1-10.48h29.73c.81,3.98,4.34,6.98,8.55,6.98h10.48c4.21,0,7.74-3,8.55-6.98h29.73c-.85,5.92-5.95,10.48-12.1,10.48Z"></path></g><g><path class="cls-1" d="m35.3,34.31h-13.97c-.96,0-1.75.79-1.75,1.75v13.97c0,.96.79,1.75,1.75,1.75h13.97c.96,0,1.75-.79,1.75-1.75v-13.97c0-.96-.79-1.75-1.75-1.75Zm-5.24,11.9v3.81h-3.49v-3.81c-2.34-.83-3.93-3.26-3.39-5.98.4-2,2-3.63,3.99-4.05,3.38-.72,6.38,1.86,6.38,5.12,0,2.27-1.46,4.19-3.49,4.92Z"></path><path class="cls-1" d="m28.32,39.54c-.96,0-1.75.78-1.75,1.75s.78,1.75,1.75,1.75,1.75-.78,1.75-1.75-.78-1.75-1.75-1.75Z"></path></g><path class="cls-1" d="m35.3,81.45h13.97v3.49h-13.97v-3.49Z"></path><path class="cls-1" d="m35.3,74.46h13.97v3.49h-13.97v-3.49Z"></path><path class="cls-1" d="m35.3,67.48h13.97v3.49h-13.97v-3.49Z"></path></g></svg>