<svg xmlns="http://www.w3.org/2000/svg" id="Layer_1" data-name="Layer 1" viewBox="0 0 128.06 122.83"><defs><style>      .cls-1 {        fill: #fff;      }    </style></defs><g><g><path class="cls-1" d="m96.64,79.41c-.3,7.24-3.57,13.29-10.37,17.25-3.36,1.96-7.02,2.73-10.89,2.42-9.17-.72-16.66-7.65-18.1-16.76-.99-6.29.51-11.93,4.63-16.79,3.17-3.73,7.21-6.01,12.08-6.69,6.31-.87,11.8.94,16.39,5.33,4.17,3.99,6.13,8.97,6.25,15.24Zm-13.68-12.52c-6.02-3.1-12.6-1.19-16.28,3.3-3.73,4.54-4.14,11.15-.99,16.02,1.61,2.48,3.76,4.32,6.54,5.35,3.66,1.36,7.23,1.07,10.73-.69.96,1.91,1.9,3.78,2.84,5.65,5.66-2.85,11.1-9.86,10.46-19.1-.57-8.29-6.08-14.1-10.48-16.15-.93,1.86-1.87,3.72-2.81,5.61Z"></path><path class="cls-1" d="m76.8,87.64c-.3-.18-.56-.27-.73-.44-2.89-2.93-5.76-5.88-8.64-8.82-.43-.44-.43-.92,0-1.37.8-.83,1.61-1.67,2.42-2.49.5-.51.86-.5,1.36.01,1.62,1.66,3.24,3.31,4.86,4.97.52.53.99.51,1.57-.08,2.79-2.85,5.59-5.71,8.38-8.56.69-.71,1.38-1.42,2.08-2.12.55-.56,1.01-.55,1.56.02.69.71,1.38,1.42,2.08,2.13.61.63.62,1.06.02,1.68-2.9,2.96-5.8,5.93-8.7,8.89-1.78,1.82-3.55,3.65-5.34,5.46-.27.27-.6.48-.92.74Z"></path></g><path class="cls-1" d="m45.39,74.81c-.06-.37,0-.62.29-.9,4.22-4.03,8.43-8.07,12.64-12.1.15-.15.31-.28.5-.45.7,1.13,1.39,2.26,2.09,3.39.01-.02.03-.03.04-.05,3.32-3.91,7.51-6.29,12.48-7.07-.8-2.42-1.61-4.85-2.41-7.27-.14-.42-.09-.67.24-.98,1.93-1.82,3.84-3.67,5.76-5.51,2.38-2.28,4.81-4.52,7.11-6.88,1.77-1.81,2.1-4.03,1.15-6.38-.9-2.21-3.09-3.61-5.48-3.58-1.73.02-3.16.71-4.35,1.96-3.96,4.14-7.95,8.27-11.9,12.42-.41.43-.74.49-1.28.3-2.19-.76-4.39-1.47-6.58-2.2-7.57-2.51-15.15-5.01-22.71-7.53-.48-.16-.77-.1-1.13.27-1.8,1.84-3.63,3.66-5.46,5.47-.15.15-.37.23-.65.4,8.71,5.36,17.19,10.59,25.71,15.83-.1.13-.14.19-.19.25-4.15,4.33-8.29,8.65-12.46,12.96-.15.16-.5.24-.73.2-2.45-.38-4.89-.77-7.32-1.2-.4-.07-.63.03-.88.3-.74.76-1.49,1.51-2.24,2.25-1.06,1.05-2.13,2.09-3.2,3.13v.12c1.41.48,2.83.94,4.24,1.43,2.5.87,5,1.74,7.5,2.64.23.08.5.29.58.5,1.38,3.88,2.74,7.78,4.1,11.67.02.05,0,.12,0,.18h.12c.13-.15.24-.31.38-.44,1.68-1.68,3.37-3.36,5.03-5.06.17-.17.28-.52.25-.76-.37-2.45-.78-4.89-1.19-7.33Z"></path></g><g><path class="cls-1" d="m39.98,101.19l.8,7.42c-6.56-2.62-12.44-6.5-17.51-11.56-11.26-11.26-16.73-26.81-15.01-42.66l-3.71-.4c-1.84,16.98,4.02,33.63,16.08,45.7,5.58,5.57,12.08,9.8,19.35,12.61l-4.29,6.46c4.89-2.53,12.21-4.26,17.93-4.93-4.77-3.23-10.47-8.14-13.64-12.64Z"></path><path class="cls-1" d="m123.84,60.03c-4.21-3.55-8.62-9.64-11.43-14.67-1.15,5.64-3.5,12.79-6.44,17.45l6.59-3.61c.03,1.77-.02,3.54-.17,5.3-1.04,12.27-6.42,23.83-15.13,32.54-6.5,6.5-14.59,11.18-23.41,13.54l.96,3.6c9.45-2.53,18.12-7.55,25.08-14.5,9.34-9.34,15.1-21.72,16.21-34.87.18-2.08.23-4.18.18-6.26l7.56,1.48Z"></path><path class="cls-1" d="m27.88,18.97c20.6-16.27,50.62-14.66,69.37,4.1l2.64-2.64C79.65.19,47.17-1.4,25.09,16.45l-3.46-6.95c-.25,5.5-2.39,12.71-4.67,18,5.18-2.53,12.27-5.01,17.76-5.52l-6.83-3.01Z"></path></g></svg>