<svg xmlns="http://www.w3.org/2000/svg" id="Layer_1" data-name="Layer 1" viewBox="0 0 116 120.14"><defs><style>      .cls-1 {        fill: #fff;      }    </style></defs><path class="cls-1" d="m58,33.52l4.1-6.15h-8.2l4.1,6.15Z"></path><path class="cls-1" d="m4.14,69.69c0,5.31,4.31,9.62,9.62,9.62h11.54c3.19,0,5.77,2.58,5.77,5.77v26.93h7.69v-34.62c0-5.31-4.31-9.62-9.62-9.62h-7.69c-3.19,0-5.77-2.58-5.77-5.77v-21.16c0-1.06.86-1.92,1.92-1.92s1.92.86,1.92,1.92v21.16c0,1.06.86,1.92,1.92,1.92h23.08v-7.69h-17.31v-19.23c0-3.19-2.58-5.77-5.77-5.77h-7.69c-5.31,0-9.62,4.31-9.62,9.62v28.85Z"></path><path class="cls-1" d="m111.86,69.69v-28.85c0-5.31-4.31-9.62-9.62-9.62h-7.69c-3.19,0-5.77,2.58-5.77,5.77v19.23h-17.31v7.69h23.08c1.06,0,1.92-.86,1.92-1.92v-21.16c0-1.06.86-1.92,1.92-1.92s1.92.86,1.92,1.92v21.16c0,3.19-2.58,5.77-5.77,5.77h-7.69c-5.31,0-9.62,4.31-9.62,9.62v34.62h7.69v-26.93c0-3.19,2.58-5.77,5.77-5.77h11.54c5.31,0,9.62-4.31,9.62-9.62Z"></path><path class="cls-1" d="m40.69,52.38h7.69v11.54h19.23v-11.54h7.69v-15.39c-.02-4.92-3.76-9.04-8.66-9.52l-8.66,12.98-8.66-12.99c-4.9.48-8.64,4.6-8.66,9.53v15.39Z"></path><path class="cls-1" d="m7.99,82.48h3.85v33.37h-3.85v-33.37Z"></path><path class="cls-1" d="m104.16,82.48h3.85v33.37h-3.85v-33.37Z"></path><path class="cls-1" d="m59.92,79.31h-3.85v32.7h-7.69v3.85h19.23v-3.85h-7.69v-32.7Z"></path><path class="cls-1" d="m104.16,17.76c0,5.31-4.31,9.62-9.62,9.62s-9.62-4.31-9.62-9.62,4.31-9.62,9.62-9.62,9.62,4.31,9.62,9.62Z"></path><path class="cls-1" d="m73.54,75.46c.42-2.92,1.79-5.63,3.91-7.69h-38.9c2.11,2.07,3.49,4.77,3.91,7.69h31.08Z"></path><path class="cls-1" d="m67.62,13.91c0,5.31-4.31,9.62-9.62,9.62s-9.62-4.31-9.62-9.62,4.31-9.62,9.62-9.62,9.62,4.31,9.62,9.62Z"></path><path class="cls-1" d="m31.07,17.76c0,5.31-4.31,9.62-9.62,9.62s-9.62-4.31-9.62-9.62,4.31-9.62,9.62-9.62,9.62,4.31,9.62,9.62Z"></path></svg>