<svg xmlns="http://www.w3.org/2000/svg" id="Layer_1" data-name="Layer 1" viewBox="0 0 117 118.01"><defs><style>      .cls-1 {        fill: #fff;      }    </style></defs><g><g><path class="cls-1" d="m96.41,99.49h.01v-2.57h4.44v2.57h1.34c0,.51.41.92.92.92,3.45,0,9.22,0,9.22-5.71,0-1.62-.5-2.93-1.48-3.88-1.12-1.09-2.58-1.42-3.45-1.52-.69-2.31-3.42-9.86-9.92-10.76-3.38-.47-6.14.13-8.21,1.76-2.2,1.74-3,4.18-3.28,5.43-1.52.21-3.75,1.17-5.33,2.63-1.52,1.4-2.28,3.08-2.2,4.8,0,5.74,4.55,7.25,6.95,7.25h5.4c.51,0,.92-.41.92-.92h0s.23,0,.23,0v-4.44h-2.69l4.91-5.94,4.61,5.7-2.39.23"></path><polygon class="cls-1" points="96.42 106.59 94.04 106.83 98.64 112.54 103.56 106.59 100.87 106.59 100.87 99.49 96.42 99.49 96.42 106.59"></polygon></g><g><path class="cls-1" d="m26.48,98.7c-.38,0-.69-.31-.69-.69v-11.93c0-.83-.62-1.5-1.38-1.5h-2.06c-.38,0-.69-.31-.69-.69s.31-.69.69-.69h2.06c1.52,0,2.75,1.29,2.75,2.87v11.93c0,.38-.31.69-.69.69Z"></path><path class="cls-1" d="m17.69,109.05h-7.43c-1.58,0-2.87-1.29-2.87-2.87v-20.1c0-1.58,1.21-2.87,2.7-2.87h2.01c.38,0,.69.31.69.69s-.31.69-.69.69h-2.01c-.73,0-1.32.67-1.32,1.5v20.1c0,.83.67,1.5,1.5,1.5h7.43c.38,0,.69.31.69.69s-.31.69-.69.69Z"></path><path class="cls-1" d="m19.12,86.16h-3.68c-1.58,0-2.87-1.02-2.87-2.26s1.29-2.26,2.87-2.26h3.68c1.58,0,2.87,1.02,2.87,2.26s-1.29,2.26-2.87,2.26Zm-3.68-3.15c-.86,0-1.5.47-1.5.89s.64.89,1.5.89h3.68c.86,0,1.5-.47,1.5-.89s-.64-.89-1.5-.89h-3.68Z"></path><path class="cls-1" d="m11.8,91.93c-1.67,0-2.96-1.21-2.96-2.7s1.29-2.7,2.87-2.7c1.67,0,2.96,1.21,2.96,2.7s-1.29,2.7-2.87,2.7Zm0-4.03c-.92,0-1.59.59-1.59,1.33s.67,1.33,1.5,1.33c.92,0,1.59-.59,1.59-1.33s-.67-1.33-1.5-1.33Z"></path><path class="cls-1" d="m11.8,97.96c-1.67,0-2.96-1.21-2.96-2.69s1.29-2.69,2.87-2.69c1.67,0,2.96,1.21,2.96,2.69s-1.29,2.69-2.87,2.69Zm0-4.01c-.92,0-1.59.59-1.59,1.32s.67,1.32,1.5,1.32c.92,0,1.59-.59,1.59-1.32s-.67-1.32-1.5-1.32Z"></path><path class="cls-1" d="m25.13,89.92h-8.7c-.38,0-.69-.31-.69-.69s.31-.69.69-.69h8.7c.38,0,.69.31.69.69s-.31.69-.69.69Z"></path><path class="cls-1" d="m25.13,95.74h-8.7c-.38,0-.69-.31-.69-.69s.31-.69.69-.69h8.7c.38,0,.69.31.69.69s-.31.69-.69.69Z"></path><path class="cls-1" d="m24.1,98.39c-3.56,0-6.45,2.89-6.45,6.44s2.89,6.45,6.45,6.45,6.45-2.89,6.45-6.45-2.89-6.44-6.45-6.44Zm4.19,4.86l-4.46,4.61c-.13.13-.31.21-.49.21h0c-.19,0-.37-.08-.5-.22l-2.33-2.56c-.26-.28-.24-.72.04-.97s.71-.24.97.04l1.84,2.01,3.95-4.09c.26-.27.7-.28.97-.02.27.26.28.7.02.97Z"></path></g><path class="cls-1" d="m108.63,30.56l-7.66-7.66c1.25-1.88,1.9-4.05,1.9-6.32,0-6.33-5.15-11.47-11.47-11.47s-11.47,5.15-11.47,11.47,5.15,11.47,11.47,11.47c2.27,0,4.44-.66,6.32-1.9l2.12,2.12s0,0,0,0l5.54,5.54c.43.43,1.01.67,1.62.67s1.19-.24,1.62-.67c.43-.43.67-1.01.67-1.62s-.24-1.19-.67-1.62Zm-17.22-4.8c-5.06,0-9.18-4.12-9.18-9.18s4.12-9.18,9.18-9.18,9.18,4.12,9.18,9.18-4.12,9.18-9.18,9.18Zm7.26-.3c.59-.49,1.14-1.03,1.62-1.62l1.63,1.63c-.49.58-1.04,1.13-1.62,1.62l-1.63-1.63Zm9.16,7.53c-.22.22-.5.34-.81.34s-.59-.12-.81-.34l-5.09-5.09c.58-.5,1.12-1.04,1.62-1.62l5.09,5.09c.22.22.34.5.34.81s-.12.59-.34.81Z"></path><path class="cls-1" d="m26.09,21.14c-1.35-1.35-2.96-2.35-4.71-2.95,1.88-1.29,3.11-3.46,3.11-5.9,0-3.95-3.21-7.17-7.17-7.17s-7.17,3.21-7.17,7.17c0,2.45,1.23,4.61,3.11,5.9-1.75.6-3.36,1.6-4.71,2.95-2.34,2.34-3.63,5.45-3.63,8.76h1.94c0-5.77,4.69-10.46,10.46-10.46s10.46,4.69,10.46,10.46h1.94c0-3.31-1.29-6.42-3.63-8.76Z"></path><path class="cls-1" d="m94.52,40.59c-11.58-2.91-20.57-12.32-22.88-24.13-.41-2.07-2.2-3.58-4.31-3.58h-23.09c-2.11,0-3.9,1.51-4.31,3.58-2.31,11.81-11.3,21.22-22.88,24.13-1.95.49-3.33,2.24-3.33,4.25v24.52c0,2.01,1.36,3.76,3.31,4.25,10.34,2.59,18.63,10.37,21.93,20.42.59,1.78,2.27,2.98,4.15,2.98h25.34c1.88,0,3.56-1.19,4.15-2.98,3.3-10.04,11.58-17.82,21.93-20.42,1.95-.49,3.31-2.24,3.31-4.25v-24.52c0-2.01-1.37-3.76-3.33-4.25Zm-20.35,2.93l-7.12,7.16v24.06c0,2.07-.83,4.04-2.3,5.51l-1.01,1.01c-.28.28-.64.41-1.01.41-.14,0-.23,0-.37-.05-.46-.14-.83-.5-.96-.96l-5.19-19.19-4.5,4.41-.28,8.13c-.09.92-.41,1.65-.96,2.2l-.83.83c-.32.37-.73.51-1.19.46-.46-.05-.87-.37-1.06-.83l-4.13-10.65-10.28-3.9c-.41-.18-.73-.5-.87-.96-.09-.46.05-.96.37-1.29l.78-.78c.6-.64,1.38-.96,2.2-.96l8.08-.28,4.45-4.45-19.14-5.23c-.46-.14-.78-.5-.92-.96-.09-.46.05-1.01.37-1.33l1.01-1.01c1.47-1.47,3.44-2.3,5.46-2.3l24.06.05,7.35-7.3c1.56-1.56,3.72-2.39,5.92-2.3l.73.05c1.84.14,3.31,1.51,3.49,3.31l.09.87c.28,2.3-.55,4.64-2.25,6.29Z"></path></g><path class="cls-1" d="m91.4,8.55c-4.43,0-8.03,3.6-8.03,8.03s3.6,8.03,8.03,8.03,8.03-3.6,8.03-8.03-3.6-8.03-8.03-8.03Zm5.36,5.98c-.85-2.2-3-3.69-5.36-3.69-.32,0-.57-.26-.57-.57s.26-.57.57-.57c1.42,0,2.78.43,3.94,1.24,1.13.79,1.99,1.89,2.49,3.18.11.3-.03.63-.33.74-.07.03-.14.04-.21.04-.23,0-.45-.14-.54-.37Zm.95,2.62c-.32,0-.57-.26-.57-.57s.26-.57.57-.57.57.26.57.57-.26.57-.57.57Z"></path></svg>