<svg xmlns="http://www.w3.org/2000/svg" id="Layer_1" data-name="Layer 1" viewBox="0 0 116 116"><defs><style>      .cls-1 {        fill: #fff;      }      .cls-2 {        fill: none;      }    </style></defs><g><path class="cls-1" d="m42.28,47.52h-17.47c-.96,0-1.75.78-1.75,1.75s.78,1.75,1.75,1.75h17.47c.96,0,1.75-.78,1.75-1.75s-.78-1.75-1.75-1.75Z"></path><path class="cls-1" d="m42.28,54.51h-17.47c-.96,0-1.75.78-1.75,1.75s.78,1.75,1.75,1.75h17.47c.96,0,1.75-.78,1.75-1.75s-.78-1.75-1.75-1.75Z"></path><path class="cls-1" d="m52.76,51.01h3.49c.96,0,1.75-.78,1.75-1.75s-.78-1.75-1.75-1.75h-3.49c-.96,0-1.75.78-1.75,1.75s.78,1.75,1.75,1.75Z"></path><path class="cls-1" d="m52.76,58h3.49c.96,0,1.75-.78,1.75-1.75s-.78-1.75-1.75-1.75h-3.49c-.96,0-1.75.78-1.75,1.75s.78,1.75,1.75,1.75Z"></path><path class="cls-1" d="m42.28,40.53h-17.47c-.96,0-1.75.78-1.75,1.75s.78,1.75,1.75,1.75h17.47c.96,0,1.75-.78,1.75-1.75s-.78-1.75-1.75-1.75Z"></path><circle class="cls-1" cx="14.32" cy="24.81" r="1.75"></circle><circle class="cls-1" cx="21.31" cy="24.81" r="1.75"></circle><circle class="cls-1" cx="28.3" cy="24.81" r="1.75"></circle><g><path class="cls-1" d="m91.21,33.54c.96,0,1.74-.79,1.73-1.75,0-.11,0-.21-.03-.32-.17-.94-1.07-1.57-2.01-1.4.39,1.11.39,2.33,0,3.44.1.02.2.03.31.03Z"></path><path class="cls-1" d="m85.95,33.54c.96,0,1.75-.78,1.75-1.75s-.78-1.75-1.75-1.75c-.96,0-1.75.78-1.75,1.75,0,.96.78,1.75,1.75,1.75Z"></path><g><path class="cls-2" d="m68.48,23.06c.96,0,1.75-.78,1.75-1.75s-.78-1.75-1.75-1.75-1.75.78-1.75,1.75.78,1.75,1.75,1.75Z"></path><path class="cls-2" d="m59.75,30.05h6.99c.96,0,1.75-.78,1.75-1.75s-.78-1.75-1.75-1.75h-6.99c-.96,0-1.75.78-1.75,1.75s.78,1.75,1.75,1.75Z"></path><path class="cls-2" d="m59.75,23.06c.96,0,1.75-.78,1.75-1.75s-.78-1.75-1.75-1.75-1.75.78-1.75,1.75.78,1.75,1.75,1.75Z"></path><path class="cls-2" d="m81.41,29.17c-1.45,2.51-.59,5.71,1.91,7.16.8.46,1.71.7,2.63.7.92,0,1.82-.24,2.62-.7,2.51,1.45,5.71.59,7.16-1.91,1.45-2.51.59-5.71-1.91-7.16-1.62-.94-3.62-.94-5.25,0-2.51-1.45-5.71-.59-7.16,1.91Z"></path><path class="cls-2" d="m73.72,23.06c.96,0,1.75-.78,1.75-1.75s-.78-1.75-1.75-1.75-1.75.78-1.75,1.75.78,1.75,1.75,1.75Z"></path><path class="cls-2" d="m82.46,23.06c.96,0,1.75-.78,1.75-1.75s-.78-1.75-1.75-1.75-1.75.78-1.75,1.75.78,1.75,1.75,1.75Z"></path><path class="cls-2" d="m59.75,16.07h3.49c.96,0,1.75-.78,1.75-1.75s-.78-1.75-1.75-1.75h-3.49c-.96,0-1.75.78-1.75,1.75s.78,1.75,1.75,1.75Z"></path><path class="cls-2" d="m56.25,37.04h15.72c.96,0,1.75-.78,1.75-1.75s-.78-1.75-1.75-1.75h-15.72c-.96,0-1.75.78-1.75,1.75s.78,1.75,1.75,1.75Z"></path><path class="cls-2" d="m91.19,16.07h3.49c.96,0,1.75-.78,1.75-1.75s-.78-1.75-1.75-1.75h-3.49c-.96,0-1.75.78-1.75,1.75s.78,1.75,1.75,1.75Z"></path><path class="cls-2" d="m103.42,19.86v17.56c0,3.64-2.96,6.6-6.6,6.6h-28.34v21.07c0,.47-.19.92-.52,1.25l-5.24,5.13c-.69.67-1.8.66-2.47-.03l-3.99-4.08-3.99,4.08c-.33.34-.79.53-1.27.52-.48,0-.93-.2-1.25-.55l-3.97-4.22-3.97,4.22s-.02.02-.02.03c-.68.69-1.78.7-2.47.02l-4.18-4.1-3.8,4.05s-.03.03-.04.04c-.68.68-1.79.68-2.47,0l-4.01-4.01-4.01,4.01c-.67.67-1.76.68-2.45.02l-5.24-5.06c-.34-.33-.53-.78-.53-1.26V31.79c0-.96.78-1.75,1.75-1.75h33.19v-10.48H14.32c-2.89,0-5.24,2.35-5.24,5.24v50.67h97.84V24.81c0-2.22-1.4-4.2-3.49-4.94Z"></path><path class="cls-2" d="m47.52,33.54h-31.45v30.89l3.47,3.35,4.03-4.03s0,0,0,0c.68-.68,1.79-.68,2.47,0l3.97,3.97,3.79-4.04s.02-.02.03-.03c.68-.69,1.78-.7,2.47-.02l4.19,4.1,4.02-4.27s.05-.05.08-.08c.7-.66,1.81-.63,2.47.08l3.99,4.24,3.97-4.05s.02-.02.03-.03c.69-.68,1.8-.66,2.47.03l4.02,4.1,3.47-3.4v-20.34h-10.87c-3.64,0-6.6-2.96-6.6-6.6v-3.88Z"></path><polygon class="cls-2" points="45.46 92.94 42.66 106.92 73.34 106.92 70.54 92.94 45.46 92.94"></polygon><path class="cls-1" d="m103.42,16.25v-4.06c0-3.64-2.96-6.6-6.6-6.6h-42.7c-3.64,0-6.6,2.96-6.6,6.6v3.88H14.32c-4.82,0-8.73,3.91-8.74,8.74v59.4c0,4.82,3.91,8.73,8.74,8.74h27.57l-3.08,15.38c-.19.95.42,1.87,1.37,2.06.11.02.23.03.34.03h34.94c.96,0,1.75-.78,1.75-1.75,0-.12-.01-.23-.03-.34l-3.08-15.38h27.57c4.82,0,8.73-3.91,8.74-8.74V24.81c0-4.15-2.92-7.72-6.99-8.56Zm-12.23-3.67h3.49c.96,0,1.75.78,1.75,1.75s-.78,1.75-1.75,1.75h-3.49c-.96,0-1.75-.78-1.75-1.75s.78-1.75,1.75-1.75Zm-2.62,14.68c1.62-.94,3.62-.94,5.25,0,2.51,1.45,3.36,4.66,1.91,7.16-1.45,2.51-4.66,3.36-7.16,1.91-.8.46-1.7.7-2.62.7-.92,0-1.83-.24-2.63-.7-2.51-1.45-3.36-4.66-1.91-7.16s4.66-3.36,7.16-1.91Zm-6.11-7.69c.96,0,1.75.78,1.75,1.75s-.78,1.75-1.75,1.75-1.75-.78-1.75-1.75.78-1.75,1.75-1.75Zm-8.74,0c.96,0,1.75.78,1.75,1.75s-.78,1.75-1.75,1.75-1.75-.78-1.75-1.75.78-1.75,1.75-1.75Zm-5.24,0c.96,0,1.75.78,1.75,1.75s-.78,1.75-1.75,1.75-1.75-.78-1.75-1.75.78-1.75,1.75-1.75Zm-8.74-6.99h3.49c.96,0,1.75.78,1.75,1.75s-.78,1.75-1.75,1.75h-3.49c-.96,0-1.75-.78-1.75-1.75s.78-1.75,1.75-1.75Zm0,6.99c.96,0,1.75.78,1.75,1.75s-.78,1.75-1.75,1.75-1.75-.78-1.75-1.75.78-1.75,1.75-1.75Zm0,6.99h6.99c.96,0,1.75.78,1.75,1.75s-.78,1.75-1.75,1.75h-6.99c-.96,0-1.75-.78-1.75-1.75s.78-1.75,1.75-1.75Zm-3.49,6.99h15.72c.96,0,1.75.78,1.75,1.75s-.78,1.75-1.75,1.75h-15.72c-.96,0-1.75-.78-1.75-1.75s.78-1.75,1.75-1.75Zm-2.13,10.48h10.87v20.34l-3.47,3.4-4.02-4.1c-.68-.69-1.78-.7-2.47-.03,0,0-.02.02-.03.03l-3.97,4.05-3.99-4.24c-.66-.7-1.77-.74-2.47-.08-.03.02-.05.05-.08.08l-4.02,4.27-4.19-4.1c-.69-.68-1.8-.66-2.47.02,0,0-.02.02-.03.03l-3.79,4.04-3.97-3.97c-.68-.68-1.79-.68-2.47,0t0,0l-4.03,4.03-3.47-3.35v-30.89h31.45v3.88c0,3.64,2.96,6.6,6.6,6.6Zm-11.46,62.89l2.8-13.98h25.09l2.8,13.98h-30.68Zm13.59-22.71c0-.96.78-1.75,1.75-1.75h3.49c.96,0,1.75.78,1.75,1.75s-.78,1.75-1.75,1.75h-3.49c-.96,0-1.75-.78-1.75-1.75Zm50.66-8.74H9.08V24.81c0-2.89,2.35-5.24,5.24-5.24h33.19v10.48H14.32c-.96,0-1.75.78-1.75,1.75v33.38c0,.47.19.93.53,1.26l5.24,5.06c.69.66,1.78.65,2.45-.02l4.01-4.01,4.01,4.01c.68.68,1.79.68,2.47,0,.01-.01.03-.03.04-.04l3.8-4.05,4.18,4.1c.69.68,1.8.66,2.47-.02,0,0,.02-.02.02-.03l3.97-4.22,3.97,4.22c.33.35.78.54,1.25.55.48,0,.94-.18,1.27-.52l3.99-4.08,3.99,4.08c.68.69,1.78.7,2.47.03l5.24-5.13c.34-.33.52-.78.52-1.25v-21.07h28.34c3.64,0,6.6-2.96,6.6-6.6v-17.56c2.09.74,3.49,2.72,3.49,4.94v50.67Z"></path></g></g></g><path class="cls-1" d="m87.7,47.52c-6.75,0-12.23,5.48-12.23,12.23,0,6.75,5.48,12.22,12.23,12.23,6.75,0,12.23-5.48,12.23-12.23s-5.48-12.23-12.23-12.23Zm5.32,10.76l-5.55,5.55h0c-.72.72-1.89.72-2.62,0l-1.85-1.85c-.72-.72-.72-1.89,0-2.62.72-.72,1.89-.72,2.62,0l.54.54,4.24-4.24c.72-.72,1.89-.72,2.62,0s.72,1.89,0,2.62Z"></path></svg>