<svg xmlns="http://www.w3.org/2000/svg" id="Layer_1" data-name="Layer 1" viewBox="0 0 128.06 122.83"><defs><style>      .cls-1 {        fill: #fff;      }    </style></defs><g><polygon class="cls-1" points="88.65 39.35 92.71 39.35 90.68 33.6 88.65 39.35"></polygon><path class="cls-1" d="m36.9,37.07c-.72-.48-1.52-.72-2.39-.72h-.21c-.82.05-1.59.32-2.31.8-.72.48-1.2,1.12-1.44,1.9h7.84c-.27-.84-.77-1.5-1.49-1.98Z"></path></g><g><path class="cls-1" d="m94.42,77.48c-7.45,0-13.51,6.06-13.51,13.51s6.06,13.51,13.51,13.51,13.51-6.06,13.51-13.51-6.06-13.51-13.51-13.51Zm9.76,9.73l-9.64,10.21c-.35.37-.84.59-1.36.6,0,0-.02,0-.02,0-.51,0-.99-.2-1.35-.56l-5.58-5.65c-.74-.75-.73-1.95.01-2.69.75-.74,1.95-.73,2.69.02l4.2,4.25,8.29-8.78c.72-.76,1.92-.8,2.68-.08s.8,1.92.08,2.68Z"></path><path class="cls-1" d="m105.47,6.22H20.95c-8.67,0-15.73,7.06-15.73,15.73v82.73c0,8.67,7.06,15.73,15.73,15.73h84.51c8.67,0,15.73-7.06,15.73-15.73V21.95c0-8.67-7.06-15.73-15.73-15.73Zm-14.16,9.14h10.66c5.67,0,10.27,4.61,10.27,10.27v9.64c0,1.05-.85,1.9-1.9,1.9s-1.9-.85-1.9-1.9v-9.64c0-3.57-2.91-6.48-6.48-6.48h-10.66c-1.05,0-1.9-.85-1.9-1.9s.85-1.9,1.9-1.9Zm-2.01,13.33h2.75l7.99,18.99h-3.88l-2.06-4.91h-6.73l-2.11,4.91h-3.88l7.92-18.99Zm-21.1,13.64h3.67c0,.77.27,1.37.8,1.79.53.42,1.15.63,1.85.63s1.25-.23,1.73-.68c.49-.45.73-1.02.73-1.71,0-.94-.3-1.63-.9-2.06-.6-.43-1.26-.76-1.98-1-.07-.03-.14-.06-.22-.09s-.15-.05-.22-.06c-.05-.02-.1-.03-.14-.05-.04-.02-.09-.03-.14-.05-.57-.19-1.1-.4-1.59-.63s-.97-.57-1.41-1.01c-.39-.41-.72-.88-.96-1.41s-.42-1.08-.5-1.64c0-.1,0-.2-.01-.3,0-.09-.01-.19-.01-.3,0-1.56.56-2.85,1.67-3.87,1.11-1.02,2.42-1.53,3.93-1.53s2.77.53,3.89,1.58,1.67,2.33,1.66,3.82l-3.62-.03c-.02-.58-.24-1.05-.67-1.41-.43-.36-.92-.54-1.46-.54s-1.02.19-1.36.57c-.34.38-.51.84-.51,1.39v.05c-.02.62.19,1.09.62,1.41s.9.58,1.41.77c.05.02.11.04.18.06.07.03.13.05.18.06.08.03.17.06.26.09.08.03.17.06.26.09.58.19,1.14.4,1.68.63.54.23,1.04.54,1.5.94.68.53,1.19,1.15,1.52,1.86s.49,1.53.49,2.45c0,1.7-.61,3.12-1.82,4.27-1.22,1.15-2.66,1.72-4.34,1.72s-3.04-.55-4.28-1.64c-1.24-1.1-1.86-2.48-1.86-4.14v-.03Zm-5.81-13.64h3.52v18.99h-3.52v-18.99Zm-15.83,0l5.11,14.44,5.11-14.44h3.7l-7.35,18.99h-2.9l-7.37-18.99h3.7Zm-4.73,11.77c0,.22-.01.44-.04.65-.03.21-.06.42-.09.63-.02.07-.03.13-.04.18,0,.05-.01.1-.01.15h-11.05c.26.84.73,1.51,1.43,2,.69.5,1.47.75,2.33.75.65,0,1.26-.11,1.84-.33.57-.22,1.02-.52,1.35-.9l3.78-.03c-.43,1.29-1.3,2.37-2.61,3.25-1.31.88-2.72,1.32-4.23,1.32-2.07,0-3.84-.72-5.31-2.17-1.46-1.45-2.2-3.21-2.2-5.28s.73-3.91,2.18-5.42c1.46-1.51,3.25-2.26,5.37-2.26s3.76.75,5.18,2.24c1.41,1.5,2.12,3.23,2.12,5.21Zm-26.96-14.83c0-5.67,4.61-10.27,10.27-10.27h10.66c1.05,0,1.9.85,1.9,1.9s-.85,1.9-1.9,1.9h-10.66c-3.57,0-6.48,2.9-6.48,6.48v9.64c0,1.05-.85,1.9-1.9,1.9s-1.9-.85-1.9-1.9v-9.64Zm22.46,83.84h-18.78c-1.05,0-1.9-.85-1.9-1.9s.85-1.9,1.9-1.9h18.78c1.05,0,1.9.85,1.9,1.9s-.85,1.9-1.9,1.9Zm1.9-9.22c0,1.05-.85,1.9-1.9,1.9s-1.9-.85-1.9-1.9v-1.7c0-3.11-2.53-5.64-5.63-5.64h-3.71c-3.11,0-5.64,2.53-5.64,5.64v1.7c0,1.05-.85,1.9-1.9,1.9s-1.9-.85-1.9-1.9v-1.7c0-5.2,4.23-9.43,9.43-9.43h3.71c5.2,0,9.43,4.23,9.43,9.43v1.7Zm-19.65-19.62c0-4.61,3.75-8.36,8.36-8.36s8.36,3.75,8.36,8.36-3.75,8.36-8.36,8.36-8.36-3.75-8.36-8.36Zm51,28.85h-26.39c-1.05,0-1.9-.85-1.9-1.9s.85-1.9,1.9-1.9h26.39c1.05,0,1.9.85,1.9,1.9s-.85,1.9-1.9,1.9Zm0-10.37h-26.39c-1.05,0-1.9-.85-1.9-1.9s.85-1.9,1.9-1.9h26.39c1.05,0,1.9.85,1.9,1.9s-.85,1.9-1.9,1.9Zm-28.29-12.02c0-1.05.85-1.9,1.9-1.9h10.15c1.05,0,1.9.85,1.9,1.9s-.85,1.9-1.9,1.9h-10.15c-1.05,0-1.9-.85-1.9-1.9Zm28.29.84h-8.88c-1.05,0-1.9-.85-1.9-1.9s.85-1.9,1.9-1.9h8.88c1.05,0,1.9.85,1.9,1.9s-.85,1.9-1.9,1.9Zm0-10.45h-26.39c-1.05,0-1.9-.85-1.9-1.9s.85-1.9,1.9-1.9h26.39c1.05,0,1.9.85,1.9,1.9s-.85,1.9-1.9,1.9Zm23.85,30.82c-9.54,0-17.31-7.77-17.31-17.31s7.77-17.31,17.31-17.31,17.31,7.77,17.31,17.31-7.77,17.31-17.31,17.31Zm24.88-43.08H7.12v-3.8h112.17v3.8Z"></path></g></svg>