<svg xmlns="http://www.w3.org/2000/svg" id="Layer_1" data-name="Layer 1" viewBox="0 0 72.25 72.1"><defs><style>      .cls-1 {        fill: #fff;      }    </style></defs><path class="cls-1" d="m43.13,55.63v4.36c1.49,0,2.93,0,4.38,0,2.28,0,3.4,1.12,3.41,3.39,0,1.08.01,2.15,0,3.23-.03,1.64-1.08,2.77-2.7,2.95-.21.02-.42.03-.63.03-7.67,0-15.35,0-23.02,0-.89,0-1.72-.15-2.4-.78-.66-.61-.96-1.37-.96-2.25,0-1.17-.02-2.34,0-3.51.04-1.87,1.24-3.04,3.11-3.06,1.5-.01,2.99-.01,4.49-.02.04,0,.08-.03.17-.06v-4.28c-.27,0-.54,0-.8,0-7.46,0-14.93,0-22.39,0-2.34,0-4.06-1.34-4.53-3.51-.09-.41-.09-.84-.09-1.25,0-14.78,0-29.57,0-44.35,0-2.96,1.81-4.79,4.76-4.79,20.05,0,40.1,0,60.15,0,2.98,0,5.01,2.05,5.01,5.04,0,14.69,0,29.38,0,44.07,0,2.48-1.34,4.28-3.57,4.7-.75.14-1.53.09-2.38.14.11.27.19.5.29.72,1.2,2.69,2.42,5.36,3.61,8.06.88,1.99.22,4.35-1.53,5.55-.29.2-.68.31-1.03.32-1.05.04-2.11-.04-3.16.03-.82.06-1.43-.26-1.89-.84-.4-.51-.77-1.07-.98-1.68-1.35-3.83-2.66-7.68-3.94-11.53-.18-.54-.43-.7-.99-.7-3.88.03-7.77.01-11.65.01h-.74Zm-2.63-10.37c-4.79-6.82-3.14-14.96,1.71-19.63,5.02-4.83,12.74-5.56,18.63-1.72,2.91,1.9,4.91,4.53,5.99,7.81,1.57,4.81.71,9.3-2.11,13.53h3.95c.01-.25.03-.46.03-.67,0-12.68,0-25.36,0-38.04,0-1.78-.84-2.63-2.62-2.63-20.03,0-40.06,0-60.09,0-1.85,0-2.66.81-2.66,2.64,0,12.63,0,25.27,0,37.9v.8h37.19Zm12.02,3.94c5.98.06,12.88-4.55,12.94-12.92.05-6.98-5.71-12.65-12.76-12.67-7.05-.02-12.8,5.78-12.81,12.9,0,7.03,5.62,12.68,12.63,12.69Zm4.42,1.71c.65,1.88,1.3,3.75,1.94,5.63,1.18,3.42,2.35,6.84,3.53,10.26.36,1.04,1.02,1.74,2.15,1.84,1.88.17,3.04-1.64,2.24-3.47-2.23-5.04-4.47-10.07-6.71-15.11-.07-.17-.17-.32-.25-.47-.96.44-1.89.86-2.9,1.31Zm-21.41-1.47s0,0,0-.01c-.16,0-.33-.01-.49,0-.59.05-1.09.53-1.11,1.06-.03.55.41,1.04,1.05,1.1.41.04.84.03,1.25-.04.56-.09.85-.5.85-1.04,0-.58-.34-.95-.92-1.07-.2-.04-.42,0-.63,0Z"></path><path class="cls-1" d="m42.81,16.13c-5.57,0-11.14,0-16.71,0-.19,0-.37,0-.56,0-.82-.03-1.33-.48-1.31-1.15.02-.67.47-1.04,1.31-1.05,3.16,0,6.32,0,9.48,0,8.19,0,16.38,0,24.57,0,.3,0,.61,0,.9.06.52.12.77.51.77,1.04,0,.52-.24.91-.77,1.03-.29.06-.6.07-.9.07-5.59,0-11.18,0-16.78,0Z"></path><path class="cls-1" d="m10.73,12.58c0-1.07,0-2.15,0-3.22,0-.88.4-1.3,1.28-1.31,2.13-.01,4.25-.01,6.38,0,.85,0,1.27.4,1.27,1.25.02,2.15.02,4.3,0,6.45,0,.87-.39,1.24-1.25,1.24-2.15.01-4.3.01-6.45,0-.86,0-1.22-.38-1.23-1.25-.01-1.05,0-2.1,0-3.15Z"></path><path class="cls-1" d="m15.22,42.14c-1.08,0-2.15,0-3.23,0-.88,0-1.26-.36-1.26-1.22-.01-2.15-.01-4.3,0-6.45,0-.82.39-1.24,1.19-1.25,2.2-.02,4.39-.02,6.59,0,.79,0,1.14.38,1.15,1.19.02,2.17.02,4.35,0,6.52,0,.84-.39,1.19-1.22,1.2-1.08.01-2.15,0-3.23,0Z"></path><path class="cls-1" d="m15.2,29.5c-1.05,0-2.1,0-3.16,0-.9,0-1.31-.38-1.31-1.26-.01-2.13,0-4.25,0-6.38,0-.85.39-1.27,1.23-1.28,2.15-.02,4.3-.02,6.45,0,.85,0,1.24.41,1.25,1.27.02,2.13.02,4.25,0,6.38,0,.89-.42,1.26-1.31,1.27-1.05,0-2.1,0-3.16,0Z"></path><path class="cls-1" d="m38.31,9.03c4.23,0,8.47-.01,12.7.02.41,0,.92.14,1.19.41.56.54.2,1.53-.56,1.71-.27.06-.56.05-.84.05-8.3,0-16.6,0-24.9,0-.12,0-.23,0-.35,0-.82-.02-1.33-.47-1.31-1.14.02-.67.47-1.05,1.31-1.05,4.26,0,8.51,0,12.77,0Z"></path><path class="cls-1" d="m30.94,23.74c-1.85,0-3.69.01-5.54,0-.68,0-1.14-.46-1.16-1.07-.02-.62.4-1.04,1.11-1.1.21-.02.42,0,.63,0,3.27,0,6.54,0,9.81,0,.21,0,.42,0,.63,0,.81.04,1.24.45,1.22,1.13-.03.66-.45,1.04-1.23,1.04-1.82.01-3.64,0-5.47,0Z"></path><path class="cls-1" d="m30.18,26.46c1.5,0,2.99,0,4.49,0,.9,0,1.33.37,1.33,1.09,0,.71-.44,1.09-1.32,1.1-3.04,0-6.08,0-9.12,0-.9,0-1.46-.59-1.28-1.34.16-.68.66-.85,1.27-.85,1.54,0,3.09,0,4.63,0Z"></path><path class="cls-1" d="m29.6,41.28c-1.33,0-2.67,0-4,0-.84,0-1.35-.42-1.36-1.09-.01-.69.45-1.1,1.33-1.1,2.71-.01,5.43-.01,8.14,0,.88,0,1.32.4,1.31,1.12-.01.71-.46,1.07-1.35,1.07-1.36,0-2.71,0-4.07,0Z"></path><path class="cls-1" d="m28.64,36.25c-1.05,0-2.11,0-3.16,0-.77,0-1.26-.46-1.24-1.12.02-.64.45-1.02,1.24-1.03,2.13,0,4.26-.01,6.39,0,.78,0,1.19.39,1.19,1.07,0,.68-.41,1.07-1.19,1.08-1.08.01-2.15,0-3.23,0Z"></path><path class="cls-1" d="m63.44,36.42c-.07,5.84-5.02,10.79-10.77,10.74-5-.04-10.9-4.05-10.78-10.9.1-5.89,4.98-10.64,10.95-10.55,5.86.08,10.47,4.77,10.6,10.71Zm-4.24,5.34c2.41-2.61,3.26-7.87-.58-11.52-3.46-3.28-8.86-3.14-12.08.33-3.35,3.59-2.8,8.63-.53,11.06.78-.6,1.54-1.19,2.31-1.76.38-.27.8-.48,1.21-.71.79-.45.85-1,.35-1.76-.46-.7-.92-1.43-1.15-2.22-.71-2.34.64-4.67,2.94-5.23,2.29-.56,4.57.85,5.04,3.18.33,1.59-.2,2.99-1.17,4.25-.15.19-.3.42-.34.66-.1.55.08.94.64,1.25,1.21.66,2.66,1.01,3.36,2.47Z"></path></svg>