<svg xmlns="http://www.w3.org/2000/svg" id="Layer_1" viewBox="0 0 346.43 321.12"><defs><style>.cls-1{fill:#d21920;}</style></defs><g id="Group_469"><g id="Group_468"><path id="Path_635" class="cls-1" d="m29.98,304.21c5.81-9.49,11.37-18.58,16.94-27.67,14.97-24.42,29.92-48.86,44.85-73.29.76-1.54,2.39-2.46,4.11-2.31,51.57.05,103.14.06,154.71.02,1.62-.25,3.23.52,4.05,1.95,20.24,33.18,40.53,66.33,60.86,99.45.32.52.57,1.08.95,1.85H29.98Zm143.34-10.23h8.49c1.91,0,2.95-.88,2.81-2.82-.83-10.92-1.69-21.84-2.52-32.75.08-1.37-.97-2.55-2.34-2.63-.16,0-.33,0-.49.02-4.02,0-8.04-.14-12.04.13-1.21.3-2.18,1.2-2.57,2.39-.95,10.91-1.72,21.83-2.51,32.75-.16,2.13.92,2.96,2.97,2.92,2.74-.06,5.48,0,8.22,0m-7.41-69.7h0c-.17,3.46-.33,6.92-.52,10.38-.12,2.06.74,3.04,2.86,3,3.28-.06,6.57-.03,9.85,0,1.91,0,2.96-.8,2.86-2.77-.38-7.28-.78-14.57-1.19-21.85.11-1.35-.89-2.53-2.24-2.64-.19-.02-.37,0-.56.02-2.46.04-4.92.04-7.39,0-2.07-.05-2.95.91-3.03,2.95-.14,3.65-.41,7.28-.63,10.92"></path><path id="Path_636" class="cls-1" d="m239.03,131.8c-2.86.54-5.28.91-7.63,1.5-.68.27-1.18.85-1.34,1.56-.08,10.3-.06,20.6-.06,31.15.95-.11,1.73-.22,2.49-.27,3.34-.48,6.43,1.84,6.91,5.17.05.37.07.74.06,1.11.08,2.46.04,4.93,0,7.39.32,3.49-2.24,6.58-5.73,6.9-2.67.25-5.21-1.21-6.34-3.64-.18-.3-.4-.58-.28-.4-1.43,1.43-3.05,2.66-4.81,3.66-3.02,1.21-6.45-.26-7.65-3.28-.25-.63-.39-1.29-.42-1.97-.2-3.1-.2-6.2,0-9.3.09-3.24,2.79-5.79,6.03-5.7.13,0,.26.01.4.02.9.03,1.79.21,2.96.36,0-2.99.08-5.89-.06-8.79-.17-.78-.63-1.47-1.3-1.91-7.11-5.11-14.25-10.19-21.41-15.23-2.49-1.15-5.42-.78-7.55.95-13.24,11.69-27.2,11.68-40.43-.03-2.18-1.85-5.32-2.06-7.72-.51-6.75,4.84-13.45,9.73-20.25,14.5-1.36.77-2.13,2.27-1.97,3.82.14,2.36.03,4.72.03,6.96.35.23.53.43.64.4,3.47-1.32,7.35.42,8.68,3.88.49,1.29.58,2.71.24,4.05-.17,1.81,0,3.65-.03,5.47.32,3.03-1.58,5.84-4.5,6.68-3.12.88-6.41-.68-7.7-3.65-.12-.21-.27-.42.6.48-1.48.91-2.92,1.91-4.46,2.71-3.03,1.65-6.83.53-8.48-2.5-.45-.82-.7-1.73-.75-2.66-.15-2.27-.04-4.56-.04-6.84,0-6.29,2.7-8.59,9.2-7.56v-32.82l-7.97-1.5c.1,3.92.19,7.67.28,11.42,0,.09-.02.18-.04.27-.75,6.02-5.53,10.74-11.56,11.42-6.06-.37-11.04-4.92-11.95-10.93-.13-.52-.27-1.05-.48-1.88-4.22,1.47-8.88-.41-10.9-4.4-2.01-3.73-2.43-8.12-1.17-12.17-3.31-.87-6.53-2.04-9.62-3.51-1.48-.86-1.97-3.42-3.29-5.94l82.18,3.41c-.02-4.34.22-8.68.72-12.99,2.42-13.84,9.38-24.14,23.32-28.77.84-.54,1.38-1.43,1.46-2.42.79-11.38,1.47-22.76,2.18-34.15.44-7.1.84-14.21,1.34-21.31.18-2.5,1.59-3.77,3.13-2.81,1.01.8,1.65,1.99,1.77,3.27.69,9.28,1.2,18.57,1.77,27.87.56,9.11,1.08,18.22,1.74,27.32.12.98.69,1.85,1.54,2.35,14.24,5.11,21.05,15.91,23.04,30.23.28,3.55.3,7.11.08,10.66,6.42,0,12.6.19,18.76-.03,20.33-.75,40.66-1.67,61-2.5,3.11-.13,3.11.17,1.82,3.03-1,2.9-3.71,4.86-6.78,4.9-1.61.18-3.21.49-4.77.91,2.69,11.78-3.78,19.12-11.81,17.2-.84,2.4-1.87,4.73-3.07,6.97-2.78,5.22-9.26,7.19-14.48,4.41-1.96-1.04-3.54-2.67-4.54-4.65-3.13-5.29-3.51-11.77-1.04-17.4m-62.57-22.63c6.38,0,12.63.07,18.88-.11.61,0,1.76-1.71,1.64-2.46-.54-3.04-1.27-6.05-2.18-9.01-.27-.73-.88-1.29-1.64-1.49-5.52-.11-11.04-.07-16.7-.07v13.14Zm-6.49-13.18c-5.63,0-10.9-.07-16.17.08-.91.23-1.65.88-1.99,1.76-.86,2.68-1.47,5.45-2.14,8.2-.56,2.29.48,3.23,2.72,3.21,3.28-.03,6.57,0,9.85,0h7.72v-13.25m86.36,43.69c-.92-2.52-2.08-4.94-3.44-7.25-1.13-1.78-3.49-2.3-5.27-1.17-.41.26-.76.6-1.05.99-3.63,4.35-3.59,10.68.1,14.98,2.08,1.99,4.46,2.18,6.12-.14,1.4-2.36,2.59-4.84,3.54-7.41m-152.88.12c-.89-2.52-2.01-4.96-3.34-7.28-1.77-2.54-4.34-2.39-6.5-.15-3.5,4.32-3.46,10.51.09,14.79,1.19,1.72,3.55,2.14,5.27.95.42-.29.78-.67,1.05-1.1,1.36-2.29,2.51-4.7,3.44-7.19m19.77-4.99v13.67l15.09-10.89-15.09-2.78m100.14,13.46v-13.56l-15.03,2.86,15.03,10.69m46.37-17.45c0-3.74-2.24-7.16-4.67-7.12s-4.62,3.63-4.53,7.26,2.32,6.89,4.67,6.83,4.51-3.41,4.53-6.97m-192.87-.05c0,3.58,2.12,6.9,4.47,7.01,2.43.11,4.73-3.34,4.71-7.05,0-3.57-2.17-6.94-4.48-7.03-2.43-.1-4.71,3.34-4.7,7.07"></path></g></g></svg>