<svg xmlns="http://www.w3.org/2000/svg" id="Layer_1" viewBox="0 0 482.47 392.31"><defs><style>.cls-1{fill:#bb1920;}.cls-2,.cls-3,.cls-4{fill:#fff;}.cls-5{opacity:.5;}.cls-6,.cls-7{fill:#e4f2fd;}.cls-3,.cls-8{opacity:.21;}.cls-3,.cls-4,.cls-9{isolation:isolate;}.cls-10,.cls-9{fill:#fefffd;}.cls-7{stroke:#000;stroke-miterlimit:10;stroke-width:2px;}.cls-11{fill:none;}.cls-12{fill:#d21920;}.cls-13{fill:#902126;}.cls-4{opacity:.06;}.cls-9{opacity:.16;}</style></defs><g><path class="cls-12" d="m385.12,196.15c0-97.2-78.8-176-176-176S33.12,98.95,33.12,196.15c0,53.11,23.53,100.73,60.73,133-.35-3.65-.53-7.34-.53-11.08,0-63.95,51.84-115.8,115.8-115.8s115.8,51.84,115.8,115.8c0,3.74-.18,7.44-.53,11.08,37.2-32.27,60.73-79.89,60.73-133Z"></path><path class="cls-12" d="m275.16,342.75c-3.19-1.81-5.56-2.9-7.47-3.76-4.25-1.93-7.07-3.2-10.87-8.76-.45-.66-.9-1.32-1.34-1.99-4-6.07-6.89-10.46-17.86-8.72-20.73,3.29-23.03,6.92-24.02,12.88l-.28,1.82-.28,1.92c-1.13,7.91-1.09,10.9,2.54,14.72,7.27,7.63,13.09,14.2,17.44,19.68,17.47-2.37,34.13-7.31,49.58-14.42-.31-6.37-1.64-10.04-7.45-13.36Z"></path><path class="cls-12" d="m140.85,252.64c2.05,1.42,3.83,3.42,5.06,6.18,2.36,5.3,2.36,10.75,2.36,15.58,0,3.8-.01,7.41,1.21,10.02,1.67,3.57,8.88,5.09,15.23,6.42,2.27.48,4.61.97,6.75,1.56,5.86,1.63,10.39,6.89,14.03,11.11,1.51,1.76,3.73,4.34,4.85,4.99.58-.42,2.45-2.44,3.38-5.77.7-2.53.5-4.79-.53-6.01-6.47-7.64-6.12-22.36-4.12-27.78,3.15-8.56,13-7.92,20.2-7.46,2.68.17,5.22.34,7.11.1,7.21-.9,9.42-11.86,10.99-14.01,3.38-4.63,13.73-11.61,20.16-15.93-11.73-5.22-24.73-8.12-38.4-8.12-26.84,0-51.06,11.18-68.27,29.13Z"></path><path class="cls-6" d="m209.12,202.27c-63.95,0-115.8,51.84-115.8,115.8,0,3.74.18,7.44.53,11.08,30.88,26.79,71.18,43,115.27,43,8.11,0,16.09-.56,23.91-1.62-4.35-5.48-10.17-12.05-17.44-19.68-3.63-3.82-3.67-6.81-2.54-14.72l.28-1.92.28-1.82c.99-5.96,3.29-9.59,24.02-12.88,10.97-1.74,13.86,2.65,17.86,8.72.44.67.88,1.33,1.34,1.99,3.8,5.56,6.61,6.83,10.87,8.76,1.9.86,4.28,1.95,7.47,3.76,5.81,3.32,7.14,6.98,7.45,13.36,15.22-7,29.27-16.11,41.77-26.95.35-3.65.53-7.34.53-11.08,0-63.95-51.85-115.8-115.8-115.8Zm18.24,45.28c-1.57,2.15-3.78,13.1-10.99,14.01-1.89.24-4.42.07-7.11-.1-7.2-.47-17.04-1.1-20.2,7.46-2,5.42-2.35,20.14,4.12,27.78,1.04,1.22,1.24,3.48.53,6.01-.93,3.33-2.79,5.35-3.38,5.77-1.12-.64-3.34-3.23-4.85-4.99-3.63-4.22-8.17-9.48-14.03-11.11-2.13-.59-4.47-1.08-6.75-1.56-6.36-1.33-13.56-2.85-15.23-6.42-1.22-2.61-1.22-6.22-1.21-10.02,0-4.82,0-10.28-2.36-15.58-1.23-2.76-3.01-4.76-5.06-6.18,17.21-17.95,41.44-29.13,68.27-29.13,13.67,0,26.66,2.9,38.4,8.12-6.43,4.31-16.78,11.29-20.16,15.93Z"></path></g><g id="Polygon_13" class="cls-5"><path class="cls-11" d="m376.31,170.47l-37.38-71.73h74.76l-37.38,71.73Z"></path><path class="cls-2" d="m376.31,167.58l35.17-67.5h-70.35l35.17,67.5m0,2.89l-37.38-71.73h74.76l-37.38,71.73Z"></path></g><path id="Polygon_31" class="cls-9" d="m98.2,193.99l22.14,25.98-27.15,7.79,5.01-33.76Z"></path><path id="Polygon_32" class="cls-3" d="m286.18,165.26l13.62,6.47-10.62,8.3-2.99-14.78Z"></path><g id="Polygon_33" class="cls-8"><path class="cls-11" d="m160.9,27.54l-13.79,29.01-17.69-22.63,31.48-6.38Z"></path><path class="cls-2" d="m155.87,31.48l-21.35,4.33,12,15.35,9.35-19.68m5.03-3.93l-13.79,29.01-17.7-22.64,31.48-6.38Z"></path></g><g id="Polygon_34" class="cls-8"><path class="cls-11" d="m36.49,101.25l44.22-9.04-10.45,38.99-33.77-29.95Z"></path><path class="cls-2" d="m41.25,102.52l27.81,24.67,8.61-32.11-36.42,7.45m-4.75-1.27l44.22-9.04-10.45,38.99-33.76-29.95Z"></path></g><path id="Polygon_35" class="cls-4" d="m310.08,65.58l-4.38-21.43,18.9,5.07-14.52,16.37Z"></path><path id="Polygon_36" class="cls-1" d="m37.02,161.42l-5.71-10.12h11.42l-5.71,10.12Z"></path><path class="cls-2" d="m451.15,329.2v-108.93c.05-1-.16-1.96-.6-2.83h.59l-1.87-1.73c-12.45-11.54-25.06-23.3-37.47-34.93-1.18-1.16-2.8-1.79-4.42-1.73h-1.45c-20.08.08-40.85.16-61.23,0-2.57-.11-5.05.79-6.96,2.53-1.86,1.71-2.97,4.02-3.12,6.54v.91c.08,23.67.07,47.73.06,70.99,0,7.89,0,15.77,0,23.66v46.33c-.14,2.39.65,4.69,2.24,6.49s3.78,2.86,6.17,3.01c.19.01.37.02.55.02s.33,0,.48-.01h97.79c2.39.1,4.65-.75,6.4-2.36,1.75-1.62,2.76-3.82,2.86-6.24v-1.72h-.01Z"></path><path class="cls-7" d="m113.32,140.09c1.45-1.29,2.92-2.55,4.33-3.88.56-.53,1.03-.6,1.75-.34,4.34,1.57,8.7,3.08,13.05,4.65.66.24,1.1.22,1.64-.3,9.69-9.39,19.4-18.76,29.1-28.13.06-.05.08-.14.22-.36-14.68-7.18-29.34-14.36-44.18-21.62,2.16-1.91,4.26-3.64,6.19-5.54,1.1-1.08,2.13-1.28,3.61-.94,7,1.59,14.03,3.02,21.04,4.56.89.2,1.53.08,2.22-.57,2.15-1.99,4.37-3.9,6.56-5.85.33-.29.66-.58,1.04-.92,1.87,2.11,3.64,4.11,5.54,6.26-1.26,1.12-2.5,2.21-3.93,3.49,4.02.86,7.72,1.66,11.43,2.45,2.38.51,4.77.96,7.14,1.54,1.03.25,1.72.07,2.52-.65,5.98-5.33,11.97-10.64,18.03-15.86,3.74-3.22,7.87-5.9,12.67-7.27,1.86-.53,3.89-.75,5.83-.67,2.41.1,3.68,1.7,3.72,4.11.05,3.05-1.21,5.69-2.68,8.25-2.01,3.5-4.58,6.56-7.56,9.25-5.96,5.4-11.98,10.74-18.01,16.07-.66.59-.88,1.14-.79,2.01.56,5.87,1.07,11.75,1.6,17.62.04.41.1.81.18,1.49,1.12-.99,2.13-1.82,3.05-2.73.67-.66,1.09-.59,1.68.11,1.51,1.79,3.09,3.52,4.76,5.4-.43.38-.76.67-1.09.96-2.19,1.94-4.36,3.92-6.59,5.81-.72.61-.91,1.23-.83,2.14.7,7.39,1.33,14.79,2.04,22.18.09.96-.12,1.6-.87,2.23-1.96,1.64-3.84,3.38-5.76,5.07-.3.26-.6.53-1.02.91-5.41-15.58-10.76-30.97-16.17-46.54-1.49,1.19-2.87,2.26-4.23,3.36-9.03,7.34-18.05,14.69-27.1,22-.89.71-1.14,1.35-.86,2.47,1.03,4.29,1.93,8.61,2.93,12.9.2.84.02,1.35-.63,1.89-1.46,1.21-2.86,2.5-4.28,3.75-.16-.19-.33-.37-.49-.56-.06-.19-.09-.4-.19-.56-2.75-4.49-5.47-8.99-8.3-13.43-.96-1.5-2.01-3.03-3.33-4.2-2.67-2.38-5.53-4.53-8.34-6.75-2.02-1.6-4.08-3.15-6.13-4.72-.16-.19-.33-.37-.49-.56Z"></path><path id="Path_581" class="cls-13" d="m450.15,330.2v-109.98c.07-1.44-.53-2.83-1.62-3.78h.06c-12.53-11.61-25.02-23.26-37.49-34.95-.99-.97-2.33-1.5-3.72-1.45-20.91.08-41.82.16-62.72,0-4.78-.21-8.83,3.5-9.04,8.28,0,0,0,0,0,0v.69c.12,31.56.06,63.11.06,94.66v46.4c-.27,4.39,3.07,8.17,7.46,8.44.32.02.65.02.97,0h97.83c4.37.17,8.05-3.23,8.22-7.6h0v-.72m-37.24-10.79c-.49.32-.75.89-.67,1.46.04,1.05.04,2.11,0,3.17v.18c-.07,1.82-1.6,3.24-3.41,3.17,0,0,0,0,0,0h-31.87c-1.83-.06-3.26-1.59-3.21-3.42v-1.42c.3-1.46-.23-2.97-1.38-3.93-.75-.83-1.18-1.9-1.21-3.02-.13-2.07-.14-4.15-.05-6.22.05-2.64,2.2-4.75,4.83-4.75h8.06c.1-2.89-.41-5.83,3.07-7.11-.3-3.18-1.37-6.23-3.11-8.91-1.55-1.98-2.69-4.25-3.36-6.67-1.59-6.98,2.78-13.93,9.76-15.52,1-.23,2.03-.34,3.06-.32,5.25.28,9.77,3.78,11.36,8.79,1.47,4.21.7,8.88-2.02,12.41-2.11,3.01-3.43,6.5-3.85,10.16,3.53,1.19,2.96,4.2,3.04,7.06.44.02.82.05,1.21.05h6.67l.02.05h.41c2.66.13,4.71,2.37,4.6,5.03v5.68c.08,1.6-.66,3.13-1.96,4.06m18.62-62.08c0,1.4-1.1,2.55-2.49,2.63-.44.02-.89.02-1.33,0h-69.51c-.55.03-1.11.01-1.66-.05-1.32-.22-2.26-1.39-2.2-2.72.02-1.28.98-2.35,2.25-2.51.44-.06.88-.07,1.33-.04h70c.39-.02.78-.02,1.16,0,1.39.1,2.47,1.27,2.45,2.66v.03Zm-.02-10.64c0,1.4-1.1,2.55-2.49,2.63-.44.02-.89.02-1.33,0h-69.47c-.55.03-1.11.01-1.66-.05-1.32-.22-2.26-1.39-2.2-2.72.02-1.28.98-2.35,2.25-2.51.44-.06.88-.07,1.33-.04h69.98c.39-.02.78-.02,1.16,0,1.39.1,2.47,1.27,2.45,2.66l-.02.03Zm-2.65-8.01h-70.68c-.55.04-1.11.02-1.66-.06-1.44-.26-2.4-1.63-2.14-3.07.2-1.11,1.08-1.98,2.2-2.15.5-.07,1-.08,1.5-.05h70.83c1.46.02,2.63,1.22,2.62,2.68v.02c-.03,1.46-1.21,2.62-2.67,2.63m9.46-22.65h-24.58c-2.6,0-3.49-.89-3.49-3.5v-24.41l29.84,27.79c-.84.05-1.31.11-1.77.11"></path><path class="cls-10" d="m128.21,178.68c-11.33,12.81-18.14,29.25-21.35,45.97-.74,3.18-1.22,8.24-1.66,11.5-.13,3.32-.57,8.36-.41,11.66.05.86.11,6.48.18,7.32.26,2.73.74,7.47,1,10.22-.54-3.42-1.56-8.23-1.93-11.61-.21-2.17-.68-6.74-.84-8.82-.04-1.82-.16-6.98-.2-8.88.1-2.02.34-6.96.45-8.9,1.14-11.92,3.96-23.65,8.75-34.7,2.94-6.53,6.34-12.94,10.87-18.54,3.22-3.54,8.44,1.26,5.13,4.77h0Z"></path><path class="cls-10" d="m110.8,163.3c-13.04,22.94-20.07,49.35-20.62,75.74-.21,16.07,2.31,32.08,7.53,47.33-6.07-14.98-9.5-31.1-10.16-47.3-.61-16.32,1.36-32.67,5.57-48.48,2.11-7.92,4.78-15.72,8.03-23.27,1.13-2.6,2.23-5.02,3.6-7.58.92-1.7,3.04-2.34,4.74-1.43,1.79.95,2.39,3.26,1.29,4.97h0Z"></path><path class="cls-10" d="m96.06,154.36c-17.63,21.48-23.85,50.32-23.18,77.71.78,28.2,8.96,55.88,20.54,81.53-12.73-25.36-22.07-52.84-24.04-81.37-1.54-21.44,1.41-43.66,10.2-63.5,3.02-6.75,6.6-13.33,11.31-19.1,3.2-3.5,8.38,1.2,5.17,4.72h0Z"></path></svg>