<svg xmlns="http://www.w3.org/2000/svg" id="Layer_1" data-name="Layer 1" viewBox="0 0 72.25 72.1"><defs><style>      .cls-1 {        fill: #fff;      }    </style></defs><g><path class="cls-1" d="m70.52,51.58c-.29,6.89-3.4,12.65-9.87,16.43-3.19,1.86-6.68,2.6-10.37,2.31-8.73-.69-15.86-7.28-17.23-15.96-.94-5.98.49-11.36,4.41-15.99,3.01-3.55,6.87-5.72,11.5-6.37,6-.83,11.23.9,15.6,5.07,3.97,3.8,5.83,8.53,5.95,14.5Zm-13.02-11.92c-5.73-2.95-11.99-1.13-15.5,3.14-3.55,4.33-3.94,10.62-.94,15.25,1.53,2.36,3.58,4.11,6.22,5.09,3.48,1.3,6.89,1.02,10.21-.66.91,1.81,1.81,3.6,2.7,5.38,5.39-2.71,10.57-9.38,9.96-18.18-.54-7.89-5.79-13.42-9.98-15.37-.89,1.77-1.78,3.54-2.68,5.34Z"></path><path class="cls-1" d="m51.63,59.42c-.29-.17-.53-.25-.69-.42-2.75-2.79-5.49-5.59-8.22-8.4-.41-.42-.41-.88,0-1.3.77-.79,1.53-1.59,2.3-2.37.48-.48.82-.47,1.29.01,1.54,1.58,3.08,3.16,4.62,4.73.49.5.94.48,1.49-.08,2.66-2.72,5.32-5.43,7.98-8.15.66-.67,1.32-1.35,1.98-2.02.53-.53.96-.52,1.49.02.66.68,1.32,1.35,1.98,2.02.58.6.59,1.01.02,1.6-2.76,2.82-5.52,5.64-8.28,8.46-1.69,1.73-3.38,3.47-5.08,5.19-.25.26-.57.46-.87.7Z"></path></g><path class="cls-1" d="m21.73,47.21c-.06-.35,0-.59.27-.85,4.02-3.83,8.02-7.68,12.03-11.52.14-.14.3-.27.47-.43.66,1.08,1.33,2.15,1.99,3.23.01-.02.03-.03.04-.05,3.16-3.72,7.15-5.99,11.88-6.73-.77-2.31-1.53-4.62-2.3-6.92-.13-.4-.09-.64.23-.93,1.84-1.73,3.66-3.49,5.48-5.25,2.26-2.17,4.57-4.3,6.76-6.54,1.68-1.73,2-3.84,1.09-6.07-.86-2.1-2.94-3.44-5.22-3.41-1.64.02-3.01.68-4.14,1.86-3.77,3.94-7.57,7.87-11.33,11.82-.39.41-.71.47-1.22.29-2.08-.72-4.18-1.4-6.27-2.09-7.21-2.39-14.42-4.77-21.62-7.17-.46-.15-.74-.09-1.08.26-1.71,1.76-3.46,3.48-5.2,5.21-.15.14-.36.22-.62.38,8.29,5.1,16.37,10.08,24.47,15.07-.09.12-.13.19-.18.24-3.95,4.12-7.89,8.24-11.86,12.34-.15.15-.48.23-.7.19-2.33-.36-4.65-.74-6.97-1.14-.38-.07-.6.03-.84.28-.7.72-1.42,1.43-2.14,2.14-1.01,1-2.03,1.99-3.05,2.98v.11c1.34.45,2.69.9,4.03,1.36,2.38.83,4.76,1.66,7.14,2.51.22.08.48.28.55.48,1.32,3.7,2.61,7.41,3.91,11.11.02.05,0,.11,0,.17h.11c.12-.14.23-.29.36-.42,1.6-1.6,3.21-3.19,4.79-4.81.16-.17.27-.5.23-.72-.36-2.33-.74-4.65-1.13-6.97Z"></path></svg>