<svg xmlns="http://www.w3.org/2000/svg" xmlns:xlink="http://www.w3.org/1999/xlink" viewBox="0 0 493.63 408.53"><defs><style>.cls-1{fill:#cfd8dc;}.cls-2{fill:url(#linear-gradient-2);}.cls-3,.cls-4{fill:#fff;}.cls-5{fill:url(#linear-gradient-17);}.cls-6{stroke:url(#linear-gradient-35);}.cls-6,.cls-7,.cls-8,.cls-9,.cls-10,.cls-11,.cls-12,.cls-13,.cls-14,.cls-15,.cls-16,.cls-17,.cls-18,.cls-19,.cls-20,.cls-21,.cls-22,.cls-23,.cls-24,.cls-25,.cls-26,.cls-27,.cls-28,.cls-29,.cls-30,.cls-31,.cls-32,.cls-33,.cls-34,.cls-35,.cls-36,.cls-37,.cls-38,.cls-39,.cls-40,.cls-41{fill:none;}.cls-6,.cls-7,.cls-8,.cls-9,.cls-10,.cls-11,.cls-12,.cls-13,.cls-14,.cls-15,.cls-16,.cls-17,.cls-18,.cls-19,.cls-20,.cls-21,.cls-22,.cls-23,.cls-24,.cls-26,.cls-27,.cls-29,.cls-4,.cls-30,.cls-31,.cls-32,.cls-33,.cls-34,.cls-35,.cls-36,.cls-37,.cls-38,.cls-39,.cls-40,.cls-41{stroke-linecap:round;stroke-linejoin:round;}.cls-6,.cls-8,.cls-10,.cls-11,.cls-12,.cls-13,.cls-14,.cls-15,.cls-16,.cls-20,.cls-21,.cls-23,.cls-24,.cls-27,.cls-30,.cls-31,.cls-32,.cls-33,.cls-34,.cls-35,.cls-36,.cls-37,.cls-39,.cls-40{stroke-width:.2px;}.cls-7,.cls-19,.cls-28,.cls-4{stroke:#fff;}.cls-7,.cls-4{stroke-width:.63px;}.cls-8{stroke:url(#linear-gradient-7);}.cls-42{fill:url(#linear-gradient-15);}.cls-43,.cls-44{fill:#eceff1;}.cls-45{fill:url(#linear-gradient-18);}.cls-9{stroke-dasharray:0 0 0 4.08;}.cls-9,.cls-17,.cls-18{stroke:#c2292d;stroke-width:1.2px;}.cls-10{stroke:url(#linear-gradient-4);}.cls-46{fill:url(#linear-gradient-14);}.cls-47{fill:url(#linear-gradient-20);}.cls-11{stroke:url(#linear-gradient-5);}.cls-12{stroke:url(#linear-gradient-26);}.cls-48{isolation:isolate;}.cls-13{stroke:url(#linear-gradient-9);}.cls-49{opacity:.8;}.cls-14{stroke:url(#linear-gradient-33);}.cls-15{stroke:url(#linear-gradient-8);}.cls-16{stroke:url(#linear-gradient-12);}.cls-18{stroke-dasharray:0 0 0 4.08;}.cls-19,.cls-28{stroke-width:.35px;}.cls-20{stroke:url(#linear-gradient-39);}.cls-21{stroke:url(#linear-gradient-37);}.cls-50{fill:url(#linear-gradient-16);}.cls-22{stroke:url(#linear-gradient-24);}.cls-22,.cls-29,.cls-38,.cls-41{stroke-width:.5px;}.cls-51{fill:url(#linear-gradient-25);}.cls-23{stroke:url(#linear-gradient-34);}.cls-52{clip-path:url(#clippath);}.cls-24{stroke:url(#linear-gradient-27);}.cls-53{fill:rgba(194,41,45,.8);}.cls-26{stroke:#eceff1;stroke-width:2.05px;}.cls-27{stroke:url(#linear-gradient-38);}.cls-28{stroke-miterlimit:10;}.cls-29{stroke:url(#linear-gradient-21);}.cls-54{fill:url(#linear-gradient-3);}.cls-30{stroke:url(#linear-gradient-28);}.cls-31{stroke:url(#linear-gradient-6);}.cls-32{stroke:url(#linear-gradient-30);}.cls-55{fill:url(#linear-gradient);}.cls-33{stroke:url(#linear-gradient-11);}.cls-34{stroke:url(#linear-gradient-10);}.cls-35{stroke:url(#linear-gradient-32);}.cls-56{fill:url(#linear-gradient-23);}.cls-36{stroke:url(#linear-gradient-31);}.cls-37{stroke:url(#linear-gradient-29);}.cls-38{stroke:url(#linear-gradient-19);}.cls-39{stroke:url(#linear-gradient-36);}.cls-40{stroke:url(#linear-gradient-40);}.cls-44{mix-blend-mode:multiply;opacity:.75;}.cls-41{stroke:url(#linear-gradient-22);}.cls-57{fill:url(#linear-gradient-13);}</style><linearGradient id="linear-gradient" x1="362.87" y1="336.09" x2="-67.71" y2="997.27" gradientTransform="translate(0 -250.71)" gradientUnits="userSpaceOnUse"><stop offset="0" stop-color="#d21920"></stop><stop offset="1" stop-color="#000"></stop></linearGradient><linearGradient id="linear-gradient-2" x1="227.53" y1="660.75" x2="132.14" y2="586.84" gradientTransform="translate(729.47 99.85) rotate(90)" gradientUnits="userSpaceOnUse"><stop offset="0" stop-color="#fff"></stop><stop offset="1" stop-color="#fff"></stop></linearGradient><linearGradient id="linear-gradient-3" x1="239.5" y1="645.31" x2="144.11" y2="571.4" xlink:href="#linear-gradient-2"></linearGradient><clipPath id="clippath"><path class="cls-25" d="m55.45,364.73c-75.1-81.7-39.8-182.7,5.7-249,29.8-43.3,72.2-76.7,121.9-94,296.4-103,400.1,498.8,183.1,319.6-233.3-192.8-180.7,164.8-310.7,23.4Z"></path></clipPath><linearGradient id="linear-gradient-4" x1="240.84" y1="379.28" x2="245.19" y2="379.28" gradientTransform="translate(486.02 758.55) rotate(180)" gradientUnits="userSpaceOnUse"><stop offset="0" stop-color="#fff"></stop><stop offset="1" stop-color="#fff"></stop></linearGradient><linearGradient id="linear-gradient-5" x1="214.26" y1="379.28" x2="238.39" y2="379.28" gradientTransform="translate(452.64 758.55) rotate(180)" xlink:href="#linear-gradient-4"></linearGradient><linearGradient id="linear-gradient-6" x1="349.82" y1="384.77" x2="351.83" y2="384.77" gradientTransform="translate(701.65 769.55) rotate(180)" xlink:href="#linear-gradient-4"></linearGradient><linearGradient id="linear-gradient-7" x1="344.83" y1="384.77" x2="346.85" y2="384.77" gradientTransform="translate(691.68 769.55) rotate(180)" xlink:href="#linear-gradient-4"></linearGradient><linearGradient id="linear-gradient-8" x1="339.39" y1="384.77" x2="341.4" y2="384.77" gradientTransform="translate(680.8 769.55) rotate(180)" xlink:href="#linear-gradient-4"></linearGradient><linearGradient id="linear-gradient-9" x1="168.02" y1="370.34" x2="205.88" y2="370.34" gradientTransform="translate(373.9 740.68) rotate(180)" xlink:href="#linear-gradient-4"></linearGradient><linearGradient id="linear-gradient-10" x1="21.41" y1="380.54" x2="23.65" y2="380.54" gradientTransform="translate(45.06 761.07) rotate(180)" xlink:href="#linear-gradient-4"></linearGradient><linearGradient id="linear-gradient-11" x1="33.83" y1="379.28" x2="36.07" y2="379.28" gradientTransform="translate(69.9 758.55) rotate(180)" xlink:href="#linear-gradient-4"></linearGradient><linearGradient id="linear-gradient-12" x1="49.87" y1="378.19" x2="52.11" y2="378.19" gradientTransform="translate(101.99 756.38) rotate(180)" xlink:href="#linear-gradient-4"></linearGradient><linearGradient id="linear-gradient-13" x1="68.76" y1="377.32" x2="70.8" y2="377.32" gradientTransform="translate(139.56 754.63) rotate(180)" xlink:href="#linear-gradient-4"></linearGradient><linearGradient id="linear-gradient-14" x1="91.33" y1="387.16" x2="93.37" y2="387.16" gradientTransform="translate(184.71 774.32) rotate(180)" xlink:href="#linear-gradient-4"></linearGradient><linearGradient id="linear-gradient-15" x1="112.32" y1="387.16" x2="114.36" y2="387.16" gradientTransform="translate(226.68 774.32) rotate(180)" xlink:href="#linear-gradient-4"></linearGradient><linearGradient id="linear-gradient-16" x1="132.01" y1="387.16" x2="134.05" y2="387.16" gradientTransform="translate(266.06 774.32) rotate(180)" xlink:href="#linear-gradient-4"></linearGradient><linearGradient id="linear-gradient-17" x1="20.08" y1="371.33" x2="158.26" y2="371.33" gradientTransform="matrix(1, 0, 0, 1, 0, 0)" xlink:href="#linear-gradient-4"></linearGradient><linearGradient id="linear-gradient-18" x1="20.1" y1="395.46" x2="158.26" y2="395.46" gradientTransform="matrix(1, 0, 0, 1, 0, 0)" xlink:href="#linear-gradient-4"></linearGradient><linearGradient id="linear-gradient-19" x1="150.09" y1="343.41" x2="173.98" y2="343.41" gradientTransform="translate(324.08 686.81) rotate(180)" xlink:href="#linear-gradient-4"></linearGradient><linearGradient id="linear-gradient-20" x1="142.93" y1="336.2" x2="181.14" y2="336.2" gradientTransform="matrix(1, 0, 0, 1, 0, 0)" xlink:href="#linear-gradient-4"></linearGradient><linearGradient id="linear-gradient-21" x1="141.53" y1="327.7" x2="182.55" y2="327.7" gradientTransform="matrix(1, 0, 0, 1, 0, 0)" xlink:href="#linear-gradient-4"></linearGradient><linearGradient id="linear-gradient-22" x1="146.56" y1="321.97" x2="177.52" y2="321.97" gradientTransform="matrix(1, 0, 0, 1, 0, 0)" xlink:href="#linear-gradient-4"></linearGradient><linearGradient id="linear-gradient-23" x1="150.42" y1="315.17" x2="173.66" y2="315.17" gradientTransform="matrix(1, 0, 0, 1, 0, 0)" xlink:href="#linear-gradient-4"></linearGradient><linearGradient id="linear-gradient-24" x1="150.73" y1="347.89" x2="173.35" y2="347.89" gradientTransform="matrix(1, 0, 0, 1, 0, 0)" xlink:href="#linear-gradient-4"></linearGradient><linearGradient id="linear-gradient-25" x1="154.02" y1="375.16" x2="170.06" y2="375.16" gradientTransform="matrix(1, 0, 0, 1, 0, 0)" xlink:href="#linear-gradient-4"></linearGradient><linearGradient id="linear-gradient-26" x1="307.87" y1="369.42" x2="342.33" y2="369.42" gradientTransform="translate(650.21 738.83) rotate(180)" xlink:href="#linear-gradient-4"></linearGradient><linearGradient id="linear-gradient-27" x1="298.27" y1="362.21" x2="351.94" y2="362.21" gradientTransform="matrix(1, 0, 0, 1, 0, 0)" xlink:href="#linear-gradient-4"></linearGradient><linearGradient id="linear-gradient-28" x1="296.65" y1="353.71" x2="353.55" y2="353.71" gradientTransform="matrix(1, 0, 0, 1, 0, 0)" xlink:href="#linear-gradient-4"></linearGradient><linearGradient id="linear-gradient-29" x1="303.69" y1="347.98" x2="346.51" y2="347.98" gradientTransform="matrix(1, 0, 0, 1, 0, 0)" xlink:href="#linear-gradient-4"></linearGradient><linearGradient id="linear-gradient-30" x1="307.98" y1="341.62" x2="342.23" y2="341.62" gradientTransform="matrix(1, 0, 0, 1, 0, 0)" xlink:href="#linear-gradient-4"></linearGradient><linearGradient id="linear-gradient-31" x1="308.8" y1="373.9" x2="341.4" y2="373.9" gradientTransform="matrix(1, 0, 0, 1, 0, 0)" xlink:href="#linear-gradient-4"></linearGradient><linearGradient id="linear-gradient-32" x1="312.88" y1="388.16" x2="337.33" y2="388.16" gradientTransform="matrix(1, 0, 0, 1, 0, 0)" xlink:href="#linear-gradient-4"></linearGradient><linearGradient id="linear-gradient-33" x1="168.02" y1="386.34" x2="210.46" y2="386.34" gradientTransform="translate(378.48 772.67) rotate(180)" xlink:href="#linear-gradient-4"></linearGradient><linearGradient id="linear-gradient-34" x1="210.03" y1="390.43" x2="252.47" y2="390.43" gradientTransform="translate(462.5 780.85) rotate(180)" xlink:href="#linear-gradient-4"></linearGradient><linearGradient id="linear-gradient-35" x1="248.03" y1="387.37" x2="290.47" y2="387.37" gradientTransform="translate(538.5 774.74) rotate(180)" xlink:href="#linear-gradient-4"></linearGradient><linearGradient id="linear-gradient-36" x1="281.55" y1="392.89" x2="323.99" y2="392.89" gradientTransform="translate(605.54 785.77) rotate(180)" xlink:href="#linear-gradient-4"></linearGradient><linearGradient id="linear-gradient-37" x1="168.02" y1="364.6" x2="210.46" y2="364.6" gradientTransform="translate(378.48 729.2) rotate(180)" xlink:href="#linear-gradient-4"></linearGradient><linearGradient id="linear-gradient-38" x1="296.65" y1="381.42" x2="353.55" y2="381.42" gradientTransform="translate(650.21 762.84) rotate(180)" xlink:href="#linear-gradient-4"></linearGradient><linearGradient id="linear-gradient-39" x1="296.65" y1="392.47" x2="357.36" y2="392.47" gradientTransform="matrix(1, 0, 0, 1, 0, 0)" xlink:href="#linear-gradient-4"></linearGradient><linearGradient id="linear-gradient-40" x1="211.61" y1="375.3" x2="293.12" y2="375.3" gradientTransform="translate(504.74 750.6) rotate(180)" xlink:href="#linear-gradient-4"></linearGradient></defs><g class="cls-48"><g id="Floor"><path class="cls-55" d="m55.45,364.73c-75.1-81.7-39.8-182.7,5.7-249,29.8-43.3,72.2-76.7,121.9-94,296.4-103,400.1,498.8,183.1,319.6-233.3-192.8-180.7,164.8-310.7,23.4Z"></path><g><path class="cls-28" d="m444.56,216.06v42.87h-51.95v-42.87h17.41v1.73c0,1.05.85,1.9,1.9,1.9s1.9-.85,1.9-1.9v-1.73h9.53v1.73c0,1.05.85,1.9,1.9,1.9s1.89-.85,1.89-1.9v-1.73h17.42Z"></path><g><rect class="cls-28" x="395.75" y="228.13" width="6.52" height="6.52"></rect><rect class="cls-28" x="405.53" y="228.13" width="6.52" height="6.52"></rect><rect class="cls-28" x="415.32" y="228.13" width="6.52" height="6.52"></rect><rect class="cls-28" x="425.11" y="228.13" width="6.52" height="6.52"></rect><rect class="cls-28" x="434.9" y="228.13" width="6.52" height="6.52"></rect></g><g><rect class="cls-28" x="395.75" y="238.19" width="6.52" height="6.52"></rect><rect class="cls-28" x="405.53" y="238.19" width="6.52" height="6.52"></rect><rect class="cls-28" x="415.32" y="238.19" width="6.52" height="6.52"></rect><rect class="cls-28" x="425.11" y="238.19" width="6.52" height="6.52"></rect><rect class="cls-28" x="434.9" y="238.19" width="6.52" height="6.52"></rect></g><g><rect class="cls-28" x="395.75" y="248.25" width="6.52" height="6.52"></rect><rect class="cls-28" x="405.53" y="248.25" width="6.52" height="6.52"></rect><rect class="cls-28" x="415.32" y="248.25" width="6.52" height="6.52"></rect><rect class="cls-28" x="425.11" y="248.25" width="6.52" height="6.52"></rect><rect class="cls-28" x="434.9" y="248.25" width="6.52" height="6.52"></rect></g><g><path class="cls-28" d="m413.82,211.27v6.53c0,1.05-.85,1.9-1.9,1.9s-1.9-.85-1.9-1.9v-6.53c0-1.05.85-1.89,1.9-1.89s1.9.85,1.9,1.89Z"></path><path class="cls-28" d="m427.14,211.27v6.53c0,1.05-.85,1.9-1.89,1.9s-1.9-.85-1.9-1.9v-6.53c0-1.05.85-1.89,1.9-1.89s1.89.85,1.89,1.89Z"></path></g></g><g><g><circle class="cls-7" cx="312.7" cy="68.7" r="33.47" transform="translate(216.7 374.13) rotate(-84.94)"></circle><circle class="cls-7" cx="312.7" cy="68.7" r="26.8" transform="translate(218.33 374.64) rotate(-85.25)"></circle><circle class="cls-7" cx="312.7" cy="68.7" r="17.16" transform="translate(220.7 375.36) rotate(-85.69)"></circle><circle class="cls-7" cx="312.7" cy="68.7" r="9.7" transform="translate(222.53 375.9) rotate(-86.03)"></circle><path class="cls-3" d="m315.77,65.99c-1.5-1.69-4.09-1.85-5.78-.36s-1.85,4.09-.36,5.78,4.09,1.85,5.78.36,1.85-4.09.36-5.78Z"></path></g><g><line class="cls-3" x1="311.45" y1="69.81" x2="268.49" y2="107.79"></line><g><path class="cls-4" d="m312.63,69.85l-33.72,29.81-1.07-1.22,33.72-29.81c.34-.3.85-.27,1.15.07h0c.3.34.27.85-.07,1.15Z"></path><g><polygon class="cls-4" points="271.56 97.38 271.94 97.43 278.55 97.81 268 107.13 260.95 106.75 271.56 97.38"></polygon><path class="cls-4" d="m268.47,115.26l.6-6.92,10.54-9.32c-.46,2.24-.63,4.56-.57,6.89l-10.57,9.35Z"></path></g></g></g></g><g><rect class="cls-19" x="356.31" y="295.71" width="3.72" height="8.62"></rect><rect class="cls-19" x="361.29" y="291.3" width="3.72" height="13.02"></rect><rect class="cls-19" x="366.27" y="285.75" width="3.72" height="18.58"></rect><rect class="cls-19" x="371.24" y="281.92" width="3.72" height="22.41"></rect></g><path class="cls-28" d="m338.74,290.85l30.91-21.26,31.05,16.02c.79.4,1.71.46,2.53.15l18.82-7.02-.98,5.73,15.86-14.63-21.56-.66,4.49,3.69-17.51,6.54-31.48-16.24c-1.03-.53-2.26-.45-3.22.2l-32.45,22.33"></path><g><path class="cls-43" d="m127.1,224.58l3.68-2.56c1.44-1,3.25-1.34,4.96-.92l18.42,4.49-8.97,10.53-18.09-11.53Z"></path><path class="cls-43" d="m164.66,256.59l1.94-4.04c.76-1.58.81-3.42.13-5.04l-7.35-17.48-8.97,10.53,14.26,16.03Z"></path><g><g><path class="cls-1" d="m178.21,159.31h3.15c.82,0,1.49.67,1.49,1.49v11.45h-6.13v-11.45c0-.82.67-1.49,1.49-1.49Z" transform="translate(150.48 -77.01) rotate(40.44)"></path><path class="cls-1" d="m167.77,157.38h3.15c.82,0,1.49.67,1.49,1.49v11.45h-6.13v-11.45c0-.82.67-1.49,1.49-1.49Z" transform="translate(146.73 -70.7) rotate(40.44)"></path><path class="cls-1" d="m157.34,155.46h3.15c.82,0,1.49.67,1.49,1.49v11.45h-6.13v-11.45c0-.82.67-1.49,1.49-1.49Z" transform="translate(142.99 -64.39) rotate(40.44)"></path></g><g><path class="cls-1" d="m211.3,188.78h6.13v11.45c0,.82-.67,1.49-1.49,1.49h-3.15c-.82,0-1.49-.67-1.49-1.49v-11.45h0Z" transform="translate(250.89 482.9) rotate(-139.56)"></path><path class="cls-1" d="m214.86,198.78h6.13v11.45c0,.82-.67,1.49-1.49,1.49h-3.15c-.82,0-1.49-.67-1.49-1.49v-11.45h0Z" transform="translate(250.66 502.82) rotate(-139.56)"></path><path class="cls-1" d="m218.42,208.78h6.13v11.45c0,.82-.67,1.49-1.49,1.49h-3.15c-.82,0-1.49-.67-1.49-1.49v-11.45h0Z" transform="translate(250.44 522.74) rotate(-139.56)"></path></g></g><path class="cls-43" d="m185.18,161.87l-2.39-2.04c-.63-.53-1.57-.46-2.1.17l-.33.39,4.67,3.98.33-.39c.53-.63.46-1.57-.17-2.1Z"></path><path class="cls-43" d="m174.74,159.95l-2.39-2.04c-.63-.53-1.57-.46-2.1.17l-.33.39,4.67,3.98.33-.39c.53-.63.46-1.57-.17-2.1Z"></path><path class="cls-43" d="m164.3,158.02l-2.39-2.04c-.63-.53-1.57-.46-2.1.17l-.33.39,4.67,3.98.33-.39c.53-.63.46-1.57-.17-2.1Z"></path><path class="cls-43" d="m219.76,191.35l-2.39-2.04c-.63-.53-1.57-.46-2.1.17l-.33.39,4.67,3.98.33-.39c.53-.63.46-1.57-.17-2.1Z"></path><path class="cls-43" d="m223.32,201.35l-2.39-2.04c-.63-.53-1.57-.46-2.1.17l-.33.39,4.66,3.98.33-.39c.53-.63.46-1.57-.17-2.1Z"></path><path class="cls-43" d="m226.88,211.35l-2.39-2.04c-.63-.53-1.57-.46-2.1.17l-.33.39,4.67,3.98.33-.39c.53-.63.46-1.57-.17-2.1Z"></path><path class="cls-43" d="m209.18,178.57l24.33,62.9c.42,1.08.52,2.26.28,3.4l-1.26,6.13c-.15.74-1.11.94-1.54.33l-38.16-53.57,16.36-19.2Z"></path><path class="cls-43" d="m197.07,168.25l-65.96-14.04c-1.14-.24-2.32-.15-3.4.26l-5.86,2.22c-.7.27-.75,1.24-.08,1.58l58.94,29.19,16.36-19.2Z"></path><polygon class="cls-1" points="211.28 183.99 209.18 178.57 192.82 197.77 195.08 200.94 211.28 183.99"></polygon><path class="cls-1" d="m159.38,230.03l-8.97,10.53,2.67,3.01c3.07-2.37,6.01-4.88,8.82-7.54l-2.52-6Z"></path><path class="cls-3" d="m227.93,158.2l4.46-15.19c.68-2.32-1.71-4.36-3.89-3.32l-14.29,6.82c-4.05,1.93-7.59,4.79-10.33,8.34l-49.18,63.47c-6.41,8.28-11.74,17.34-15.85,26.97l-3.04,7.12,6.55-4.13c8.85-5.59,16.96-12.28,24.11-19.93l54.86-58.62c3.07-3.27,5.33-7.22,6.6-11.52Z"></path><g><line class="cls-26" x1="152.54" y1="169.41" x2="147.22" y2="175.64"></line><line class="cls-26" x1="161.09" y1="173.54" x2="155.78" y2="179.78"></line><line class="cls-26" x1="169.64" y1="177.68" x2="164.33" y2="183.92"></line></g><g><line class="cls-26" x1="215.11" y1="222.73" x2="209.79" y2="228.97"></line><line class="cls-26" x1="209.67" y1="214.94" x2="204.35" y2="221.18"></line><line class="cls-26" x1="204.23" y1="207.15" x2="198.91" y2="213.39"></line></g><path class="cls-53" d="m223.08,150c2.07,1.76,3.25,4.18,3.49,6.68,1.14-2.86.41-6.25-2.07-8.36-2.48-2.11-5.94-2.3-8.58-.71,2.51-.15,5.09.63,7.15,2.39Z"></path><path class="cls-44" d="m227.93,158.2l4.46-15.19c.34-1.16-.09-2.25-.87-2.92l-95.71,112.31,6.55-4.13c8.85-5.59,16.96-12.28,24.11-19.93l54.86-58.62c3.07-3.27,5.33-7.22,6.6-11.52Z"></path><g class="cls-49"><line class="cls-17" x1="216.11" y1="171.22" x2="216.11" y2="171.22"></line><line class="cls-18" x1="213.33" y1="174.19" x2="167.35" y2="223.32"></line><line class="cls-17" x1="165.96" y1="224.81" x2="165.96" y2="224.81"></line></g><g class="cls-49"><line class="cls-17" x1="203.62" y1="160.57" x2="203.62" y2="160.57"></line><line class="cls-9" x1="201.13" y1="163.79" x2="159.91" y2="216.98"></line><line class="cls-17" x1="158.66" y1="218.59" x2="158.66" y2="218.59"></line></g></g><path class="cls-2" d="m58.8,340.96l78.13-104.62-76.03,104.11c-.7.16-1.4.33-2.11.51Z"></path><path class="cls-54" d="m87.38,335.88l63.79-85.51-62.25,85.35c-.51.05-1.03.11-1.54.17Z"></path><g class="cls-52"><g><rect class="cls-10" x="240.94" y="375.3" width="4.15" height="7.95" transform="translate(486.02 758.55) rotate(-180)"></rect><rect class="cls-11" x="214.36" y="375.3" width="23.93" height="7.95" transform="translate(452.64 758.55) rotate(-180)"></rect><rect class="cls-31" x="349.92" y="382.53" width="1.81" height="4.49" transform="translate(701.65 769.55) rotate(-180)"></rect><rect class="cls-8" x="344.93" y="382.53" width="1.81" height="4.49" transform="translate(691.68 769.55) rotate(-180)"></rect><rect class="cls-15" x="339.49" y="382.53" width="1.81" height="4.49" transform="translate(680.8 769.55) rotate(-180)"></rect><rect class="cls-13" x="168.12" y="366.83" width="37.66" height="7.02" transform="translate(373.9 740.68) rotate(-180)"></rect><g><rect class="cls-34" x="21.51" y="375.1" width="2.04" height="10.88" transform="translate(45.06 761.07) rotate(-180)"></rect><rect class="cls-33" x="33.93" y="372.58" width="2.04" height="13.39" transform="translate(69.9 758.55) rotate(-180)"></rect><rect class="cls-16" x="49.97" y="370.41" width="2.04" height="15.57" transform="translate(101.99 756.38) rotate(-180)"></rect><rect class="cls-57" x="68.76" y="368.66" width="2.04" height="17.31" transform="translate(139.56 754.63) rotate(-180)"></rect><rect class="cls-46" x="91.33" y="368.66" width="2.04" height="37" transform="translate(184.71 774.32) rotate(-180)"></rect><rect class="cls-42" x="112.32" y="368.66" width="2.04" height="37" transform="translate(226.68 774.32) rotate(-180)"></rect><rect class="cls-50" x="132.01" y="368.66" width="2.04" height="37" transform="translate(266.06 774.32) rotate(-180)"></rect><path class="cls-5" d="m20.08,375.32v1.3c.75-.16,1.51-.31,2.26-.45,63.62-12.49,135.92-4.2,135.92-4.2v-2.99c-76.6-7.23-118.13.5-135.92,5.67-.8.23-1.56.46-2.26.68Z"></path><polyline class="cls-45" points="158.26 410.37 158.26 380.55 20.1 380.55 20.1 391.05"></polyline></g><g><rect class="cls-38" x="150.34" y="341.91" width="23.39" height="2.99" transform="translate(324.08 686.81) rotate(-180)"></rect><polygon class="cls-47" points="181.14 328.45 174.81 343.95 149.26 343.95 142.93 328.45 181.14 328.45"></polygon><polygon class="cls-29" points="141.78 328.45 145.31 326.95 178.76 326.95 182.3 328.45 141.78 328.45"></polygon><polygon class="cls-41" points="173.19 316.98 177.27 326.95 146.81 326.95 150.89 316.98 173.19 316.98"></polygon><path class="cls-56" d="m162.04,313.36s6.49.24,11.62,3.62h-11.62s-11.62,0-11.62,0c5.13-3.38,11.62-3.62,11.62-3.62Z"></path><polygon class="cls-22" points="162.04 344.9 173.1 344.9 171.28 350.88 162.04 350.88 152.79 350.88 150.98 344.9 162.04 344.9"></polygon><polygon class="cls-51" points="155.07 399.44 169.01 399.44 170.06 350.88 154.02 350.88 155.07 399.44"></polygon></g><rect class="cls-12" x="307.97" y="367.92" width="34.26" height="2.99" transform="translate(650.21 738.83) rotate(-180)"></rect><polygon class="cls-24" points="351.84 354.46 342.98 369.96 307.23 369.96 298.37 354.46 351.84 354.46"></polygon><polygon class="cls-30" points="296.75 354.46 301.7 352.96 348.51 352.96 353.45 354.46 296.75 354.46"></polygon><polygon class="cls-37" points="340.7 342.99 346.41 352.96 303.79 352.96 309.5 342.99 340.7 342.99"></polygon><path class="cls-32" d="m325.1,340.25s9.51.18,17.03,2.74h-17.03s-17.03,0-17.03,0c7.52-2.56,17.03-2.74,17.03-2.74Z"></path><polygon class="cls-36" points="325.1 370.91 341.3 370.91 338.65 376.89 325.1 376.89 311.56 376.89 308.9 370.91 325.1 370.91"></polygon><polygon class="cls-35" points="314.57 399.44 335.63 399.44 337.23 376.89 312.98 376.89 314.57 399.44"></polygon><rect class="cls-14" x="168.12" y="373.24" width="42.24" height="26.2" transform="translate(378.48 772.67) rotate(-180)"></rect><rect class="cls-23" x="210.13" y="381.42" width="42.24" height="18.02" transform="translate(462.5 780.85) rotate(-180)"></rect><rect class="cls-6" x="248.13" y="375.3" width="42.24" height="24.14" transform="translate(538.5 774.74) rotate(-180)"></rect><rect class="cls-39" x="281.65" y="386.34" width="42.24" height="13.1" transform="translate(605.54 785.77) rotate(-180)"></rect><rect class="cls-21" x="168.12" y="361.09" width="42.24" height="7.02" transform="translate(378.48 729.2) rotate(-180)"></rect><rect class="cls-27" x="296.75" y="378.77" width="56.7" height="5.3" transform="translate(650.21 762.84) rotate(-180)"></rect><polygon class="cls-20" points="296.75 399.44 357.26 399.44 353.45 385.51 296.75 385.51 296.75 399.44"></polygon><rect class="cls-40" x="211.71" y="374.23" width="81.31" height="2.15" transform="translate(504.74 750.6) rotate(-180)"></rect></g></g></g></g></svg>