<svg xmlns="http://www.w3.org/2000/svg" xmlns:xlink="http://www.w3.org/1999/xlink" id="Floor" viewBox="0 0 496.02 410.51"><defs><style>.cls-1{fill:#3a0000;}.cls-2,.cls-3{fill:#fff;}.cls-3{opacity:.5;}.cls-4{opacity:.4;}.cls-5{clip-path:url(#clippath);}.cls-6{fill:none;}.cls-7{fill:#dee1e6;}.cls-8{fill:#b8bcc3;}.cls-9{fill:#606060;}.cls-10{fill:url(#linear-gradient);}</style><linearGradient id="linear-gradient" x1="364.06" y1="337.08" x2="-66.52" y2="998.25" gradientTransform="translate(0 -250.71)" gradientUnits="userSpaceOnUse"><stop offset="0" stop-color="#d21920"></stop><stop offset="1" stop-color="#000"></stop></linearGradient><clipPath id="clippath"><path class="cls-6" d="m56.64,365.72c-75.1-81.7-39.8-182.7,5.7-249,29.8-43.3,72.2-76.7,121.9-94,296.4-103,400.1,498.8,183.1,319.6-233.3-192.8-180.7,164.8-310.7,23.4Z"></path></clipPath></defs><path class="cls-10" d="m56.64,365.72c-75.1-81.7-39.8-182.7,5.7-249,29.8-43.3,72.2-76.7,121.9-94,296.4-103,400.1,498.8,183.1,319.6-233.3-192.8-180.7,164.8-310.7,23.4Z"></path><g class="cls-4"><polygon class="cls-2" points="137.03 140.18 142.93 140.18 144.25 141.02 146.78 141.02 148.11 143.67 151 143.67 153.4 148.73 158.82 151.14 161.23 151.14 163.52 154.39 161.47 158.97 160.27 166.91 156.65 166.91 155.57 168 155.57 170.41 151.36 178.12 149.49 178.96 147.87 183.66 148.95 184.74 148.05 186.73 149.49 188.72 151.6 189.38 151.42 190.52 147.38 190.52 144.49 187.75 142.75 181.97 140.76 177.88 141.3 174.38 140.52 171.61 140.16 163.12 136.67 160.47 131.49 152.66 132.3 151.38 131.97 149.21 134.14 147.28 134.78 144.47 133.82 142.59 137.03 140.18"></polygon><polygon class="cls-2" points="133.36 130.18 133.36 127.29 131.49 126.56 129.27 127.77 126.98 127.05 124.27 128.37 124.27 129.7 123.43 131.2 123.85 134.57 126.62 135 127.28 133.13 130.05 133.13 128.78 136.74 131.73 136.74 131.49 140.77 132.03 141.86 133.36 141.86 133.36 144.21 131.49 143.25 129.21 141.62 128.66 139.87 126.02 139.09 124.33 137.22 122.82 137.53 117.59 134.94 117.59 132.95 115.96 129.7 114.34 125.96 115 130.18 115.6 131.86 113.62 130.84 112.59 127.47 112.59 124.58 110.97 123.73 110.36 118.74 112.77 115.91 114.46 113.08 113.56 111.81 114.34 110 114.4 106.87 113.07 104.88 110.06 104.4 106.81 105.91 106.15 105.49 99.35 108.44 98.63 107.59 101.46 106.09 100.31 104.4 103.86 102.3 103.8 100.91 106.51 100.19 107.11 98.86 111.63 97.36 113.07 97.6 114.52 97.36 120.12 97.72 122.52 98.62 127.46 97.66 133 98.92 137.45 98.5 138.17 99.4 142.21 99.1 142.21 97.62 144.61 96.73 144.98 98.5 146.26 98.3 146.26 97 147.5 95.91 153.52 95.91 157.26 100.23 153 103.6 148.27 101.67 150.43 101.03 152.12 99.83 150.83 98.62 149.07 98.7 146.42 102.48 142.01 102.64 137.35 104.72 137.91 106.41 141.85 107.94 140.88 110.26 142.17 110.67 143.21 108.42 145.46 106.97 147.5 103.12 151 104.16 151.32 105.69 153.96 104.48 154.13 107.86 155.89 108.1 155.65 111.63 156.61 112.11 156.13 114.36 152.36 113.56 153 112.19 150.19 112.11 149.07 114.44 151 115.32 146.98 117.01 146.34 116.13 143.77 118.45 142.01 118.78 139.04 123.35 134.94 125.84 135.1 129.78 133.36 130.18"></polygon><polygon class="cls-2" points="131.29 132.31 133.1 131.54 135.06 131.92 137.91 133.79 137.27 134.72 135.71 134.15 134.6 132.91 133.1 132.67 131.29 133.31 131.29 132.31"></polygon><polygon class="cls-2" points="138.96 134.23 140.88 134.23 142.29 135.36 140.62 136.04 137.91 135.84 138.96 134.23"></polygon><polygon class="cls-2" points="157.66 93.08 160.79 93.08 164.96 91.31 178.28 90.51 183.74 91.39 180.61 92.68 179.97 95.33 177.88 96.45 177.56 98.38 174.35 99.59 172.34 99.59 170.34 101.11 168.17 101.11 164.16 105.05 162.87 104.16 161.11 102.72 161.19 99.5 163.11 98.7 162.23 96.94 162.39 95.17 160.23 94.45 158.22 94.77 157.66 93.08"></polygon><polygon class="cls-2" points="176.52 100.39 180.69 100.39 181.01 101.43 178.36 102.48 176.52 102.48 175.29 100.39 176.52 100.39"></polygon><polygon class="cls-2" points="218.41 158.2 217.05 160.77 215.12 161.25 215.12 164.06 214.24 165.35 214.64 168.24 216 168.8 217.13 168 219.54 160.85 218.41 158.2"></polygon><polygon class="cls-2" points="220.26 139.76 219.94 142.12 217.69 146.24 215.36 147.5 213.11 150.56 212.31 152.61 213.2 156.22 213.2 160.07 209.66 162.58 209.66 166.35 208.14 167.45 207.34 169.81 203.82 173.03 198.39 174.44 197.38 171.3 197.38 169.81 195.78 168.47 195.38 164.94 193.85 161.64 194.25 158.34 195.22 157.4 194.41 153.23 191.93 149.62 191.93 145.77 190.08 145.22 188.8 143.89 185.27 145.22 183.02 144.59 181.01 145.38 177.32 142.87 174.51 138 175.31 135.8 175.23 132.03 177 128.65 178.84 127.24 180.61 124.64 183.02 122.52 185.02 122.52 186.63 121.82 193.37 121.27 193.37 123.62 195.78 124.49 198.39 126.06 199.55 124.41 203.4 125.59 206.94 125.35 208.14 128.96 210.31 132.18 210.87 134.46 212.23 137.13 215.36 140.59 220.26 139.76"></polygon><polygon class="cls-2" points="194.58 115.36 195.42 117.23 197.77 118.8 196.5 120.78 196.17 121.93 194.09 120.54 195.93 120.12 195.93 119.1 193.67 118.13 192.29 115.97 190.6 117.11 188.98 116.51 188.32 118.65 186.57 119.7 185.67 121.27 182.84 121.93 181.01 121.27 180.37 119.46 181.99 116.63 186.09 116.51 186.15 115 183.74 112.89 186.09 111.75 187.71 111.75 189.76 109.58 191.63 108.8 191.51 106.87 192.95 106.51 192.65 108.56 194.39 108.56 198.07 108.56 199.03 106.51 200.41 105.79 198.85 104.28 198.39 102.96 200.41 101.43 198.91 100.85 196.74 103.2 197.71 105.05 196.56 105.79 196.5 107.11 194.09 107.84 193.97 106.39 193.13 105.05 191.02 106.03 189.7 103.56 193.69 101.43 196.5 97.78 200.41 97.34 208.22 99.67 210.15 98.86 211.27 99.67 213.92 98.7 215.68 98.78 218.57 98.14 220.26 96.45 222.02 96.45 226.47 95.91 233.7 93.56 239.96 95.91 245.98 95.91 250.8 97.78 253.44 95.91 259.22 96.94 263.2 97.78 264.52 98.62 272.1 97.78 282.58 100.39 282.58 102.11 279.15 101.21 278.48 101.93 280.11 102.78 278.79 103.56 277.7 105.01 276.26 104.88 275.23 105.31 277.28 108.14 276.74 111.15 274.21 109.58 271.74 106.51 272.65 104.52 269.88 103.56 269.7 105.61 263.68 105.19 262.89 107.75 264.16 108.68 267.11 108.68 269.82 111.81 270.6 111.99 271.32 114.64 270.18 114.88 268.79 112.89 267.59 117.29 266.27 117.47 265.06 119.4 267.47 122.53 265.42 123.79 262.77 119.76 260.25 119.16 260.19 121.27 262.53 121.27 261.75 122.35 263.98 126.2 263.38 130.06 260.37 132.71 257.96 134.09 256.45 133.13 255.31 134.82 257.72 137.83 258.2 140.18 255.61 143.01 253.2 139.75 252.18 139.81 251.7 141.98 254.35 144.69 255.25 147.88 253.14 147.1 250.92 143.13 250.8 139.27 249.77 137.28 248.45 137.47 247.12 134.63 245.44 132.41 243.21 133.07 239.3 137.65 239.06 141.14 237.43 143.19 235.09 138.85 233.52 136.02 233.58 133.61 232.2 133.55 229.25 130.24 225.45 130.66 223.29 129.88 222.81 128.97 221.6 129.27 218.95 128.19 218.17 126.56 216.79 126.87 218.53 128.97 219.68 130.66 221.18 130.84 222.51 130.12 225.09 132.41 224.19 134.94 220.26 137.47 215.82 139.63 211.91 133.91 211.19 131.74 208.12 126.26 208.72 121.99 207.16 122.17 205.83 121.75 204.45 122.11 202.52 120.72 202.52 118.86 201.5 118.5 201.02 121.75 199.39 120.72 198.39 117.95 194.58 115.36"></polygon><polygon class="cls-2" points="270.78 115.6 270.78 117.35 272.22 120.36 270.27 122.26 269.4 122.26 267.71 124.31 269.49 126.14 270.54 124.52 271.68 124.49 272.71 123.55 274.33 123.19 274.03 120.45 272.89 117.98 274.33 116.57 272.56 115.6 270.78 115.6"></polygon><polygon class="cls-2" points="267.71 139.93 265.54 139.09 264.34 138.01 264.34 135 266.51 135 266.45 136.44 266.02 138.13 267.71 138.67 267.71 139.93"></polygon><polygon class="cls-2" points="263.56 143.97 265.18 145.05 264.37 146.68 265.18 148.12 262.83 152.04 259.34 151.68 258.14 148 261.21 146.14 263.56 143.97"></polygon><polygon class="cls-2" points="269.09 147.88 266.33 148 265.18 153.25 267.71 153.25 267.14 150.57 269.09 147.88"></polygon><polygon class="cls-2" points="262.77 155.47 258.38 155.47 254.11 153.25 249.11 144.99 251.82 146.2 255.61 149.63 256.51 153.25 258.14 154.15 260.25 153.79 262.77 155.47"></polygon><polygon class="cls-2" points="272.75 149.49 274.55 148.97 275.48 151.02 277.12 150.23 282.02 151.78 284.18 153.99 284.18 155.31 285.87 156.8 283.42 157.12 281.78 154.99 279.77 156.19 277.08 155.47 277.12 153.87 274.79 152.3 272.75 149.49"></polygon><polygon class="cls-2" points="279.89 157.72 278.12 162.22 275.56 160.69 275.96 158.52 273.23 157.72 270.66 159.97 269.54 159.25 266.02 161.74 265.18 163.18 260.23 165.19 259.02 168.64 259.58 173.14 258.14 174.5 259.66 175.79 263.92 174.66 269.09 172.82 271.3 174.98 273.39 177.79 276.04 178.44 278.93 177.39 281.57 174.34 283.9 172.74 285.87 168.48 283.42 165.51 281.9 163.1 281.49 160.21 279.89 157.72"></polygon><polygon class="cls-2" points="294.66 174.98 294.18 177.63 291.85 179.4 285.03 183.5 286.55 184.22 292.89 180.2 297.14 177.79 295.94 176.83 294.66 174.98"></polygon><polygon class="cls-2" points="185.95 105.89 186.43 107.9 187.95 109.78 186.39 111.19 184.18 111.39 185.02 108.64 183.74 106.69 184.78 105.33 185.95 105.89"></polygon><polygon class="cls-2" points="184.02 108.36 182.06 108.36 181.01 110.83 183.42 110.3 184.02 108.36"></polygon></g><g><g><g><path class="cls-2" d="m185.31,102.77l43.25-1.1c11.22-.28,22.2-3.36,31.93-8.94l.12-2.22-65.88,1.67c-3.41.09-6.71,1.24-9.43,3.29-.2.15-.41.27-.63.37l-2.15.97c-1.16.52-1.74,1.82-1.35,3.03.58,1.79,2.26,2.98,4.14,2.93Z"></path><path d="m185.2,103.15c-1.99,0-3.78-1.3-4.39-3.2-.45-1.39.22-2.89,1.55-3.49l2.15-.97c.2-.09.38-.2.56-.33,2.8-2.11,6.14-3.27,9.65-3.36l65.88-1.67c.11,0,.21.04.28.11.07.08.11.18.11.28l-.12,2.22c0,.13-.08.24-.19.31-9.76,5.6-20.87,8.7-32.11,8.99l-43.25,1.09s-.08,0-.11,0Zm75.01-12.25l-65.47,1.66c-3.35.08-6.54,1.19-9.21,3.21-.22.16-.45.3-.7.41l-2.15.97c-.98.44-1.47,1.55-1.14,2.57.52,1.62,2.08,2.71,3.77,2.67l43.25-1.09c11.05-.28,21.97-3.32,31.58-8.79l.09-1.61Z"></path></g><g><path class="cls-2" d="m240.45,91.02l15.35-.39,2.64-15.9-3.17.08-5.37,8.47c-2.24,3.53-5.55,6.24-9.45,7.74Z"></path><path d="m240.45,91.4c-.18,0-.34-.13-.37-.3-.04-.18.06-.36.24-.43,3.8-1.46,7.09-4.15,9.26-7.59l5.37-8.47c.07-.11.18-.17.31-.18l3.17-.08c.11,0,.22.04.29.13.07.09.11.2.09.31l-2.64,15.9c-.03.18-.18.31-.36.32l-15.35.39s0,0,0,0Zm15.03-16.22l-5.26,8.3c-1.92,3.03-4.67,5.5-7.87,7.11l13.13-.33,2.52-15.14-2.51.06Z"></path></g><g><polygon class="cls-2" points="247.5 92.93 255.47 92.73 259.96 89.61 257.62 89.67 247.5 92.93"></polygon><path d="m247.5,93.31c-.18,0-.34-.13-.37-.31-.03-.19.08-.37.26-.42l10.12-3.26s.07-.02.11-.02l2.34-.06s0,0,0,0c.16,0,.31.1.36.26.05.16,0,.33-.14.43l-4.49,3.12c-.06.04-.13.07-.21.07l-7.97.2s0,0,0,0Zm10.19-3.26l-7.57,2.44,5.23-.13,3.36-2.33-1.02.03Z"></path></g><g><path class="cls-2" d="m215.34,103.25l12.33-.31c.62-.02,1.11-.53,1.09-1.15-.02-.62-.53-1.11-1.15-1.09l-12.33.31.06,2.24Z"></path><path d="m215.34,103.63c-.2,0-.37-.16-.38-.37l-.06-2.24c0-.21.16-.38.37-.39l12.33-.31s.03,0,.04,0c.81,0,1.48.65,1.5,1.46.02.83-.64,1.52-1.46,1.54l-12.33.31s0,0,0,0Zm.33-2.25l.04,1.49,11.95-.3c.41-.01.74-.35.73-.76-.01-.4-.34-.73-.74-.73,0,0-.01,0-.02,0l-11.95.3Z"></path></g><g><polygon class="cls-2" points="209 106.93 217.33 106.72 221.1 105.56 221.01 102.04 217.04 101.07 208.86 101.28 209 106.93"></polygon><path d="m209,107.31c-.2,0-.37-.16-.38-.37l-.14-5.65c0-.1.04-.2.1-.27.07-.07.16-.11.26-.12l8.18-.21s.07,0,.1.01l3.97.97c.17.04.28.19.29.36l.09,3.52c0,.17-.1.32-.27.37l-3.77,1.16s-.07.02-.1.02l-8.33.21s0,0,0,0Zm.24-5.66l.12,4.9,7.9-.2,3.44-1.06-.07-2.95-3.64-.89-7.75.2Z"></path></g><g><polygon class="cls-2" points="226.47 100.72 209.42 101.21 206.44 98.46 231.69 89.65 234.91 89.5 224.11 97.78 226.47 100.72"></polygon><path d="m209.42,101.59c-.09,0-.19-.04-.26-.1l-2.98-2.75c-.1-.09-.14-.22-.11-.35.03-.13.12-.24.25-.28l25.25-8.8s.07-.02.11-.02l3.22-.16c.17,0,.32.09.37.25.06.16,0,.33-.12.43l-10.5,8.05,2.12,2.64c.09.11.11.26.05.4-.06.13-.19.22-.33.22l-17.05.49s0,0-.01,0Zm-2.26-2.98l2.41,2.22,16.13-.46-1.89-2.35c-.06-.08-.09-.18-.08-.28s.06-.19.15-.25l9.84-7.54-1.95.1-24.61,8.58Z"></path></g><polygon points="183.57 96.33 191.43 96.13 191.08 94.37 186.89 94.48 183.57 96.33"></polygon></g><g><path class="cls-3" d="m149.68,228.12c-.21,0-.38-.17-.38-.38V69.6c0-.21.17-.38.38-.38s.38.17.38.38v158.14c0,.21-.17.38-.38.38Z"></path><path class="cls-3" d="m198.57,228.12c-.21,0-.38-.17-.38-.38V69.6c0-.21.17-.38.38-.38s.38.17.38.38v158.14c0,.21-.17.38-.38.38Z"></path><path class="cls-2" d="m251.54,228.12c-.21,0-.38-.17-.38-.38V69.6c0-.21.17-.38.38-.38s.38.17.38.38v158.14c0,.21-.17.38-.38.38Z"></path><path class="cls-3" d="m300.43,228.12c-.21,0-.38-.17-.38-.38V69.6c0-.21.17-.38.38-.38s.38.17.38.38v158.14c0,.21-.17.38-.38.38Z"></path><path class="cls-3" d="m402.12,145.33H89.22c-.21,0-.38-.17-.38-.38s.17-.38.38-.38h312.9c.21,0,.38.17.38.38s-.17.38-.38.38Z"></path><path class="cls-3" d="m348.67,228.12c-.21,0-.38-.17-.38-.38V69.6c0-.21.17-.38.38-.38s.38.17.38.38v158.14c0,.21-.17.38-.38.38Z"></path></g><g><g><path class="cls-2" d="m226.82,191.62l-76.03,9.28c-19.73,2.41-39.74-.13-58.25-7.39l-.79-3.86,115.82-14.13c5.99-.73,12.07.43,17.37,3.31.38.21.78.37,1.2.49l4.02,1.14c2.16.61,3.51,2.75,3.15,4.96-.55,3.28-3.19,5.81-6.49,6.21Z"></path><path d="m136.35,202.16c-14.99,0-29.96-2.8-43.95-8.29-.12-.05-.21-.15-.23-.28l-.79-3.86c-.02-.1,0-.21.06-.3s.16-.14.26-.15l115.82-14.13c6.11-.74,12.19.41,17.6,3.36.35.19.73.35,1.12.46l4.02,1.14c2.35.66,3.82,2.98,3.42,5.38-.57,3.42-3.37,6.1-6.81,6.52l-.05-.38.05.38-76.03,9.28c-4.81.59-9.65.88-14.48.88Zm-43.48-8.92c18.33,7.15,38.34,9.67,57.87,7.29l76.03-9.28c3.11-.38,5.64-2.8,6.16-5.9.34-2.03-.9-3.97-2.88-4.53l-4.02-1.14c-.44-.13-.87-.3-1.27-.52-5.27-2.86-11.19-4-17.14-3.27l-115.41,14.08.66,3.26Z"></path></g><g><path class="cls-2" d="m127.2,185.33l-26.98,3.29-8.75-27.17,5.57-.68,11.6,13.45c4.83,5.6,11.33,9.49,18.55,11.11Z"></path><path d="m100.22,189c-.16,0-.31-.1-.36-.26l-8.75-27.17c-.03-.11-.02-.22.04-.32.06-.1.16-.16.27-.17l5.57-.68c.12-.01.25.03.33.13l11.6,13.45c4.74,5.5,11.26,9.4,18.35,10.98.18.04.3.2.3.39,0,.18-.15.33-.33.36l-26.98,3.29s-.03,0-.05,0Zm-8.25-27.23l8.51,26.44,24.67-3.01c-6.48-1.86-12.38-5.62-16.79-10.73l-11.47-13.3-4.92.6Z"></path></g><g><polygon class="cls-2" points="115.35 190.5 101.34 192.21 92.67 187.91 96.78 187.41 115.35 190.5"></polygon><path d="m101.34,192.59c-.06,0-.12-.01-.17-.04l-8.67-4.3c-.15-.07-.23-.24-.2-.4.03-.16.16-.29.33-.31l4.11-.5s.07,0,.11,0l18.57,3.09c.19.03.32.19.32.38s-.15.34-.33.37l-14.01,1.71s-.03,0-.05,0Zm-7.37-4.45l7.44,3.69,11.29-1.38-15.93-2.65-2.8.34Z"></path></g><g><path d="m206.74,182.63c.08.63-.24,1.19-.7,1.25s-.9-.41-.98-1.04.24-1.19.7-1.25c.46-.06.9.41.98,1.04Z"></path><path d="m204.06,182.95c.08.63-.24,1.19-.7,1.25s-.9-.41-.98-1.04c-.08-.63.24-1.19.7-1.25.46-.06.9.41.98,1.04Z"></path><path d="m201.38,183.28c.08.63-.24,1.19-.7,1.25s-.9-.41-.98-1.04c-.08-.63.24-1.19.7-1.25.46-.06.9.41.98,1.04Z"></path><path d="m198.71,183.61c.08.63-.24,1.19-.7,1.25s-.9-.41-.98-1.04c-.08-.63.24-1.19.7-1.25.46-.06.9.41.98,1.04Z"></path><path d="m196.03,183.93c.08.63-.24,1.19-.7,1.25s-.9-.41-.98-1.04c-.08-.63.24-1.19.7-1.25.46-.06.9.41.98,1.04Z"></path><path d="m193.36,184.26c.08.63-.24,1.19-.7,1.25s-.9-.41-.98-1.04c-.08-.63.24-1.19.7-1.25.46-.06.9.41.98,1.04Z"></path><path d="m190.68,184.59c.08.63-.24,1.19-.7,1.25s-.9-.41-.98-1.04c-.08-.63.24-1.19.7-1.25.46-.06.9.41.98,1.04Z"></path><path d="m188.01,184.91c.08.63-.24,1.19-.7,1.25s-.9-.41-.98-1.04c-.08-.63.24-1.19.7-1.25.46-.06.9.41.98,1.04Z"></path><ellipse cx="184.48" cy="185.34" rx=".85" ry="1.16" transform="translate(-21.09 23.71) rotate(-6.96)"></ellipse><ellipse cx="181.8" cy="185.67" rx=".85" ry="1.16" transform="translate(-21.15 23.38) rotate(-6.96)"></ellipse><path d="m179.98,185.89c.08.63-.24,1.19-.7,1.25s-.9-.41-.98-1.04c-.08-.63.24-1.19.7-1.25.46-.06.9.41.98,1.04Z"></path><path d="m177.3,186.22c.08.63-.24,1.19-.7,1.25-.46.06-.9-.41-.98-1.04s.24-1.19.7-1.25c.46-.06.9.41.98,1.04Z"></path><path d="m174.63,186.55c.08.63-.24,1.19-.7,1.25-.46.06-.9-.41-.98-1.04s.24-1.19.7-1.25c.46-.06.9.41.98,1.04Z"></path><path d="m171.95,186.87c.08.63-.24,1.19-.7,1.25s-.9-.41-.98-1.04c-.08-.63.24-1.19.7-1.25.46-.06.9.41.98,1.04Z"></path><path d="m169.27,187.2c.08.63-.24,1.19-.7,1.25-.46.06-.9-.41-.98-1.04-.08-.63.24-1.19.7-1.25.46-.06.9.41.98,1.04Z"></path><path d="m166.6,187.53c.08.63-.24,1.19-.7,1.25-.46.06-.9-.41-.98-1.04-.08-.63.24-1.19.7-1.25.46-.06.9.41.98,1.04Z"></path><path d="m163.92,187.85c.08.63-.24,1.19-.7,1.25-.46.06-.9-.41-.98-1.04-.08-.63.24-1.19.7-1.25.46-.06.9.41.98,1.04Z"></path><path d="m161.25,188.18c.08.63-.24,1.19-.7,1.25-.46.06-.9-.41-.98-1.04-.08-.63.24-1.19.7-1.25.46-.06.9.41.98,1.04Z"></path><path d="m158.57,188.51c.08.63-.24,1.19-.7,1.25-.46.06-.9-.41-.98-1.04-.08-.63.24-1.19.7-1.25s.9.41.98,1.04Z"></path><ellipse cx="155.04" cy="188.93" rx=".85" ry="1.16" transform="translate(-21.74 20.17) rotate(-6.96)"></ellipse><path d="m153.22,189.16c.08.63-.24,1.19-.7,1.25-.46.06-.9-.41-.98-1.04-.08-.63.24-1.19.7-1.25.46-.06.9.41.98,1.04Z"></path><path d="m150.54,189.49c.08.63-.24,1.19-.7,1.25-.46.06-.9-.41-.98-1.04-.08-.63.24-1.19.7-1.25.46-.06.9.41.98,1.04Z"></path><path d="m147.87,189.81c.08.63-.24,1.19-.7,1.25-.46.06-.9-.41-.98-1.04-.08-.63.24-1.19.7-1.25.46-.06.9.41.98,1.04Z"></path><path d="m145.19,190.14c.08.63-.24,1.19-.7,1.25-.46.06-.9-.41-.98-1.04-.08-.63.24-1.19.7-1.25s.9.41.98,1.04Z"></path><path d="m142.52,190.46c.08.63-.24,1.19-.7,1.25-.46.06-.9-.41-.98-1.04s.24-1.19.7-1.25c.46-.06.9.41.98,1.04Z"></path><path d="m139.84,190.79c.08.63-.24,1.19-.7,1.25-.46.06-.9-.41-.98-1.04s.24-1.19.7-1.25c.46-.06.9.41.98,1.04Z"></path><path d="m137.17,191.12c.08.63-.24,1.19-.7,1.25-.46.06-.9-.41-.98-1.04s.24-1.19.7-1.25c.46-.06.9.41.98,1.04Z"></path><path d="m134.49,191.44c.08.63-.24,1.19-.7,1.25-.46.06-.9-.41-.98-1.04-.08-.63.24-1.19.7-1.25.46-.06.9.41.98,1.04Z"></path><path d="m131.81,191.77c.08.63-.24,1.19-.7,1.25-.46.06-.9-.41-.98-1.04s.24-1.19.7-1.25c.46-.06.9.41.98,1.04Z"></path><path d="m129.14,192.1c.08.63-.24,1.19-.7,1.25-.46.06-.9-.41-.98-1.04-.08-.63.24-1.19.7-1.25.46-.06.9.41.98,1.04Z"></path><path d="m126.46,192.42c.08.63-.24,1.19-.7,1.25-.46.06-.9-.41-.98-1.04-.08-.63.24-1.19.7-1.25.46-.06.9.41.98,1.04Z"></path></g><g><path class="cls-2" d="m174.33,200.24l-21.67,2.65c-1.09.13-2.08-.64-2.21-1.73-.13-1.09.64-2.08,1.73-2.21l21.67-2.65.48,3.95Z"></path><path d="m152.42,203.28c-1.18,0-2.2-.88-2.35-2.08-.08-.63.1-1.25.49-1.74.39-.5.95-.81,1.58-.89l21.67-2.65c.21-.02.4.12.42.33l.48,3.95c.01.1-.02.2-.08.28-.06.08-.15.13-.25.14l-21.67,2.65c-.1.01-.19.02-.29.02Zm21.11-6.56l-21.3,2.6c-.43.05-.81.27-1.07.61s-.38.76-.33,1.19c.11.88.91,1.51,1.79,1.4l21.3-2.6-.39-3.2Z"></path></g><g><polygon class="cls-2" points="186.39 205.05 171.75 206.84 164.85 205.78 164.09 199.59 170.8 196.87 185.18 195.12 186.39 205.05"></polygon><path d="m171.75,207.22s-.04,0-.06,0l-6.9-1.06c-.17-.03-.3-.16-.32-.33l-.76-6.19c-.02-.17.07-.33.23-.4l6.7-2.72s.06-.02.1-.02l14.38-1.76c.21-.03.4.12.42.33l1.21,9.94c.01.1-.02.2-.08.28-.06.08-.15.13-.25.14l-14.65,1.79s-.03,0-.05,0Zm-6.56-1.77l6.57,1.01,14.22-1.74-1.12-9.19-13.96,1.7-6.39,2.59.69,5.62Z"></path></g><g><polygon class="cls-2" points="154.2 198.69 184.18 195.14 188.69 189.54 142.18 180.66 136.5 181.22 157.57 192.93 154.2 198.69"></polygon><path d="m154.2,199.07c-.13,0-.25-.06-.32-.17-.08-.12-.08-.27,0-.4l3.18-5.43-20.73-11.52c-.14-.08-.22-.25-.19-.41.03-.16.17-.28.33-.3l5.68-.56s.07,0,.11,0l46.51,8.88c.13.02.24.12.28.24.05.12.02.26-.06.37l-4.51,5.59c-.06.08-.15.13-.25.14l-29.98,3.56s-.03,0-.04,0Zm-16.45-17.59l20.01,11.12c.09.05.15.13.18.23.03.1.01.2-.04.29l-2.99,5.11,29.08-3.45,4.02-4.98-45.84-8.75-4.42.43Z"></path></g><polygon points="228.19 179.9 214.38 181.58 214.53 178.41 221.9 177.51 228.19 179.9"></polygon></g></g><g><g><g><circle class="cls-2" cx="327.57" cy="160.01" r="74.55"></circle><path d="m327.57,234.94c-41.32,0-74.93-33.61-74.93-74.93s33.61-74.93,74.93-74.93,74.93,33.61,74.93,74.93-33.61,74.93-74.93,74.93Zm0-149.11c-40.9,0-74.18,33.28-74.18,74.18s33.28,74.18,74.18,74.18,74.18-33.28,74.18-74.18-33.28-74.18-74.18-74.18Z"></path></g><path d="m327.57,212.75c-29.08,0-52.75-23.66-52.75-52.75s23.66-52.75,52.75-52.75,52.75,23.66,52.75,52.75-23.66,52.75-52.75,52.75Zm0-104.74c-28.67,0-51.99,23.32-51.99,51.99s23.32,51.99,51.99,51.99,51.99-23.32,51.99-51.99-23.32-51.99-51.99-51.99Z"></path><path d="m327.57,193.56c-18.5,0-33.55-15.05-33.55-33.55s15.05-33.55,33.55-33.55,33.55,15.05,33.55,33.55-15.05,33.55-33.55,33.55Zm0-66.34c-18.08,0-32.79,14.71-32.79,32.79s14.71,32.79,32.79,32.79,32.79-14.71,32.79-32.79-14.71-32.79-32.79-32.79Z"></path><path d="m327.57,176.76c-9.23,0-16.75-7.51-16.75-16.75s7.51-16.75,16.75-16.75,16.75,7.51,16.75,16.75-7.51,16.75-16.75,16.75Zm0-32.74c-8.82,0-15.99,7.17-15.99,15.99s7.17,15.99,15.99,15.99,15.99-7.17,15.99-15.99-7.17-15.99-15.99-15.99Z"></path></g><g><polygon points="266.36 183.65 263.17 176.47 266.84 173.85 267.41 182.9 266.36 183.65"></polygon><polygon points="257.04 170.61 262.8 175.95 266.47 173.33 258.1 169.85 257.04 170.61"></polygon><polygon points="256.38 153.41 273.32 168.44 280.56 163.27 257.94 152.29 256.38 153.41"></polygon><polygon points="282.44 189.9 273.72 169 280.96 163.82 284.01 188.78 282.44 189.9"></polygon><path d="m261.26,177.48c1.58-2.11,3.49-4,5.65-5.59l16.8-12.4c.65-.48,1.41-.8,2.16-.89l.69-.09c.72-.1,1.18.55.86,1.2l-.31.62c-.34.68-.88,1.29-1.55,1.75l-17.18,11.87c-2.21,1.53-4.62,2.72-7.12,3.53Z"></path><path d="m261.26,177.86c-.12,0-.24-.06-.31-.16-.1-.13-.09-.31,0-.45,1.61-2.14,3.54-4.05,5.73-5.67l16.8-12.4c.71-.52,1.51-.86,2.33-.97l.69-.09c.48-.06.92.11,1.18.48.26.36.28.84.07,1.27l-.31.62c-.37.74-.95,1.39-1.67,1.89l-17.18,11.87c-2.24,1.55-4.67,2.76-7.22,3.58-.04.01-.08.02-.12.02Zm25.44-18.99s-.06,0-.09,0l-.69.09c-.69.09-1.38.38-1.98.82l-16.8,12.4c-1.78,1.31-3.38,2.82-4.77,4.5,2.03-.77,3.98-1.8,5.8-3.06l17.18-11.87c.61-.42,1.12-.99,1.42-1.61l.31-.62c.09-.18.09-.36,0-.49-.08-.11-.21-.17-.37-.17Z"></path><path d="m262.72,176.85c-1.72,1.23-3.21,2.1-3.32,1.95-.11-.15,1.2-1.27,2.92-2.5,1.72-1.23,3.21-2.1,3.32-1.95.11.15-1.2,1.27-2.92,2.5Z"></path><path d="m286.03,159.79c.26.37.37.8.33,1.21.39-.49.47-1.12.16-1.56-.31-.44-.94-.56-1.53-.36.41.1.78.34,1.04.71Z"></path></g><g><polygon points="389.31 193.53 382.63 197.66 379.53 194.39 388.42 192.58 389.31 193.53"></polygon><polygon points="377.66 204.54 382.16 198.1 379.07 194.83 376.77 203.6 377.66 204.54"></polygon><polygon points="360.71 207.55 373.28 188.71 367.17 182.25 359.39 206.15 360.71 207.55"></polygon><polygon points="393.3 176.74 373.78 188.24 367.67 181.77 391.97 175.34 393.3 176.74"></polygon><path d="m383.89,199.42c-2.3-1.28-4.44-2.91-6.31-4.83l-14.58-14.94c-.57-.58-.98-1.29-1.18-2.02l-.19-.67c-.19-.7.38-1.25,1.07-1.02l.66.22c.72.24,1.4.69,1.95,1.29l14.1,15.39c1.81,1.98,3.33,4.2,4.47,6.57Z"></path><path d="m383.89,199.8c-.06,0-.13-.02-.18-.05-2.34-1.3-4.5-2.95-6.4-4.9l-14.58-14.94c-.61-.63-1.06-1.38-1.28-2.18l-.19-.67c-.13-.47-.01-.93.31-1.23.32-.31.79-.39,1.25-.24l.66.22c.78.26,1.51.75,2.1,1.4l14.1,15.39c1.84,2.01,3.37,4.25,4.54,6.66.07.15.04.33-.08.44-.07.07-.17.1-.26.1Zm-21.51-23.54c-.11,0-.21.04-.29.11-.12.11-.15.29-.1.48l.19.67c.19.67.56,1.31,1.09,1.85l14.58,14.94c1.55,1.58,3.26,2.96,5.11,4.11-1.04-1.91-2.32-3.7-3.82-5.33l-14.1-15.39c-.51-.56-1.13-.97-1.79-1.19l-.66-.22c-.07-.02-.14-.03-.2-.03Z"></path><path d="m383.06,198.06c1.45,1.54,2.52,2.89,2.38,3.02-.14.13-1.43-1.01-2.88-2.55s-2.52-2.89-2.38-3.02c.14-.13,1.43,1.01,2.88,2.55Z"></path><path d="m362.99,177.3c.33-.31.74-.47,1.16-.49-.54-.32-1.18-.32-1.57.06s-.43,1-.14,1.56c.04-.41.23-.82.56-1.13Z"></path></g><g><polygon points="348.58 153.67 345.39 146.49 349.06 143.87 349.64 152.91 348.58 153.67"></polygon><polygon points="339.26 140.62 345.02 145.96 348.69 143.34 340.32 139.87 339.26 140.62"></polygon><polygon points="338.6 123.42 355.54 138.45 362.78 133.28 340.16 122.3 338.6 123.42"></polygon><polygon points="364.66 159.91 355.94 139.01 363.18 133.84 366.23 158.79 364.66 159.91"></polygon><path d="m343.48,147.5c1.58-2.11,3.49-4,5.65-5.59l16.8-12.4c.65-.48,1.41-.8,2.16-.89l.69-.09c.72-.1,1.18.55.86,1.2l-.31.62c-.34.68-.88,1.29-1.55,1.75l-17.18,11.87c-2.21,1.53-4.62,2.72-7.12,3.53Z"></path><path d="m343.48,147.87c-.12,0-.24-.06-.31-.16-.1-.13-.09-.31,0-.45,1.61-2.14,3.54-4.05,5.73-5.67l16.8-12.4c.71-.52,1.51-.86,2.33-.97l.69-.09c.48-.06.92.11,1.18.47.26.36.28.84.07,1.27l-.31.62c-.37.74-.95,1.39-1.67,1.89l-17.18,11.87c-2.24,1.55-4.67,2.75-7.22,3.58-.04.01-.08.02-.12.02Zm25.44-18.99s-.06,0-.09,0l-.69.09c-.69.09-1.38.38-1.98.82l-16.8,12.4c-1.78,1.32-3.38,2.82-4.77,4.5,2.03-.77,3.98-1.8,5.8-3.06l17.18-11.87c.62-.43,1.11-.98,1.42-1.61l.31-.62c.09-.18.09-.36,0-.49-.08-.11-.21-.17-.37-.17Z"></path><path d="m344.94,146.86c-1.72,1.23-3.21,2.1-3.32,1.95-.11-.15,1.2-1.27,2.92-2.5,1.72-1.23,3.21-2.1,3.32-1.95.11.15-1.2,1.27-2.92,2.5Z"></path><path d="m368.25,129.81c.26.37.37.8.33,1.21.39-.49.47-1.12.16-1.56-.31-.44-.94-.56-1.53-.36.41.1.78.34,1.04.71Z"></path></g><g><path d="m327.57,160.39c-.21,0-.38-.17-.38-.38v-67.94c0-.21.17-.38.38-.38s.38.17.38.38v67.94c0,.21-.17.38-.38.38Z"></path><path d="m305.72,96.04c-.16,0-.3-.1-.36-.26-.07-.2.04-.41.24-.48,7.05-2.4,14.45-3.61,21.97-3.61.21,0,.38.17.38.38s-.17.38-.38.38c-7.44,0-14.75,1.2-21.72,3.57-.04.01-.08.02-.12.02Z"></path><path d="m311.2,116.76c-.15,0-.3-.09-.35-.25-.07-.2.03-.41.22-.49,5.27-1.96,10.82-2.96,16.5-2.96.21,0,.38.17.38.38s-.17.38-.38.38c-5.59,0-11.05.98-16.24,2.91-.04.02-.09.02-.13.02Z"></path><path d="m314.91,136.32c-.14,0-.27-.07-.33-.2-.1-.18-.03-.41.16-.51,3.93-2.07,8.37-3.17,12.84-3.17.21,0,.38.17.38.38s-.17.38-.38.38c-4.35,0-8.66,1.06-12.48,3.08-.06.03-.12.04-.18.04Z"></path></g></g><g class="cls-5"><g><g><g><g><path class="cls-7" d="m89.89,349.83l-21.92-28.01h24.15l10.11,11.84c3.89,4.56,9.58,7.18,15.58,7.18h17.36s0,16.85,0,16.85h-29.14c-6.3,0-12.25-2.89-16.13-7.85Z"></path><path class="cls-7" d="m166.27,348.89l-.63,1.28-6.32-.4-5.01-5.59h-41.02v-3.23h14.42c2.08,0,7.82-3.35,12.51-3.35h8.53c2.74,0,5.44.63,7.89,1.84l7.69,3.79c2.09,1.03,2.95,3.56,1.93,5.66Z"></path><path class="cls-7" d="m158.72,352.57l7.06,3.45c1.5.74,3.33.12,4.06-1.39v-.03c.9-1.82.15-4.02-1.67-4.91l-8.19-4.04c-2.45-1.21-5.15-1.84-7.89-1.84h-38.79v11.85h28.89l2.96-2.82c1.97-1.88,4.71-2.74,7.39-2.29,1.76.3,3.89.89,6.18,2.01Z"></path><path class="cls-7" d="m145.41,352.49c.64.11,1.34.17,2.1.17.28.03,1.47.02,5.62.01,2.08,0,3.77,1.68,3.77,3.76v.05c0,2.07-1.68,3.76-3.75,3.76h-15.75c-11.03,0-10.53-8.39-10.53-8.39v-4.24h3.52c7.93,0,9.8,4,15.02,4.88Z"></path></g><g><path d="m167.12,356.61c-.5,0-1-.11-1.46-.34l-7.06-3.45c-1.96-.96-4.02-1.63-6.1-1.98-2.56-.44-4.89.21-6.76,1.86-.11.1-.29.09-.39-.02-.1-.11-.09-.29.02-.39,1.97-1.74,4.53-2.45,7.22-1.99,2.14.36,4.24,1.05,6.25,2.03l7.06,3.45c.66.33,1.41.38,2.11.14.7-.24,1.26-.74,1.58-1.4v-.02c.83-1.68.13-3.72-1.54-4.54l-8.19-4.04c-2.4-1.19-5.09-1.81-7.77-1.81h-3.02c-.15,0-.28-.12-.28-.28s.12-.28.28-.28h3.02c2.76,0,5.53.65,8.01,1.87l8.19,4.04c1.94.96,2.75,3.33,1.8,5.28v.02c-.4.8-1.08,1.39-1.91,1.68-.35.12-.71.18-1.07.18Z"></path><path d="m153.04,360.51h-14.54c-4.37,0-7.36-.8-9.4-2.5h-23.08c-6.31,0-12.42-2.99-16.34-8l-21.92-28.01c-.06-.08-.08-.2-.03-.29.05-.09.14-.15.25-.15h24.15c.08,0,.16.04.21.1l10.11,11.84c3.91,4.58,9.51,7.21,15.36,7.21h9.92c.78-.01,2.2-.55,3.85-1.17,2.58-.98,5.8-2.19,8.66-2.19h8.53c2.76,0,5.53.65,8.01,1.87l7.69,3.79c2.2,1.09,3.12,3.68,2.1,5.92-.06.14-.23.2-.36.14-.14-.06-.2-.23-.14-.36.9-1.96.09-4.24-1.85-5.19l-7.69-3.79c-2.4-1.19-5.09-1.81-7.77-1.81h-8.53c-2.76,0-5.92,1.2-8.47,2.16-1.77.67-3.16,1.2-4.04,1.2h-9.92s0,.01,0,.01c-6.01,0-11.76-2.7-15.78-7.4l-10.03-11.74h-23.46l21.57,27.57c3.82,4.88,9.76,7.79,15.91,7.79h23.18c.07,0,.13.02.18.07,1.94,1.66,4.84,2.44,9.12,2.44h14.54c1.92,0,3.48-1.56,3.48-3.48v-.05c0-.93-.36-1.81-1.02-2.47-.66-.66-1.53-1.02-2.46-1.02h-2.07c-2.42.01-3.03.01-3.28-.01-1.02,0-2.59-.13-3.67-.48-.14-.05-.22-.2-.18-.35.05-.14.2-.22.35-.18,1.03.34,2.53.46,3.51.46,0,0,.02,0,.03,0,.21.02.91.02,3.24.01h2.06s0,0,0,0c1.07,0,2.08.42,2.85,1.18.76.76,1.18,1.78,1.18,2.86v.05c0,2.22-1.81,4.03-4.03,4.03Z"></path></g></g><g><polygon class="cls-1" points="88.79 368.89 11.41 368.89 16.67 319.03 76.24 319.03 88.79 368.89"></polygon><path d="m88.79,369.16H11.41c-.08,0-.15-.03-.2-.09s-.08-.14-.07-.21l5.26-49.86c.01-.14.13-.25.27-.25h59.57c.13,0,.24.09.27.21l12.55,49.86c.02.08,0,.17-.05.24-.05.07-.13.11-.22.11Zm-77.08-.55h76.72l-12.41-49.31H16.92l-5.21,49.31Z"></path></g><path d="m98.99,326.92h-20.84c-.15,0-.28-.12-.28-.28s.12-.28.28-.28h20.84c.15,0,.28.12.28.28,0,.15-.12.28-.28.28Z"></path><g><path class="cls-1" d="m-.64,327.18v-7.99c0-13.79,11.16-24.96,24.94-24.96h34.2c10.7,0,20.76,5.07,27.14,13.67l13.91,18.75h-21.88l-78.3.54Z"></path><path d="m31.64,327.45H-.64c-.15,0-.28-.12-.28-.28v-7.99c0-13.92,11.31-25.24,25.21-25.24h34.2c10.73,0,20.96,5.15,27.36,13.78l13.91,18.75c.06.08.07.19.02.29s-.14.15-.25.15h-21.42c-.15.01-.28-.11-.28-.26s.12-.28.27-.28h20.87s-13.58-18.33-13.58-18.33c-6.29-8.49-16.36-13.56-26.92-13.56H24.3c-13.6,0-24.66,11.08-24.66,24.69v7.72H31.64c.15,0,.28.12.28.28s-.12.28-.28.28Z"></path><path class="cls-2" d="m31.64,327.45c-.15,0-.28-.12-.28-.28v-14.67c0-.15.12-.28.28-.28s.28.12.28.28v14.67c0,.15-.12.28-.28.28Z"></path></g><g><g><path class="cls-7" d="m1.64,347.43l-.18-20.32,26.83-.08-.25,7.25c0,2.81,2.27,5.08,5.07,5.08h43.41s0,23.8,0,23.8H17.37c-8.69.01-15.73-7.04-15.73-15.74Z"></path><path class="cls-7" d="m102.62,346.76l2.58,2.79c1.3,1.41,1.43,3.54.31,5.1l-2.53,3.52-6.14-6.86h-38.59v-8.08h36.31c3.06,0,5.99,1.28,8.07,3.53Z"></path><path class="cls-7" d="m101.43,341.72l1.46,1.58c1.3,1.41,1.43,3.54.31,5.1l-2.53,3.52-6.14-6.86h-36.28v-5.62h6.16c2.55,0,7.09-2.46,12.84-2.46h13.35c4.11,0,8.04,1.72,10.84,4.74Z"></path><path class="cls-7" d="m103.52,352.2l3.1,3.35c1.3,1.41,1.43,3.54.31,5.1l-2.53,3.52-6.14-6.86h-23.91v-8.09h22.38c2.58,0,5.04,1.08,6.79,2.97Z"></path><path class="cls-7" d="m102.39,358.09l3.23,3.49c1.2,1.3,1.32,3.26.29,4.69-1.38,1.92-4.19,2.07-5.77.31l-1.75-1.96c-.84-.94-2.03-1.47-3.29-1.47h-20.08c-5.25,0-8.94-.3-14-8.09h34.45c2.63,0,5.13,1.1,6.91,3.03Z"></path></g><g><path d="m105.68,354.81c-.06,0-.11-.02-.16-.05-.12-.09-.15-.26-.06-.38,1-1.39.82-3.25-.46-4.63l-2.58-2.79c-2.02-2.19-4.89-3.44-7.86-3.44h-7.1c-.15,0-.28-.12-.28-.28s.12-.28.28-.28h7.1c3.13,0,6.14,1.32,8.27,3.62l2.58,2.79c1.46,1.57,1.66,3.71.5,5.32-.05.07-.14.11-.22.11Z"></path><path d="m105.95,362.3c-.06,0-.11-.02-.16-.05-.12-.09-.15-.26-.06-.38l.99-1.37c1.04-1.45.92-3.45-.29-4.76l-3.1-3.35c-1.69-1.83-4.1-2.88-6.59-2.88h-9.34c-.15,0-.28-.12-.28-.28s.12-.28.28-.28h9.34c2.65,0,5.2,1.12,7,3.06l3.1,3.35c1.39,1.5,1.53,3.79.33,5.45l-.99,1.37c-.05.07-.14.11-.22.11Z"></path><path d="m102.9,368.08c-1.13,0-2.2-.48-2.96-1.33l-1.75-1.96c-.78-.88-1.91-1.38-3.08-1.38h-22.2c-3.96,0-7.64-1.96-9.87-5.24-.09-.13-.05-.3.07-.38.13-.08.3-.05.38.07,2.12,3.13,5.64,5,9.41,5h22.2c1.33,0,2.6.57,3.49,1.56l1.75,1.96c.7.78,1.69,1.19,2.74,1.14,1.04-.06,1.99-.57,2.6-1.42.95-1.32.84-3.15-.27-4.34l-3.23-3.49c-1.73-1.87-4.17-2.94-6.71-2.94h-7.77c-.15,0-.28-.12-.28-.28s.12-.28.28-.28h7.77c2.69,0,5.29,1.13,7.12,3.11l3.23,3.49c1.28,1.39,1.41,3.5.31,5.03-.71.98-1.81,1.59-3.02,1.65-.07,0-.14,0-.21,0Z"></path><path d="m17.37,363.46c-4.27,0-8.29-1.67-11.32-4.69-3.02-3.03-4.69-7.05-4.69-11.33l-.18-20.31c0-.07.03-.14.08-.2.05-.05.11-.09.2-.08l26.57.15c.15,0,.27.12.27.27v7.03c0,1.28.5,2.49,1.41,3.4.91.91,2.11,1.41,3.39,1.41h30.15c2.29,0,4.1-.5,6.02-1.03,2.31-.64,4.92-1.36,8.86-1.36h12.46c4.18,0,8.2,1.76,11.04,4.83l1.46,1.58c1.2,1.3,1.49,3.16.74,4.76-.06.14-.23.2-.37.13-.14-.06-.2-.23-.13-.37.65-1.39.4-3.02-.64-4.15l-1.46-1.58c-2.73-2.96-6.61-4.65-10.63-4.65h-12.46c-3.86,0-6.44.71-8.71,1.34-1.96.54-3.81,1.05-6.17,1.05h-30.15c-1.43,0-2.77-.56-3.78-1.57-1.01-1.01-1.57-2.36-1.57-3.79v-6.75s-26.02-.15-26.02-.15l.18,20.04c0,4.14,1.61,8.02,4.53,10.94,2.92,2.92,6.8,4.53,10.93,4.53h63.2c.15,0,.28.12.28.28s-.12.28-.28.28H17.37s0,0,0,0Z"></path></g></g><g><polygon class="cls-1" points="126.19 344.55 158.54 344.55 162.02 364.98 122.71 364.98 126.19 344.55"></polygon><g><path class="cls-2" d="m191.96,344.55h-99.19c-4.92,0-8.91-3.99-8.91-8.91v-59.64c0-4.92,3.99-8.91,8.91-8.91h99.19c4.92,0,8.91,3.99,8.91,8.91v59.64c0,4.92-3.99,8.91-8.91,8.91Z"></path><path class="cls-1" d="m191.96,344.82h-99.19c-5.06,0-9.18-4.12-9.18-9.18v-59.64c0-5.06,4.12-9.18,9.18-9.18h99.19c5.06,0,9.18,4.12,9.18,9.18v59.64c0,5.06-4.12,9.18-9.18,9.18Zm-99.19-77.46c-4.76,0-8.63,3.87-8.63,8.63v59.64c0,4.76,3.87,8.63,8.63,8.63h99.19c4.76,0,8.63-3.87,8.63-8.63v-59.64c0-4.76-3.87-8.63-8.63-8.63h-99.19Z"></path></g><g><path class="cls-2" d="m167.31,368.95h-49.89c-1.1,0-1.99-.89-1.99-1.99s.89-1.99,1.99-1.99h49.89c1.1,0,1.99.89,1.99,1.99,0,1.1-.89,1.99-1.99,1.99Z"></path><path d="m167.31,369.22h-49.89c-1.25,0-2.26-1.01-2.26-2.26s1.01-2.26,2.26-2.26h49.89c1.25,0,2.26,1.01,2.26,2.26s-1.01,2.26-2.26,2.26Zm-49.89-3.97c-.94,0-1.71.77-1.71,1.71s.77,1.71,1.71,1.71h49.89c.94,0,1.71-.77,1.71-1.71s-.77-1.71-1.71-1.71h-49.89Z"></path></g></g></g><g><g><path d="m50.85,277.59c-.15,0-.28-.12-.28-.28v-11.3c0-4.27-3.5-7.75-7.81-7.75s-7.81,3.48-7.81,7.75v11.3c0,.15-.12.28-.28.28s-.28-.12-.28-.28v-11.3c0-4.58,3.75-8.3,8.36-8.3s8.36,3.72,8.36,8.3v11.3c0,.15-.12.28-.28.28Z"></path><g><ellipse class="cls-2" cx="51.27" cy="278.85" rx="3.86" ry="5.81"></ellipse><path d="m51.27,284.93c-2.28,0-4.13-2.73-4.13-6.09s1.85-6.09,4.13-6.09,4.13,2.73,4.13,6.09-1.85,6.09-4.13,6.09Zm0-11.62c-1.98,0-3.58,2.48-3.58,5.54s1.61,5.54,3.58,5.54,3.58-2.48,3.58-5.54-1.61-5.54-3.58-5.54Z"></path></g></g><g><ellipse cx="51.83" cy="275.52" rx="5.91" ry="5.87"></ellipse><ellipse cx="34.65" cy="278.3" rx="5.91" ry="5.87"></ellipse><ellipse cx="35.25" cy="270.74" rx="5.91" ry="5.87"></ellipse><ellipse cx="42.01" cy="266.92" rx="5.91" ry="5.87"></ellipse><ellipse cx="47.85" cy="269.34" rx="5.91" ry="5.87"></ellipse></g><g><g><polygon class="cls-7" points="37.12 294.67 46.91 304.79 46.91 282.82 37.12 282.82 37.12 294.67"></polygon><path d="m46.91,305.07c-.07,0-.14-.03-.2-.08l-9.78-10.12c-.05-.05-.08-.12-.08-.19v-11.85c0-.15.12-.28.28-.28h9.78c.15,0,.28.12.28.28v21.97c0,.11-.07.21-.17.25-.03.01-.07.02-.1.02Zm-9.51-10.51l9.23,9.55v-21.02h-9.23v11.46Z"></path></g><path class="cls-1" d="m37.12,286.51v-3.69h9.78v8.14c-.88.17-2.64.39-4.66-.27-3.16-1.04-4.72-3.49-5.12-4.18Z"></path><g><ellipse class="cls-7" cx="43.39" cy="280.15" rx="7.77" ry="8.53"></ellipse><path d="m43.39,288.95c-4.43,0-8.04-3.95-8.04-8.8s3.61-8.8,8.04-8.8,8.04,3.95,8.04,8.8c0,4.85-3.61,8.8-8.04,8.8Zm0-17.06c-4.13,0-7.49,3.7-7.49,8.25s3.36,8.25,7.49,8.25,7.49-3.7,7.49-8.25-3.36-8.25-7.49-8.25Z"></path></g><path d="m43.39,288.95c-2.49,0-4.12-.4-6.15-2.61-.1-.11-.1-.29.02-.39.11-.1.29-.1.39.02,1.9,2.07,3.37,2.43,5.75,2.43,4.13,0,7.49-3.7,7.49-8.25s-3.36-8.25-7.49-8.25c-2.65,0-5.05,1.5-6.42,4-.07.13-.24.18-.37.11-.13-.07-.18-.24-.11-.37,1.45-2.65,4.09-4.29,6.9-4.29,4.43,0,8.04,3.95,8.04,8.8,0,4.85-3.61,8.8-8.04,8.8Z"></path><path class="cls-2" d="m39.91,282.44c.14.85.55,1.66,1.22,2.31,1.5,1.43,3.8,1.52,5.41.31l-6.63-2.61Z"></path></g><path d="m43.39,271.62c-4.29,0-11.37,4.59-9.11,9.3.18.38,1.37.07,1.42.47l1.67-3.85,13.45.16c-.96-3.52-3.92-6.09-7.44-6.09Z"></path><g><path class="cls-2" d="m44.86,289.53c-3.87,0-6.36-1.59-7.8-2.98-.11-.11-.11-.28,0-.39.11-.11.28-.11.39,0,1.48,1.44,4.14,3.09,8.4,2.79.15,0,.28.1.29.26.01.15-.1.28-.26.29-.35.02-.7.04-1.03.04Z"></path><path d="m37.25,286.62c-.07,0-.14-.03-.19-.08-1.52-1.48-2.11-2.94-2.14-3-.06-.14.01-.3.15-.36.14-.06.3.01.36.15,0,.01.58,1.42,2.01,2.81.11.11.11.28,0,.39-.05.06-.13.08-.2.08Z"></path><g><circle class="cls-2" cx="47.91" cy="288.39" r="2.62"></circle><path d="m47.92,291.28c-1.6,0-2.9-1.3-2.9-2.9s1.3-2.9,2.9-2.9,2.9,1.3,2.9,2.9-1.3,2.9-2.9,2.9Zm0-5.24c-1.29,0-2.35,1.05-2.35,2.35s1.05,2.35,2.35,2.35,2.35-1.05,2.35-2.35-1.05-2.35-2.35-2.35Z"></path></g></g><g><path d="m34.74,265.39s-.02,0-.03,0c-.15-.02-.26-.15-.24-.3.48-4.2,4.05-7.36,8.31-7.36.15,0,.28.12.28.28s-.12.28-.28.28c-3.98,0-7.32,2.96-7.76,6.87-.02.14-.13.24-.27.24Z"></path><path class="cls-2" d="m34.69,277.59c-.15,0-.28-.12-.28-.28v-11.3c0-.31.02-.63.05-.94.02-.15.15-.26.3-.24.15.02.26.15.24.3-.03.29-.05.58-.05.88v11.3c0,.15-.12.28-.27.28Z"></path><g><g><ellipse class="cls-2" cx="34.3" cy="279.2" rx="3.86" ry="5.81"></ellipse><path d="m34.3,285.28c-2.28,0-4.13-2.73-4.13-6.09s1.85-6.09,4.13-6.09,4.13,2.73,4.13,6.09c0,3.36-1.85,6.09-4.13,6.09Zm0-11.63c-1.98,0-3.58,2.48-3.58,5.54s1.61,5.54,3.58,5.54,3.58-2.48,3.58-5.54-1.61-5.54-3.58-5.54Z"></path></g><g><ellipse class="cls-2" cx="31.47" cy="279.2" rx="2.09" ry="3.14"></ellipse><path d="m31.47,282.61c-1.3,0-2.36-1.53-2.36-3.42s1.06-3.42,2.36-3.42,2.36,1.53,2.36,3.42-1.06,3.42-2.36,3.42Zm0-6.29c-1,0-1.81,1.29-1.81,2.87s.81,2.87,1.81,2.87,1.81-1.29,1.81-2.87c0-1.58-.81-2.87-1.81-2.87Z"></path></g></g></g></g></g><g><g><g><ellipse class="cls-8" cx="438.64" cy="316.9" rx="6.67" ry="6.68"></ellipse><ellipse class="cls-8" cx="427.33" cy="324.95" rx="5.24" ry="5.25"></ellipse><ellipse class="cls-8" cx="422.68" cy="338.76" rx="4.35" ry="4.35"></ellipse><g><g><path class="cls-2" d="m427.71,351.24l12.9-40.36-12.9,40.36Z"></path><path d="m427.71,351.51s-.06,0-.08-.01c-.14-.05-.22-.2-.18-.35l12.9-40.36c.05-.14.2-.22.35-.18.14.05.22.2.18.35l-12.9,40.36c-.04.12-.15.19-.26.19Z"></path></g><g><path class="cls-2" d="m428.86,347.24l-8.71-11.8,8.71,11.8Z"></path><path d="m428.86,347.51c-.08,0-.17-.04-.22-.11l-8.71-11.8c-.09-.12-.06-.29.06-.38.12-.09.29-.06.38.06l8.71,11.8c.09.12.06.29-.06.38-.05.04-.11.05-.16.05Z"></path></g><g><path class="cls-2" d="m432.98,335.28l-6.75-12.39,6.75,12.39Z"></path><path d="m432.98,335.56c-.1,0-.19-.05-.24-.14l-6.75-12.39c-.07-.13-.02-.3.11-.37.13-.07.3-.02.37.11l6.75,12.39c.07.13.02.3-.11.37-.04.02-.09.03-.13.03Z"></path></g></g></g><g><circle class="cls-8" cx="443.92" cy="346.88" r="3.77"></circle><ellipse class="cls-8" cx="443.46" cy="330.64" rx="5.91" ry="5.91"></ellipse><circle class="cls-8" cx="432.63" cy="337.56" r="3.77"></circle><g><g><path class="cls-2" d="m434.87,347.82l12.42-1.16-12.42,1.16Z"></path><path d="m434.87,348.09c-.14,0-.26-.11-.27-.25-.01-.15.1-.29.25-.3l12.42-1.16c.15-.01.29.1.3.25.01.15-.1.29-.25.3l-12.42,1.16s-.02,0-.03,0Z"></path></g><g><path class="cls-2" d="m432.46,352.63l13.48-26.99-13.48,26.99Z"></path><path d="m432.46,352.91s-.08,0-.12-.03c-.14-.07-.19-.23-.12-.37l13.48-26.99c.07-.14.23-.19.37-.12.14.07.19.23.12.37l-13.48,26.99c-.05.1-.15.15-.25.15Z"></path></g><g><path class="cls-2" d="m431.36,334.29l4.66,11.22-4.66-11.22Z"></path><path d="m436.02,345.78c-.11,0-.21-.06-.25-.17l-4.66-11.22c-.06-.14,0-.3.15-.36.14-.06.3,0,.36.15l4.66,11.22c.06.14,0,.3-.15.36-.03.01-.07.02-.11.02Z"></path></g></g></g></g><rect class="cls-9" x="420.15" y="350.95" width="20" height="26.46"></rect></g></g></svg>