<svg xmlns="http://www.w3.org/2000/svg" xmlns:xlink="http://www.w3.org/1999/xlink" viewBox="0 0 472.15 379.85"><defs><style>.cls-1{mix-blend-mode:overlay;opacity:.38;}.cls-1,.cls-2{fill:#f5f5f5;}.cls-3{fill:#fff;}.cls-4{fill:#17577a;opacity:.63;}.cls-4,.cls-5{mix-blend-mode:multiply;}.cls-6{fill:#bc2e30;}.cls-7{fill:#bcdcf0;}.cls-8{isolation:isolate;}.cls-9,.cls-5{fill:rgba(255,46,48,.8);}.cls-10{stroke:#f5f5f5;stroke-width:.5px;}.cls-10,.cls-11,.cls-12,.cls-13,.cls-14,.cls-15,.cls-16{fill:none;}.cls-10,.cls-11,.cls-12,.cls-13,.cls-14,.cls-16{stroke-miterlimit:10;}.cls-11{stroke-width:.51px;}.cls-11,.cls-13,.cls-14{stroke:#fff;}.cls-17{fill:#c6c1c1;}.cls-18{fill:rgba(132,39,41,.8);}.cls-12{stroke:url(#linear-gradient-2);stroke-opacity:.8;stroke-width:.95px;}.cls-13{stroke-width:1.07px;}.cls-14{stroke-width:.6px;}.cls-19{opacity:.54;}.cls-19,.cls-20,.cls-21{fill:#ff2e30;}.cls-22{fill:#e5e3e3;}.cls-23{clip-path:url(#clippath);}.cls-16{stroke:#ff2e30;stroke-linecap:round;stroke-width:2.76px;}.cls-24{fill:rgba(171,46,48,.8);}.cls-20{opacity:.42;}.cls-25{fill:url(#linear-gradient);}</style><linearGradient id="linear-gradient" x1="339.1" y1="331.63" x2="-50.74" y2="930.25" gradientTransform="translate(0 -250.71)" gradientUnits="userSpaceOnUse"><stop offset="0" stop-color="#d21920"></stop><stop offset="1" stop-color="#000"></stop></linearGradient><clipPath id="clippath"><path class="cls-15" d="m48.75,323.89C11.91,274.11-3.74,169.31,41.76,108.27,74.97,60.49,113.96,37.64,163.66,21.71c296.4-94.84,394.21,482.17,177.21,317.17-79.48-55.49-232.05,78.4-292.13-14.99Z"></path></clipPath><linearGradient id="linear-gradient-2" x1="-12176.45" y1="-5517.12" x2="-11973.79" y2="-5517.12" gradientTransform="translate(-11943.25 -5308.66) rotate(-180)" gradientUnits="userSpaceOnUse"><stop offset="0" stop-color="#fff"></stop><stop offset="1" stop-color="#6a2225"></stop></linearGradient></defs><g class="cls-8"><g id="Floor"><path class="cls-25" d="m48.75,323.89C11.91,274.11-3.74,169.31,41.76,108.27,74.97,60.49,113.96,37.64,163.66,21.71c296.4-94.84,394.21,482.17,177.21,317.17-79.48-55.49-232.05,78.4-292.13-14.99Z"></path><path class="cls-10" d="m83.1,64.81h117.24s-.44-5.54-9.75-5.1c-.44-9.09-13.3-14.63-21.72-7.31,6.21-15.29,2.44-26.59-8.2-27.7-10.64-1.11-17.73,9.97-19.72,16.84-6.43-6.87-7.76-1.11-7.98,0-9.75-10.64-22.83-7.09-26.82-2.88-3.99,4.21-3.1,14.18-3.1,14.18,0,0-13.96-5.98-17.06.44-3.1,6.43,2.44,8.64,2.44,8.64,0,0-4.65-.89-5.32,2.88Z"></path><path class="cls-2" d="m283.27,110.01h-82.98s.31-3.92,6.9-3.61c.31-6.43,9.41-10.35,15.37-5.18-4.39-10.82-1.73-18.82,5.8-19.61,7.53-.78,12.55,7.06,13.96,11.92,4.55-4.86,5.49-.78,5.65,0,6.9-7.53,16.16-5.02,18.98-2.04,2.82,2.98,2.2,10.04,2.2,10.04,0,0,9.88-4.24,12.08.31,2.2,4.55-1.73,6.12-1.73,6.12,0,0,3.29-.63,3.76,2.04Z"></path><g class="cls-23"><g><path class="cls-2" d="m181.05,228.11h50.71s-.19-2.4-4.22-2.2c-.19-3.93-5.75-6.33-9.39-3.16,2.68-6.61,1.05-11.5-3.55-11.98-4.6-.48-7.67,4.31-8.53,7.28-2.78-2.97-3.35-.48-3.45,0-4.22-4.6-9.87-3.07-11.6-1.25-1.73,1.82-1.34,6.13-1.34,6.13,0,0-6.04-2.59-7.38.19-1.34,2.78,1.05,3.74,1.05,3.74,0,0-2.01-.38-2.3,1.25Z"></path><polygon class="cls-24" points="422.33 287.73 422.33 286.77 420.31 286.77 420.31 281.21 419.88 281.21 419.88 286.77 414.33 286.77 414.33 287.73 412.6 287.73 412.6 284.12 410.02 284.12 410.02 287.73 407.38 287.73 407.38 288.57 407.38 289.26 407.38 289.99 408.2 289.99 408.2 291.34 408.2 293.21 408.2 294.11 408.2 296.22 408.2 297.12 408.2 299.23 408.2 300.13 408.2 300.85 402.55 300.85 402.55 300.59 402.55 299.49 402.55 298.25 402.55 297.15 402.55 295.91 402.55 294.81 402.55 293.57 402.55 292.47 402.55 291.23 402.55 290.13 402.55 288.89 402.55 287.79 402.55 286.55 402.55 285.45 402.55 284.21 402.55 283.11 402.55 281.87 402.55 280.77 402.55 279.53 402.55 278.43 402.55 277.19 402.55 276.09 402.55 274.85 402.55 273.75 402.55 272.51 402.55 271.41 402.55 270.17 402.55 269.07 402.55 267.83 402.55 266.73 402.55 265.49 402.55 264.39 402.55 263.15 402.55 262.05 402.55 260.81 402.55 259.71 402.55 258.47 402.55 257.37 402.55 256.13 402.55 254.53 400.49 254.53 400.49 252.63 383.75 252.63 383.75 254.53 381.78 254.53 381.78 256.13 381.78 257.37 381.78 258.47 381.78 259.71 381.78 260.81 381.78 262.05 381.78 263.15 381.78 264.39 381.78 265.49 381.78 266.73 381.78 267.83 381.78 269.07 381.78 270.17 381.78 271.41 381.78 272.51 381.78 273.75 381.78 274.85 381.78 276.09 381.78 277.19 381.78 278.43 381.78 279.53 381.78 280.77 381.78 281.87 381.78 283.11 381.78 284.21 381.78 285.45 381.78 286.55 381.78 287.79 381.78 288.89 381.78 290.13 381.78 291.23 381.78 292.47 381.78 293.57 381.78 294.81 381.78 295.91 381.78 297.15 381.78 298.25 381.78 299.49 381.78 300.59 381.78 300.85 374.15 300.85 374.15 277.75 374.15 274.88 374.15 273.43 374.15 273.05 362.8 273.05 362.8 266.17 361.19 266.17 361.19 273.05 357.22 273.05 357.22 269.56 350.22 269.56 350.22 273.05 346.34 273.05 346.34 273.43 346.34 274.88 346.34 277.75 346.34 300.85 342.06 300.85 342.06 300.44 342.06 298.11 342.06 295.74 342.06 293.41 342.06 291.04 342.06 288.71 342.06 286.34 342.06 284.01 342.06 281.63 342.06 279.31 342.06 276.93 342.06 274.6 342.06 272.23 342.06 269.9 342.06 267.53 342.06 265.2 342.06 262.83 342.06 260.5 342.06 258.13 342.06 255.8 342.06 253.43 342.06 251.1 342.06 248.73 342.06 246.4 342.06 244.03 342.06 241.7 342.06 239.13 339.42 239.13 339.42 236.67 335.52 236.67 335.52 229.25 334.14 229.25 334.14 236.67 327.4 236.67 327.4 234.28 321.39 234.28 321.39 236.67 318.21 236.67 318.21 239.13 315.42 239.13 315.42 241.7 315.42 244.03 315.42 246.4 315.42 248.73 315.42 251.1 315.42 253.43 315.42 255.8 315.42 258.13 315.42 260.5 315.42 262.83 315.42 265.2 315.42 265.25 303.16 265.25 303.16 257.3 301.3 257.3 301.3 265.25 296.71 265.25 296.71 261.21 288.61 261.21 288.61 265.25 284.13 265.25 284.13 265.69 284.13 267.36 284.13 270.68 284.13 300.85 281.38 300.85 281.38 299.56 281.38 298.1 281.38 296.47 281.38 295.01 281.38 293.37 281.38 291.91 281.38 290.28 281.38 288.82 281.38 287.19 281.38 285.73 281.38 284.09 281.38 282.63 281.38 281 281.38 279.54 281.38 277.9 281.38 276.44 281.38 274.81 281.38 273.35 281.38 271.71 281.38 270.25 281.38 268.62 281.38 267.16 281.38 265.53 281.38 264.07 281.38 262.43 281.38 260.97 281.38 259.34 281.38 257.88 281.38 256.24 281.38 254.78 281.38 253.15 281.38 251.69 281.38 250.06 281.38 248.6 281.38 246.96 281.38 245.5 281.38 243.87 281.38 242.41 281.38 240.77 281.38 239.31 281.38 237.68 281.38 236.22 281.38 234.58 281.38 232.46 278.65 232.46 278.65 229.95 256.52 229.95 256.52 232.46 253.91 232.46 253.91 234.58 253.91 236.22 253.91 237.68 253.91 239.31 253.91 240.77 253.91 242.41 253.91 243.87 253.91 245.5 253.91 246.96 253.91 248.6 253.91 250.06 253.91 251.69 253.91 253.15 253.91 254.78 253.91 256.24 253.91 257.88 253.91 259.34 253.91 260.97 253.91 262.43 253.91 264.07 253.91 265.53 253.91 267.16 253.91 268.62 253.91 270.25 253.91 271.71 253.91 273.35 253.91 274.81 253.91 276.44 253.91 277.9 253.91 279.54 253.91 281 253.91 282.63 253.91 284.09 253.91 285.73 253.91 287.19 253.91 288.82 253.91 290.28 253.91 291.91 253.91 293.37 253.91 295.01 253.91 296.47 253.91 298.1 253.91 299.56 253.91 300.85 249.04 300.85 249.04 299.95 249.04 297.2 249.04 296.04 249.04 293.29 249.04 292.13 249.04 289.38 249.04 288.22 249.04 285.47 249.04 284.31 249.04 281.88 249.04 280.12 250.1 280.12 250.1 279.18 250.1 278.28 250.1 277.19 247.7 277.19 247.7 275.94 245.08 275.94 245.08 268.72 244.51 268.72 244.51 275.94 237.3 275.94 237.3 277.19 235.05 277.19 235.05 272.5 231.71 272.5 231.71 277.19 228.28 277.19 228.28 278.28 228.28 279.18 228.28 280.12 229.34 280.12 229.34 281.88 229.34 284.31 229.34 285.47 229.34 288.22 229.34 289.38 229.34 292.13 229.34 293.29 229.34 296.04 229.34 297.2 229.34 299.95 229.34 300.85 224.52 300.85 224.52 294.5 224.52 292.7 224.52 291.78 224.52 291.54 217.37 291.54 217.37 287.21 216.36 287.21 216.36 291.54 213.86 291.54 213.86 289.35 209.45 289.35 209.45 291.54 207.01 291.54 207.01 291.78 207.01 292.7 207.01 294.5 207.01 300.85 207.01 322.98 207.01 373.2 424.18 373.2 424.18 300.85 423.36 300.85 423.36 300.13 423.36 299.23 423.36 297.12 423.36 296.22 423.36 294.11 423.36 293.21 423.36 291.34 423.36 289.99 424.18 289.99 424.18 289.26 424.18 288.57 424.18 287.73 422.33 287.73"></polygon><polygon class="cls-24" points="50.6 299.78 50.6 299.06 52.62 299.06 52.62 294.88 53.05 294.88 53.05 299.06 58.6 299.06 58.6 299.78 60.33 299.78 60.33 297.06 62.91 297.06 62.91 299.78 65.55 299.78 65.55 300.41 65.55 300.93 65.55 301.47 64.73 301.47 64.73 302.5 64.73 303.9 64.73 304.57 64.73 306.16 64.73 306.84 64.73 308.43 64.73 309.1 64.73 309.64 70.38 309.64 70.38 309.45 70.38 308.62 70.38 307.69 70.38 306.86 70.38 305.93 70.38 305.1 70.38 304.17 70.38 303.34 70.38 302.41 70.38 301.58 70.38 300.65 70.38 299.82 70.38 298.89 70.38 298.06 70.38 297.13 70.38 296.3 70.38 295.37 70.38 294.54 70.38 293.61 70.38 292.78 70.38 291.85 70.38 291.02 70.38 290.09 70.38 289.26 70.38 288.33 70.38 287.5 70.38 286.58 70.38 285.75 70.38 284.82 70.38 283.99 70.38 283.06 70.38 282.23 70.38 281.3 70.38 280.47 70.38 279.54 70.38 278.71 70.38 277.78 70.38 276.95 70.38 276.02 70.38 274.81 72.44 274.81 72.44 273.38 89.18 273.38 89.18 274.81 91.15 274.81 91.15 276.02 91.15 276.95 91.15 277.78 91.15 278.71 91.15 279.54 91.15 280.47 91.15 281.3 91.15 282.23 91.15 283.06 91.15 283.99 91.15 284.82 91.15 285.75 91.15 286.58 91.15 287.5 91.15 288.33 91.15 289.26 91.15 290.09 91.15 291.02 91.15 291.85 91.15 292.78 91.15 293.61 91.15 294.54 91.15 295.37 91.15 296.3 91.15 297.13 91.15 298.06 91.15 298.89 91.15 299.82 91.15 300.65 91.15 301.58 91.15 302.41 91.15 303.34 91.15 304.17 91.15 305.1 91.15 305.93 91.15 306.86 91.15 307.69 91.15 308.62 91.15 309.45 91.15 309.64 98.77 309.64 98.77 292.27 98.77 290.11 98.77 289.03 98.77 288.74 110.13 288.74 110.13 283.57 111.74 283.57 111.74 288.74 115.71 288.74 115.71 286.11 122.71 286.11 122.71 288.74 126.59 288.74 126.59 289.03 126.59 290.11 126.59 292.27 126.59 309.64 130.87 309.64 130.87 309.33 130.87 307.58 130.87 305.8 130.87 304.05 130.87 302.26 130.87 300.51 130.87 298.73 130.87 296.98 130.87 295.19 130.87 293.44 130.87 291.66 130.87 289.91 130.87 288.12 130.87 286.37 130.87 284.59 130.87 282.84 130.87 281.05 130.87 279.3 130.87 277.52 130.87 275.77 130.87 273.98 130.87 272.23 130.87 270.45 130.87 268.7 130.87 266.91 130.87 265.16 130.87 263.23 133.51 263.23 133.51 261.38 137.41 261.38 137.41 255.8 138.79 255.8 138.79 261.38 145.53 261.38 145.53 259.58 151.54 259.58 151.54 261.38 154.72 261.38 154.72 263.23 157.51 263.23 157.51 265.16 157.51 266.91 157.51 268.7 157.51 270.45 157.51 272.23 157.51 273.98 157.51 275.77 157.51 277.52 157.51 279.3 157.51 281.05 157.51 282.84 157.51 282.87 169.77 282.87 169.77 276.89 171.63 276.89 171.63 282.87 176.22 282.87 176.22 279.84 184.32 279.84 184.32 282.87 188.8 282.87 188.8 283.2 188.8 284.46 188.8 286.96 188.8 309.64 191.55 309.64 191.55 308.68 191.55 307.58 191.55 306.35 191.55 305.25 191.55 304.02 191.55 302.92 191.55 301.7 191.55 300.6 191.55 299.37 191.55 298.27 191.55 297.04 191.55 295.94 191.55 294.71 191.55 293.62 191.55 292.39 191.55 291.29 191.55 290.06 191.55 288.96 191.55 287.73 191.55 286.64 191.55 285.41 191.55 284.31 191.55 283.08 191.55 281.98 191.55 280.75 191.55 279.66 191.55 278.43 191.55 277.33 191.55 276.1 191.55 275 191.55 273.77 191.55 272.68 191.55 271.45 191.55 270.35 191.55 269.12 191.55 268.02 191.55 266.79 191.55 265.7 191.55 264.47 191.55 263.37 191.55 262.14 191.55 261.04 191.55 259.81 191.55 258.22 194.28 258.22 194.28 256.33 216.41 256.33 216.41 258.22 219.02 258.22 219.02 259.81 219.02 261.04 219.02 262.14 219.02 263.37 219.02 264.47 219.02 265.7 219.02 266.79 219.02 268.02 219.02 269.12 219.02 270.35 219.02 271.45 219.02 272.68 219.02 273.77 219.02 275 219.02 276.1 219.02 277.33 219.02 278.43 219.02 279.66 219.02 280.75 219.02 281.98 219.02 283.08 219.02 284.31 219.02 285.41 219.02 286.64 219.02 287.73 219.02 288.96 219.02 290.06 219.02 291.29 219.02 292.39 219.02 293.62 219.02 294.71 219.02 295.94 219.02 297.04 219.02 298.27 219.02 299.37 219.02 300.6 219.02 301.7 219.02 302.92 219.02 304.02 219.02 305.25 219.02 306.35 219.02 307.58 219.02 308.68 219.02 309.64 223.89 309.64 223.89 308.97 223.89 306.9 223.89 306.03 223.89 303.96 223.89 303.08 223.89 301.02 223.89 300.14 223.89 298.08 223.89 297.2 223.89 295.38 223.89 294.05 222.83 294.05 222.83 293.35 222.83 292.67 222.83 291.85 225.23 291.85 225.23 290.91 227.85 290.91 227.85 285.48 228.42 285.48 228.42 290.91 235.63 290.91 235.63 291.85 237.88 291.85 237.88 288.32 241.22 288.32 241.22 291.85 244.65 291.85 244.65 292.67 244.65 293.35 244.65 294.05 243.59 294.05 243.59 295.38 243.59 297.2 243.59 298.08 243.59 300.14 243.59 301.02 243.59 303.08 243.59 303.96 243.59 306.03 243.59 306.9 243.59 308.97 243.59 309.64 248.41 309.64 248.41 304.87 248.41 303.51 248.41 302.83 248.41 302.65 255.56 302.65 255.56 299.39 256.57 299.39 256.57 302.65 259.07 302.65 259.07 300.99 263.48 300.99 263.48 302.65 265.92 302.65 265.92 302.83 265.92 303.51 265.92 304.87 265.92 309.64 265.92 326.28 265.92 373.2 48.75 373.2 48.75 309.64 49.57 309.64 49.57 309.1 49.57 308.43 49.57 306.84 49.57 306.16 49.57 304.57 49.57 303.9 49.57 302.5 49.57 301.47 48.75 301.47 48.75 300.93 48.75 300.41 48.75 299.78 50.6 299.78"></polygon><g><line class="cls-12" x1="30.68" y1="237.78" x2="233.07" y2="179.13"></line><g><g><path class="cls-21" d="m338.59,160.63l24.77,20.91-3.66,2.18-43.73-11.38s15.29-10.01,22.61-11.71Z"></path><polygon class="cls-3" points="335.42 161.66 363.36 181.54 364.64 180.77 338.59 160.63 335.42 161.66"></polygon><path class="cls-6" d="m340.88,158.29s-5.14,7.3-24.9,14.05c-19.76,6.75-29.84,5.33-29.84,5.33l29.19-13,25.55-6.37Z"></path><path class="cls-9" d="m258.63,161.07s-5.33-.25-11.73-8.65c-4.2-5.52-8.79-12.08-11.45-15.93-1.31-1.9-3.79-2.58-5.88-1.62l-4.65,2.13,7.9,33.94,25.81-9.86Z"></path><path class="cls-3" d="m221.6,180.77l11.22-9.84s84.26-32.35,111.39-41.74c21.91-7.83,26.87,1.3,26.87,1.3,0,0,7.5.65,8.35,4.43,1.07,4.78-3.91,13.68-102.78,45.84-18.26,3.21-55.04,2.94-55.04,2.94v-2.94Z"></path><path class="cls-21" d="m370.64,129.89h0s-8.88.19-14.55,2.34c1.86-3.33,2.15-3.42,4.4-4.21,1.07-.37,3.12-.84,4.97-1.23,2.95.88,4.5,2.29,5.18,3.1Z"></path><path class="cls-19" d="m350.15,127.37s-1.99,5.75-1.6,11.51l-5.28,1.76c-.56-1.79-1.27-10.22,1.3-11.57,2-.7,3.85-1.26,5.58-1.7Z"></path><path class="cls-20" d="m252.68,163.34s-.88,4.89,0,10.95l-4.01,1.47s-1.17-5.44,0-10.89l4.01-1.53Z"></path><polygon class="cls-21" points="295.89 149.99 209.34 132.23 202.3 134 279.94 160.63 295.89 149.99"></polygon><polygon class="cls-3" points="294.15 151.15 206.41 133.2 209.34 132.23 298.73 148.1 294.15 151.15"></polygon><path class="cls-19" d="m221.6,183.72v-1.77s30.69-.65,62.69-10.87c32-10.22,88.67-28.47,91.98-36.65.32-1.22-.6-2.38-1.56-3.2,2.05.62,4.27,1.74,4.71,3.7,1.07,4.78-3.91,13.68-102.78,45.84-18.26,3.21-55.04,2.94-55.04,2.94Z"></path><path class="cls-21" d="m240.65,172.43l-35.39-5.77c-1.16-.19-2.36-.04-3.44.42l-4.07,1.75c-.45.19-.41.84.06.98l28.36,8.49s10.07.31,14.48-5.87Z"></path><path class="cls-21" d="m337.49,136.32c0,.53.43.96.96.96h0c.53,0,.96-.43.96-.96v-1.35c0-.53-.43-.96-.96-.96h0c-.53,0-.96.43-.96.96v1.35Z"></path><path class="cls-21" d="m333.2,137.95c0,.53.43.96.96.96h0c.53,0,.96-.43.96-.96v-1.35c0-.53-.43-.96-.96-.96h0c-.53,0-.96.43-.96.96v1.35Z"></path><path class="cls-21" d="m328.92,139.59c0,.53.43.96.96.96h0c.53,0,.96-.43.96-.96v-1.35c0-.53-.43-.96-.96-.96h0c-.53,0-.96.43-.96.96v1.35Z"></path><path class="cls-21" d="m324.64,140.73c0,.53.43.96.96.96h0c.53,0,.96-.43.96-.96v-1.35c0-.53-.43-.96-.96-.96h0c-.53,0-.96.43-.96.96v1.35Z"></path><path class="cls-21" d="m320.36,142.36c0,.53.43.96.96.96h0c.53,0,.96-.43.96-.96v-1.35c0-.53-.43-.96-.96-.96h0c-.53,0-.96.43-.96.96v1.35Z"></path><path class="cls-21" d="m316.08,144c0,.53.43.96.96.96h0c.53,0,.96-.43.96-.96v-1.35c0-.53-.43-.96-.96-.96h0c-.53,0-.96.43-.96.96v1.35Z"></path><path class="cls-21" d="m311.8,145.6c0,.53.43.96.96.96h0c.53,0,.96-.43.96-.96v-1.35c0-.53-.43-.96-.96-.96h0c-.53,0-.96.43-.96.96v1.35Z"></path><path class="cls-21" d="m268.99,161.3c0,.53.43.96.96.96h0c.53,0,.96-.43.96-.96v-1.35c0-.53-.43-.96-.96-.96h0c-.53,0-.96.43-.96.96v1.35Z"></path><path class="cls-21" d="m264.71,162.94c0,.53.43.96.96.96h0c.53,0,.96-.43.96-.96v-1.35c0-.53-.43-.96-.96-.96h0c-.53,0-.96.43-.96.96v1.35Z"></path><path class="cls-21" d="m260.43,164.58c0,.53.43.96.96.96h0c.53,0,.96-.43.96-.96v-1.35c0-.53-.43-.96-.96-.96h0c-.53,0-.96.43-.96.96v1.35Z"></path><path class="cls-3" d="m305.21,145.79s-15.03,4.47-23.97,12.27c-1.14.99-1.57,2.57-1.18,4.03,0,.03.02.06.02.09.51,1.81,2.24,3.01,4.12,2.82,4.72-.46,15.31-1.91,24.18-6-2.86-11.46-3.17-13.21-3.17-13.21Z"></path><path class="cls-20" d="m283.5,156.24s-.88,5.11,2.63,8.54c-.71.09-1.36.16-1.92.21-1.88.18-3.61-1.01-4.12-2.82,0-.03-.02-.06-.02-.09-.4-1.46.04-3.04,1.18-4.03.72-.63,1.48-1.23,2.26-1.81Z"></path><ellipse class="cls-19" cx="306.99" cy="152.42" rx="4.23" ry="6.72" transform="translate(-24.91 66.87) rotate(-11.95)"></ellipse><path class="cls-21" d="m304.05,153.04c.59,2.78,2.38,4.75,4.01,4.41,1.63-.34,2.47-2.88,1.88-5.65-.59-2.78-2.38-4.75-4.01-4.41-1.63.34-2.47,2.88-1.88,5.65Z"></path><g><path class="cls-3" d="m358.49,162.72s-15.03,4.47-23.97,12.27c-1.14.99-1.57,2.57-1.18,4.03,0,.03.02.06.02.09.51,1.81,2.24,3.01,4.12,2.82,4.72-.46,15.31-1.91,24.18-6-2.86-11.46-3.17-13.21-3.17-13.21Z"></path><path class="cls-19" d="m336.78,173.18s-.88,5.11,2.63,8.54c-.71.09-1.36.16-1.92.21-1.88.18-3.61-1.01-4.12-2.82,0-.03-.02-.06-.02-.09-.4-1.46.04-3.04,1.18-4.03.72-.63,1.48-1.23,2.26-1.81Z"></path><path class="cls-7" d="m356.13,170.23c.77,3.63,3.25,6.18,5.53,5.7,2.29-.48,3.52-3.82,2.75-7.45-.77-3.63-3.25-6.18-5.53-5.7-2.29.48-3.52,3.82-2.75,7.45Z"></path><path class="cls-21" d="m357.33,169.98c.59,2.78,2.38,4.75,4.01,4.41,1.63-.34,2.47-2.88,1.88-5.65s-2.38-4.75-4.01-4.41-2.47,2.88-1.88,5.65Z"></path></g></g><path class="cls-16" d="m362.47,143.72s-41.84,17.17-72.62,26.19"></path><line class="cls-16" x1="283.98" y1="171.79" x2="275.82" y2="174.39"></line></g></g><g><g><g><path class="cls-2" d="m367.18,227.9v32.36l-44.71-12.73c-3.74-1.07-3.72-6.38.04-7.41l44.67-12.22Z"></path><polygon class="cls-21" points="351.92 255.91 360 258.21 360 229.86 351.92 232.07 351.92 255.91"></polygon><polygon class="cls-21" points="335.34 251.19 343.42 253.49 343.42 234.4 335.34 236.61 335.34 251.19"></polygon><path class="cls-21" d="m326.84,238.93l-4.33,1.19c-3.75,1.03-3.78,6.34-.04,7.41l4.37,1.25v-9.84Z"></path></g><line class="cls-13" x1="367.18" y1="228.26" x2="367.18" y2="303.68"></line></g><g><path class="cls-17" d="m163.04,123.97h0c-.53,0-.96.43-.96.96v18.61c0,.53.43.96.96.96h0c.53,0,.96-.43.96-.96v-18.61c0-.53-.43-.96-.96-.96Z"></path><path class="cls-17" d="m166.74,127.45h0c-.53,0-.96.43-.96.96v18.61c0,.53.43.96.96.96h0c.53,0,.96-.43.96-.96v-18.61c0-.53-.43-.96-.96-.96Z"></path><g><rect class="cls-17" x="142.87" y="130.71" width="3.79" height="13.14"></rect><circle class="cls-2" cx="144.77" cy="128.41" r="6.71" transform="translate(-15.71 236.55) rotate(-75.55)"></circle><path class="cls-22" d="m146.06,121.83c1.46,1.23,2.38,3.07,2.38,5.13,0,3.71-3.01,6.71-6.71,6.71-.44,0-.87-.05-1.29-.13,1.17.99,2.68,1.59,4.33,1.59,3.71,0,6.71-3.01,6.71-6.71,0-3.27-2.33-5.98-5.42-6.59Z"></path><g><rect class="cls-22" x="139.54" y="185.73" width="10.22" height="130.82"></rect><rect class="cls-17" x="149.76" y="185.73" width="7.91" height="130.82"></rect><rect class="cls-2" x="131.64" y="185.73" width="7.91" height="130.82" transform="translate(271.18 502.28) rotate(180)"></rect><rect class="cls-22" x="135.59" y="180.62" width="18.12" height="5.11"></rect><path class="cls-2" d="m135.59,185.73h-12.7c-1.41,0-2.55-1.14-2.55-2.55h0c0-1.41,1.14-2.55,2.55-2.55h12.7v5.11Z"></path><path class="cls-17" d="m166.42,185.73h-12.7v-5.11h12.7c1.41,0,2.55,1.14,2.55,2.55h0c0,1.41-1.14,2.55-2.55,2.55Z"></path><polygon class="cls-9" points="144.65 151.72 114.44 151.72 123.78 180.62 144.65 180.62 165.52 180.62 174.86 151.72 144.65 151.72"></polygon><path class="cls-2" d="m130.93,146.76h-18.54c-1.37,0-2.48,1.11-2.48,2.48h0c0,1.37,1.11,2.48,2.48,2.48h18.54v-4.96Z"></path><path class="cls-17" d="m158.37,146.76h18.54c1.37,0,2.48,1.11,2.48,2.48h0c0,1.37-1.11,2.48-2.48,2.48h-18.54v-4.96Z"></path><rect class="cls-22" x="130.93" y="146.76" width="27.44" height="4.96" transform="translate(289.3 298.48) rotate(180)"></rect><path class="cls-2" d="m123.05,142.24h11.92v4.52h-14.84v-1.6c0-1.61,1.31-2.92,2.92-2.92Z"></path><path class="cls-17" d="m154.34,142.24h14.84v4.52h-11.92c-1.61,0-2.92-1.31-2.92-2.92v-1.6h0Z" transform="translate(323.51 289) rotate(180)"></path><rect class="cls-22" x="134.97" y="142.24" width="19.37" height="4.52" transform="translate(289.3 289) rotate(180)"></rect><path class="cls-2" d="m131.41,137.71h7.07v4.52h-9.45v-2.15c0-1.31,1.06-2.38,2.38-2.38Z"></path><path class="cls-17" d="m150.82,137.71h9.45v4.52h-7.07c-1.31,0-2.38-1.06-2.38-2.38v-2.15h0Z" transform="translate(311.09 279.95) rotate(180)"></path><rect class="cls-22" x="138.48" y="137.71" width="12.34" height="4.52" transform="translate(289.3 279.95) rotate(180)"></rect><polygon class="cls-9" points="131.64 194.63 139.54 189.38 149.76 189.38 157.67 208.35 157.67 185.73 131.64 185.73 131.64 194.63"></polygon><polygon class="cls-1" points="137.95 180.62 132.98 164.86 122.34 176.15 123.78 180.62 137.95 180.62"></polygon><polygon class="cls-1" points="152.19 180.62 165.52 180.62 169.5 168.31 153.71 176.83 152.19 180.62"></polygon><polygon class="cls-1" points="156.33 159.3 135.59 175.95 136.77 180.62 152.19 180.62 156.33 159.3"></polygon><polygon class="cls-2" points="129.46 151.72 135.59 180.62 137.94 180.62 132.14 151.72 129.46 151.72"></polygon><polygon class="cls-22" points="159.84 151.72 153.71 180.62 151.37 180.62 157.17 151.72 159.84 151.72"></polygon><polygon class="cls-5" points="116.98 159.59 132.63 154.2 156.73 154.2 169.97 166.88 174.86 151.72 114.44 151.72 116.98 159.59"></polygon></g></g><rect class="cls-9" x="162.09" y="128.41" width="1.91" height="3.97"></rect><rect class="cls-9" x="162.09" y="134.24" width="1.91" height="3.97"></rect><rect class="cls-9" x="165.79" y="131.64" width="1.91" height="3.97"></rect><rect class="cls-9" x="165.79" y="137.46" width="1.91" height="3.97"></rect></g><g><g><g><rect class="cls-21" x="84.49" y="300.01" width="152.74" height="73.08" transform="translate(321.73 673.1) rotate(180)"></rect><line class="cls-11" x1="237.24" y1="308.94" x2="84.49" y2="308.94"></line><line class="cls-11" x1="237.24" y1="315.7" x2="84.49" y2="315.7"></line><line class="cls-11" x1="237.24" y1="322.46" x2="84.49" y2="322.46"></line><line class="cls-11" x1="237.24" y1="329.22" x2="84.49" y2="329.22"></line><line class="cls-11" x1="237.24" y1="336.55" x2="84.49" y2="336.55"></line><line class="cls-11" x1="237.24" y1="343.88" x2="84.49" y2="343.88"></line><line class="cls-11" x1="237.24" y1="351.22" x2="84.49" y2="351.22"></line><line class="cls-11" x1="237.24" y1="358.55" x2="84.49" y2="358.55"></line><line class="cls-11" x1="237.24" y1="372.86" x2="84.49" y2="372.86"></line><line class="cls-11" x1="160.98" y1="315.7" x2="160.98" y2="373.09"></line><polygon class="cls-1" points="212.91 304.21 212.91 373.09 223.04 373.09 218.78 304.21 212.91 304.21"></polygon><polygon class="cls-1" points="183.39 304.21 183.39 373.09 193.53 373.09 189.27 304.21 183.39 304.21"></polygon><polygon class="cls-1" points="112.2 304.21 112.2 373.09 122.34 373.09 118.08 304.21 112.2 304.21"></polygon><polygon class="cls-1" points="84.49 304.21 84.49 373.09 94.63 373.09 90.37 304.21 84.49 304.21"></polygon><rect class="cls-3" x="84.49" y="300.01" width="152.74" height="4.2"></rect><rect class="cls-3" x="209.53" y="302.11" width="3.38" height="70.98" transform="translate(422.43 675.2) rotate(180)"></rect><rect class="cls-3" x="108.82" y="302.11" width="3.38" height="70.98"></rect><rect class="cls-3" x="180.01" y="302.11" width="3.38" height="70.98" transform="translate(363.41 675.2) rotate(180)"></rect><rect class="cls-3" x="138.34" y="302.11" width="3.38" height="70.98"></rect><rect class="cls-18" x="84.49" y="304.21" width="152.74" height="2.48" transform="translate(321.73 610.9) rotate(180)"></rect></g><rect class="cls-18" x="147.36" y="300.01" width="9.81" height="73.08" transform="translate(304.54 673.1) rotate(180)"></rect></g><g><g><rect class="cls-21" x="256.87" y="300.01" width="152.74" height="73.08"></rect><line class="cls-11" x1="256.87" y1="308.94" x2="409.61" y2="308.94"></line><line class="cls-11" x1="256.87" y1="315.7" x2="409.61" y2="315.7"></line><line class="cls-11" x1="256.87" y1="322.46" x2="409.61" y2="322.46"></line><line class="cls-11" x1="256.87" y1="329.22" x2="409.61" y2="329.22"></line><line class="cls-11" x1="256.87" y1="336.55" x2="409.61" y2="336.55"></line><line class="cls-11" x1="256.87" y1="343.88" x2="409.61" y2="343.88"></line><line class="cls-11" x1="256.87" y1="351.22" x2="409.61" y2="351.22"></line><line class="cls-11" x1="256.87" y1="358.55" x2="409.61" y2="358.55"></line><line class="cls-11" x1="256.87" y1="365.88" x2="409.61" y2="365.88"></line><line class="cls-11" x1="256.87" y1="373.21" x2="409.61" y2="373.21"></line><line class="cls-11" x1="256.87" y1="372.86" x2="409.61" y2="372.86"></line><line class="cls-11" x1="333.13" y1="315.7" x2="333.13" y2="373.09"></line><polygon class="cls-1" points="281.2 304.21 281.2 373.09 271.06 373.09 275.33 304.21 281.2 304.21"></polygon><polygon class="cls-1" points="310.71 304.21 310.71 373.09 300.57 373.09 304.84 304.21 310.71 304.21"></polygon><polygon class="cls-1" points="381.9 304.21 381.9 373.09 371.76 373.09 376.03 304.21 381.9 304.21"></polygon><polygon class="cls-1" points="409.61 304.21 409.61 373.09 399.47 373.09 403.74 304.21 409.61 304.21"></polygon><rect class="cls-3" x="256.87" y="300.01" width="152.74" height="4.2"></rect><rect class="cls-3" x="281.2" y="302.11" width="3.38" height="70.98"></rect><rect class="cls-3" x="381.9" y="302.11" width="3.38" height="70.98" transform="translate(767.18 675.2) rotate(180)"></rect><rect class="cls-3" x="310.71" y="302.11" width="3.38" height="70.98"></rect><rect class="cls-3" x="352.39" y="302.11" width="3.38" height="70.98" transform="translate(708.16 675.2) rotate(180)"></rect><rect class="cls-18" x="256.87" y="304.21" width="152.74" height="2.48"></rect></g><rect class="cls-18" x="336.93" y="300.01" width="9.81" height="73.08"></rect></g><path class="cls-18" d="m180.51,296.09s16.17-29.61,66.41-29.61,64.29,25.81,64.29,29.61c-96.51.08-130.71,0-130.71,0Z"></path><line class="cls-14" x1="193.23" y1="279.31" x2="300.87" y2="279.31"></line><line class="cls-14" x1="189.79" y1="286.46" x2="304.32" y2="286.46"></line><line class="cls-14" x1="222.53" y1="296.09" x2="222.53" y2="269.6"></line><line class="cls-14" x1="271.58" y1="296.09" x2="271.58" y2="269.6"></line><path class="cls-4" d="m186.12,296.09c4.85-13.68,30.22-24.1,60.81-24.1s55.95,10.43,60.81,24.1h8.82c-4.17-16.68-33.74-29.61-69.63-29.61s-65.45,12.93-69.63,29.61h8.82Z"></path><path class="cls-3" d="m186.12,296.09c4.85-15.49,30.22-27.31,60.81-27.31s55.95,11.81,60.81,27.31h8.82c-4.17-18.9-33.74-33.55-69.63-33.55s-65.45,14.65-69.63,33.55h8.82Z"></path><rect class="cls-21" x="157.18" y="293.61" width="179.75" height="79.48"></rect><line class="cls-14" x1="157.18" y1="304.12" x2="336.93" y2="304.12"></line><line class="cls-14" x1="157.18" y1="312.08" x2="336.93" y2="312.08"></line><line class="cls-14" x1="157.18" y1="320.03" x2="336.93" y2="320.03"></line><line class="cls-14" x1="157.18" y1="327.98" x2="336.93" y2="327.98"></line><line class="cls-14" x1="157.18" y1="335.82" x2="336.93" y2="335.82"></line><line class="cls-14" x1="157.18" y1="343.66" x2="336.93" y2="343.66"></line><line class="cls-14" x1="157.18" y1="351.5" x2="336.93" y2="351.5"></line><line class="cls-14" x1="157.18" y1="359.34" x2="336.93" y2="359.34"></line><line class="cls-14" x1="157.18" y1="372.82" x2="336.93" y2="372.82"></line><g><g><rect class="cls-18" x="233.8" y="312.08" width="26.25" height="61.01"></rect><polyline class="cls-14" points="260.04 373.09 260.04 312.08 233.8 312.08 233.8 373.09"></polyline></g><line class="cls-14" x1="246.92" y1="312.08" x2="246.92" y2="373.09"></line></g><polygon class="cls-1" points="185.81 298.56 185.81 373.09 173.88 373.09 178.9 298.56 185.81 298.56"></polygon><polygon class="cls-1" points="220.54 298.56 220.54 373.09 208.61 373.09 213.63 298.56 220.54 298.56"></polygon><polygon class="cls-1" points="304.32 298.56 304.32 373.09 292.39 373.09 297.41 298.56 304.32 298.56"></polygon><polygon class="cls-1" points="336.93 298.56 336.93 373.09 325 373.09 330.02 298.56 336.93 298.56"></polygon><rect class="cls-3" x="157.18" y="293.61" width="179.75" height="4.94"></rect><rect class="cls-3" x="185.81" y="296.09" width="3.98" height="77"></rect><rect class="cls-3" x="304.32" y="296.09" width="3.98" height="77" transform="translate(612.62 669.17) rotate(180)"></rect><rect class="cls-3" x="220.54" y="296.09" width="3.98" height="77"></rect><rect class="cls-3" x="269.59" y="296.09" width="3.98" height="77" transform="translate(543.15 669.17) rotate(180)"></rect><rect class="cls-18" x="157.18" y="298.56" width="179.75" height="2.92"></rect></g></g></g></g></g></g></svg>