<svg xmlns="http://www.w3.org/2000/svg" id="Layer_1" viewBox="0 0 357.65 350.32"><defs><style>.cls-1{fill:#fff;}</style></defs><path class="cls-1" d="m236.19,318.93c.29,7.85.68,15.3.81,22.75.11,6.24-2.37,8.62-8.56,8.63-33.06.01-66.12.01-99.17,0-6.43,0-8.82-2.33-8.71-8.85.13-7.33.51-14.65.81-22.53-1.88,0-4.19,0-6.49,0-8.61,0-17.21.03-25.82-.01-4.91-.02-7.7-2.51-7.69-6.69.01-4.11,2.89-6.72,7.74-6.74,11.73-.06,23.45.03,35.18-.09,1.27-.01,3.16-.59,3.71-1.52,6.54-11.09,15.62-19.3,27.59-24.86-8.65-8.61-12.94-18.64-11.42-30.75,1.14-9.08,5.28-16.57,12.25-22.41,13.95-11.68,34.46-10.62,47.24,2.28,11.9,12.01,15.39,33.95-1.47,50.75,2.81,1.61,5.67,3.06,8.33,4.81,7.63,5,13.74,11.47,18.47,19.29.65,1.08,2.13,2.36,3.23,2.37,29.44.13,58.87.1,88.86.1-.72-1.25-1.18-2.19-1.77-3.04-12.14-17.52-24.32-35.02-36.42-52.57-1.24-1.8-2.42-2.53-4.8-2.5-13.97.21-27.94.33-41.91.05-10.55-.21-18.57-7.31-19.91-16.85-1.37-9.8,4.22-18.98,13.57-21.88,2.46-.76,5.14-1,7.73-1.09,4.98-.16,9.96-.05,15.47-.05-.65-1.2-1.03-2.05-1.54-2.81-5.24-7.59-10.42-15.23-15.85-22.69-.9-1.23-2.94-2.3-4.46-2.3-34.93-.13-69.86-.11-104.79-.05-1.24,0-3.03.27-3.63,1.09-6.16,8.58-12.12,17.3-18.68,26.76,6.05,0,11.32-.07,16.59.01,10.3.16,18.03,6.11,20.3,15.52,2.66,11.03-4.99,22.4-16.24,24.01-2.09.3-4.22.41-6.34.4-13.35-.01-26.69-.11-40.04-.08-.93,0-2.24.53-2.74,1.25-12.98,18.61-25.87,37.28-38.77,55.95-.05.08,0,.22,0,.86,6.28,0,12.56,0,18.84,0,2.24,0,4.51-.13,6.73.13,3.64.43,6.22,3.51,6.07,6.91-.16,3.51-2.84,6.34-6.57,6.37-12.97.1-25.95.17-38.92-.02-5.71-.08-8.3-5.92-4.94-10.89,5.87-8.67,11.91-17.23,17.87-25.84,2.9-4.18,5.8-8.36,9.2-13.27-6.54,0-12.33-.23-18.09.08-4.31.23-7.68-1.25-10.9-3.9-13.58-11.17-19.7-31.04-14.05-46.11.52-1.39,1.13-2.78,1.86-4.07,8.28-14.64,16.62-29.24,24.82-43.92.73-1.3.81-3.09.81-4.65.04-45.28.02-90.57.04-135.85,0-13.84,6.75-24.25,18.76-28.54,3.22-1.15,6.81-1.8,10.23-1.8C138.71-.01,218.8-.02,298.88.03c16.36.01,28.58,12.13,29,28.49.14,5.36.1,10.73.01,16.09-.07,4.44-2.51,7.12-6.37,7.25-4.01.14-6.87-2.59-7.01-7.08-.16-5.11,0-10.23-.07-15.34-.14-9.68-6.36-15.95-15.97-15.95-79.84-.02-159.67-.02-239.51,0-9.11,0-15.79,6.1-15.81,14.92-.11,43.04-.06,86.07-.05,129.11,0,.48.14.97.26,1.69,2.55-.85,4.97-1.67,7.68-2.58-5.45-11.3-5.91-22.52-.06-33.54,4.46-8.41,11.4-14.07,20.53-16.9,18.13-5.61,37.56,4.48,43.49,22.49,5.45,16.55-1.92,39.13-26.08,45.39,1.2,8.62,2.39,17.16,3.63,26.12.84-1.08,1.59-1.97,2.26-2.93,6.19-8.91,12.43-17.78,18.51-26.76,2.1-3.1,4.7-4.38,8.45-4.37,37.92.08,75.85.09,113.77-.01,4.09-.01,6.75,1.51,8.98,4.82,5.91,8.79,12.03,17.45,18.08,26.15.69.99,1.44,1.93,2.38,3.18,1.22-8.93,2.39-17.45,3.61-26.34-11.39-2.75-20.39-9.62-25.21-21.27-3.59-8.68-3.49-17.55.01-26.25,7.04-17.49,26.87-26.13,44.57-19.54,19.62,7.31,26.77,26.09,18.74,49.79,2.39.83,4.79,1.67,7.75,2.7v-4.65c0-26.7,0-53.39.02-80.09,0-1.73.01-3.54.49-5.17.97-3.29,3.45-4.86,6.82-4.59,3.38.28,5.49,2.23,5.99,5.64.2,1.35.13,2.74.13,4.11,0,30.56-.03,61.13.09,91.69,0,2.07.85,4.31,1.87,6.16,8.22,14.96,17.16,29.55,24.74,44.82,8.13,16.37-.96,41.66-17.24,50.51-1.44.78-3.33.99-5.02,1.02-6.34.12-12.68.05-19.73.05,1,1.58,1.65,2.7,2.39,3.76,7.95,11.48,15.89,22.96,23.89,34.4,1.82,2.61,2.99,5.24,1.36,8.32-1.62,3.06-4.39,3.63-7.61,3.63-30.81-.05-61.62-.03-92.44-.03-1.46,0-2.93,0-4.03,0Zm-135.68-84.96s0-.02,0-.03c6.98,0,13.97.12,20.94-.05,3.99-.09,6.45-2.7,6.49-6.29.04-3.59-2.39-6.15-6.3-6.55-1.11-.12-2.24-.06-3.36-.06-10.22,0-20.45.03-30.67-.02-5.09-.03-7.31-2.05-7.77-7.06-.78-8.56-1.51-17.13-2.16-25.71-.88-11.54-8.83-19.35-19.61-18.75-8.81.49-15.76,4.55-20.17,12.28-7.4,12.98-14.58,26.1-21.91,39.12-2.3,4.08-3.13,8.41-2.5,12.97,1.01,7.38,4.04,13.9,9.47,19.03,1.44,1.37,3.83,2.33,5.83,2.42,6.97.29,13.96.11,20.94.11,5.55,0,7.99-2.27,8.54-7.82.37-3.72,1.11-7.42,1.2-11.14.06-2.36-.28-4.96-1.26-7.08-2.62-5.64-5.68-11.07-8.56-16.6-2.8-5.38-2.17-9.27,1.81-11.28,3.89-1.97,7.39-.19,10.22,5.21,3.81,7.28,7.83,14.46,11.34,21.89,1.96,4.15,4.82,5.58,9.16,5.45,6.1-.18,12.22-.05,18.33-.05Zm153.29-12.97c-5.61,0-11.22-.07-16.83.02-4.54.08-7.25,2.48-7.36,6.26-.12,3.98,2.58,6.68,7.28,6.71,13.34.1,26.68.05,40.02.03,3.28,0,5.55-1.44,7.09-4.51,4.08-8.12,8.34-16.15,12.6-24.18,2.25-4.25,5.94-5.68,9.52-3.85,3.57,1.83,4.58,5.72,2.43,9.96-3.11,6.1-6.42,12.1-9.42,18.26-.82,1.68-1.27,3.78-1.17,5.64.25,4.47.87,8.93,1.45,13.37.56,4.31,3.35,6.67,7.71,6.67,6.36,0,12.75-.38,19.07.12,5.2.41,8.54-1.71,11.21-5.69,1.04-1.55,2.17-3.06,3-4.72,3.68-7.38,5.91-15.12,1.75-22.9-7.45-13.95-15.17-27.76-23.1-41.44-4.98-8.59-16.1-13.01-25.17-10.67-8.85,2.28-13.31,8.84-14.13,20.43-.55,7.71-1.28,15.4-2.01,23.09-.52,5.47-2.64,7.35-8.23,7.39-5.24.04-10.47,0-15.71.02Zm-30.23,115.71c.42-19-6.46-33.89-22.88-43.13-16.4-9.22-32.93-8.11-48.2,2.83-13.59,9.74-19.1,23.59-18.43,40.3h89.51Zm-44.65-62.6c11.81-.06,21.38-9.61,21.42-21.38.03-11.86-9.74-21.54-21.7-21.49-11.75.05-21.38,9.67-21.41,21.4-.04,11.88,9.71,21.53,21.7,21.47Zm118.29-134.45c.04-11.89-9.33-21.41-21.16-21.51-12.05-.1-21.69,9.38-21.72,21.35-.03,11.86,9.38,21.42,21.18,21.52,12.06.1,21.66-9.35,21.7-21.36Zm-236.85-.6c-.22,11.94,8.99,21.7,20.71,21.95,12.14.26,21.97-9.01,22.16-20.91.19-11.96-8.99-21.67-20.73-21.94-12.16-.28-21.91,8.92-22.13,20.89Z"></path><path class="cls-1" d="m269.46,77.22c-3.75,3.27-6.82,5.94-9.87,8.62-9.27,8.15-18.51,16.32-27.79,24.45-5.45,4.78-8.84,4.58-13.67-.73-8.64-9.48-17.26-18.97-26.04-28.63-11.71,8.84-23.21,17.54-34.72,26.23-3.28,2.48-6.51,5.02-9.85,7.43-3.91,2.83-8.36,2.36-10.96-1.03-2.57-3.35-1.88-7.93,1.94-10.83,16.46-12.53,32.95-25.01,49.48-37.45,4.01-3.01,7.72-2.56,11.25,1.28,8.76,9.55,17.45,19.16,26.5,29.13,11.34-9.97,22.56-19.85,33.79-29.73-.1-.27-.2-.55-.3-.82-1.57,0-3.14.09-4.7-.02-4.16-.28-7.03-3.22-7.13-7.2-.1-3.99,2.61-7.46,6.71-7.57,8.97-.24,17.95-.28,26.92.03,4.47.15,7.07,3.95,6.46,8.79-.99,7.78-2.13,15.55-3.39,23.29-.75,4.61-4.18,7.15-8.42,6.66-4-.46-6.49-3.67-6.38-8.22.02-.87.08-1.73.17-3.68Z"></path><path class="cls-1" d="m110.58,47.84c-10.71,0-21.42.03-32.13-.02-4.64-.02-7.53-2.46-7.78-6.33-.25-4,2.57-7.02,6.91-7.08,7.35-.1,14.7-.04,22.04-.04,14.32,0,28.64-.01,42.97,0,5.12,0,8.18,2.51,8.22,6.62.03,4.09-3.11,6.8-8.1,6.82-10.71.04-21.42.01-32.13.01Z"></path><path class="cls-1" d="m110.76,76.37c-10.71,0-21.42.02-32.13,0-5.06-.01-8.05-2.62-7.97-6.83.07-4.04,3.03-6.6,7.86-6.61,21.42-.03,42.84-.03,64.26,0,4.99,0,8.12,2.76,8.03,6.87-.09,4.01-3.1,6.55-7.91,6.57-10.71.03-21.42,0-32.13,0Z"></path></svg>