<svg xmlns="http://www.w3.org/2000/svg" id="Layer_1" viewBox="0 0 260.17 294.27"><defs><style>.cls-1{fill:#fff;}</style></defs><path class="cls-1" d="m238.92,191.12c-8.65-4.32-17.17-8.57-25.69-12.83-.9-.45-1.83-.84-2.69-1.34-3.1-1.83-4.21-5.2-2.77-8.27,1.47-3.14,5.06-4.6,8.38-3.06,6.27,2.92,12.44,6.06,18.64,9.12,6.83,3.38,13.61,6.85,20.48,10.13,3.39,1.62,4.91,4.06,4.9,7.82-.07,21.79-.06,43.58,0,65.37.01,3.54-1.43,5.88-4.55,7.43-18.59,9.22-37.16,18.46-55.72,27.75-2.75,1.38-5.26,1.33-8.01-.04-18.47-9.25-36.96-18.46-55.47-27.61-3.24-1.6-4.74-3.91-4.73-7.6.08-22.09.05-44.18,0-66.27,0-3.07,1.29-5.08,4.02-6.43,11.86-5.86,23.7-11.78,35.54-17.69,4.38-2.18,8.64-1.89,12.98.28,16.13,8.09,32.33,16.03,48.43,24.18,2.52,1.28,4.26.84,6.26-.95Zm-94.23,10.67c-.1.75-.19,1.12-.19,1.49,0,16.67.03,33.34-.06,50.01,0,1.8.86,2.42,2.18,3.08,13.39,6.62,26.76,13.28,40.14,19.91.75.37,1.58.61,2.52.97.1-.73.19-1.11.19-1.49,0-16.57-.02-33.14.06-49.71,0-1.91-.95-2.57-2.4-3.28-11.79-5.79-23.55-11.63-35.32-17.46-2.31-1.14-4.62-2.27-7.13-3.51Zm57.6,75.67c.83-.3,1.3-.42,1.73-.63,13.82-6.87,27.61-13.79,41.47-20.58,1.75-.86,1.86-2.02,1.86-3.59-.03-16.06-.01-32.11-.02-48.17,0-.75-.11-1.51-.17-2.3-5.38,1.5-5.52,1.68-5.52,6.61,0,6.42-.02,12.85,0,19.27.01,2.61-.81,4.84-3.18,6.05-6.51,3.33-13.02,6.69-19.67,9.73-4.23,1.93-8.47-.9-8.82-5.53-.11-1.5-.06-3.01-.06-4.51,0-4.37,0-8.73,0-13.58-1.68.83-2.78,1.53-3.98,1.94-2.82.96-3.79,2.61-3.75,5.76.21,15.35.1,30.71.1,46.06v3.48Zm-49.43-86.07c1.06.55,2.01,1.06,2.98,1.54,12,5.96,24.11,11.71,35.95,17.99,3.88,2.06,6.55,1.19,9.7-1.19-1.05-.55-1.93-1.02-2.82-1.46-11.9-5.94-23.92-11.66-35.64-17.94-3.95-2.12-6.83-1.55-10.17,1.06Zm67.49,8.92c-1.09-.58-2.03-1.1-3-1.58-12.2-6.08-24.46-12.04-36.56-18.3-2.83-1.46-4.93-1.41-7.35.78,1.02.55,1.96,1.09,2.92,1.57,12.39,6.15,24.82,12.21,37.13,18.51,2.69,1.37,4.63,1.06,6.85-.99Zm2.41,27.25c1.56-.74,2.7-1.13,3.66-1.78.9-.61,2.25-1.45,2.3-2.26.24-4.04.11-8.11.11-12.58-1.44.67-2.62,1-3.52,1.69-.98.75-2.35,1.78-2.43,2.78-.28,3.86-.11,7.75-.11,12.16Z"></path><path class="cls-1" d="m99.7,154.27c-9.83,0-18.66-.18-27.47.04-12.13.31-23.71-1.87-34.95-6.39-8.83-3.55-17.85-6.63-26.7-10.11-5.21-2.05-8.11-6.08-8.56-11.71-.4-5.04,1.68-8.95,5.68-11.9.8-.59,1.69-1.06,2.77-1.73-.22-.91-.4-1.85-.68-2.78-3.03-10.29-6.08-20.57-9.11-30.86-2.44-8.28,1.76-13.86,10.43-13.89,3.01-.01,6.03.09,9.03-.02,4.18-.16,7.27,1.48,9.73,4.86,8.81,12.08,17.76,24.06,26.56,36.15,1.31,1.8,2.63,2.55,4.92,2.54,40.66-.08,81.32.26,121.97-.2,19.35-.22,36.73,5.35,53.27,14.56,5.3,2.95,7.65,7.8,7.32,13.84-.32,5.81-3.19,10.11-8.42,12.59-6.88,3.26-14.16,5.02-21.81,5.03-18.57.03-37.14-.02-55.71.13-2.17.02-4.57.68-6.47,1.73-12.89,7.15-25.71,14.43-38.49,21.78-4.07,2.34-8.23,4.03-13,4.19-3.41.11-6.8.6-10.2.83-4.11.28-7.32-1.64-8.69-5.09-1.35-3.38-.46-6.66,2.65-9.44,4.27-3.81,8.58-7.58,12.86-11.37.81-.71,1.58-1.45,3.05-2.8Zm5.07,12.63c.09.17.17.34.26.52.85-.44,1.72-.85,2.56-1.32,13.61-7.71,27.19-15.48,40.84-23.11,1.57-.88,3.55-1.43,5.34-1.44,19.37-.1,38.74-.07,58.12-.06,6,0,11.77-1.13,17.23-3.61.8-.36,1.75-1.32,1.82-2.07.07-.72-.75-1.88-1.48-2.27-13.59-7.23-27.62-12.53-43.43-12.45-43.46.22-86.92.06-130.39.13-2.64,0-4.33-.68-5.95-2.91-8.99-12.44-18.3-24.66-27.22-37.15-2.29-3.2-4.72-4.2-8.46-3.14.26.95.49,1.91.77,2.86,3.3,11.25,6.53,22.52,9.97,33.73.66,2.16.21,3.26-1.59,4.41-2.91,1.85-5.66,3.93-8.95,6.24,1.48.65,2.26,1.04,3.08,1.34,9.47,3.57,18.94,7.12,28.41,10.69,7.69,2.9,15.63,4.24,23.85,4.22,19.97-.05,39.95-.02,59.92-.02h4.01c-10,8.85-19.36,17.13-28.71,25.41Z"></path><path class="cls-1" d="m126.78,95.91c-18.77,0-37.55,0-56.32,0-6.95,0-8.9-2.06-8.64-9.08,1.13-31.24,25.4-57.76,56.48-61.7,38.27-4.86,72.09,23.94,73.4,62.5.2,5.93-2.02,8.27-7.99,8.27-18.97.02-37.95,0-56.92,0Zm-34.64-28.19c-4-.88-7.67-1.7-12.08-2.67-1.87,5.92-3.71,11.72-5.67,17.93h16.6c.38-5.03.75-9.99,1.15-15.26Zm86.91,15.24c-2.06-6.37-3.93-12.17-5.81-17.98-4.49,1.01-8.15,1.84-11.99,2.71.39,5.22.77,10.24,1.15,15.27h16.64Zm-45.81-25.04c4.56-.35,8.84-.67,13.57-1.04-1.32-5.65-2.45-10.7-3.72-15.72-.15-.61-.95-1.33-1.59-1.5-2.65-.73-5.36-1.28-8.27-1.94v20.2Zm-13.05-20.3c-2.93.69-5.65,1.29-8.34,1.99-.5.13-1.19.6-1.3,1.04-1.33,5.29-2.57,10.61-3.93,16.29,4.9.34,9.14.64,13.56.95v-20.26Zm28.47,32.07c-4.86.29-9.34.51-13.81.87-.55.05-1.47.87-1.49,1.35-.13,3.66-.07,7.33-.07,10.93h16.33c-.32-4.43-.63-8.61-.96-13.15Zm-28.52,13.23v-12.28c-5.1-.34-9.96-.66-15.15-1-.34,4.63-.65,8.94-.96,13.28h16.11Zm-25.97-28.03c.38-2.27.7-4.1,1.01-5.94-.19-.13-.37-.26-.56-.38-1.83,1.68-3.65,3.35-5.81,5.34,2.11.39,3.57.65,5.36.98Zm65.26.02c1.82-.37,3.24-.66,5.28-1.08-2.22-2.03-4.07-3.72-6.55-5.99.51,2.83.85,4.76,1.26,7.08Z"></path><path class="cls-1" d="m214.62,78.6c1.4-1.51,2.28-2.6,3.31-3.55,2.43-2.25,6.05-2.33,8.51-.26,2.52,2.12,3.27,5.76,1.12,8.37-4.71,5.73-9.66,11.28-14.64,16.77-1.84,2.03-4.34,2.48-6.9,1.3-2.65-1.22-3.86-3.41-3.72-6.3.48-9.8-.48-19.41-3.46-28.82-9.85-31.1-38.46-52.59-71.03-53.23-32.43-.64-61.64,19.37-72.8,49.85-.34.94-.63,1.91-1.05,2.82-1.53,3.36-4.95,4.89-8.18,3.7-3.59-1.32-5.09-4.37-3.77-8.24,7.97-23.5,23.11-40.99,45.3-51.83,54.41-26.58,117.51,7.07,127,67.43.07.46.15.93.32,1.98Z"></path><path class="cls-1" d="m90.05,216.73c-1.51-1.43-3.09-2.79-4.52-4.3-2.71-2.84-2.84-6.63-.41-9.17,2.53-2.65,6.3-2.85,9.15-.1,5.5,5.28,10.89,10.68,16.19,16.17,2.71,2.81,2.66,6.34-.09,9.17-5.24,5.4-10.57,10.72-15.97,15.97-2.79,2.71-6.67,2.62-9.16.08-2.47-2.53-2.44-6.36.29-9.17,1.45-1.49,3.24-2.65,4.88-3.96-.24-.39-.47-.79-.71-1.18h-3.1c-24.49,0-48.98,0-73.47,0-.8,0-1.61,0-2.41,0-4.66-.05-7.61-2.42-7.7-6.2-.1-3.85,3.06-6.58,7.71-6.59,25.19-.01,50.39,0,75.58,0h3.3c.15-.24.29-.47.44-.71Z"></path></svg>