<svg xmlns="http://www.w3.org/2000/svg" id="Layer_1" viewBox="0 0 350.44 325.85"><defs><style>.cls-1{fill:#fff;}</style></defs><path class="cls-1" d="m0,179.1v-56.8c12.2-.02,24.41-.06,36.61-.03,4.26,0,5.97,3.02,3.83,6.6-4.68,7.82-9.4,15.62-14.02,23.48-1.94,3.29-2.92,6.91-.59,10.31,2.23,3.26,5.84,3.65,9.51,3.35.57-.05,1.12-.2,1.69-.28,9.03-1.26,18.07-2.44,27.07-3.85,2.31-.36,3.4.2,4.48,2.3,4.73,9.22,9.65,18.35,14.54,27.49,3.59,6.71,8.24,7.79,14.57,3.44,3.85-2.65,7.62-5.42,11.52-7.99,3.61-2.39,5.11-5.5,4.55-9.87-1.44-11.3-2.54-22.65-4.11-33.94-.51-3.7.3-5.69,3.8-7.36,6.88-3.28,13.5-7.11,20.23-10.71,3.39-1.82,6.78-3.64,10.28-5.51.68,1.26,1.25,2.24,1.76,3.25,10.47,20.62,20.9,41.25,31.4,61.85,3.28,6.44,8.1,7.68,14,3.62,7.98-5.49,15.87-11.12,23.85-16.62,3.22-2.22,4.68-5.1,4.21-9.04-.91-7.58-1.73-15.17-2.58-22.76-.65-5.82-1.28-11.64-1.92-17.51h30.74c0,1.48,0,2.71,0,3.95,0,5.25-.1,10.5.06,15.74.15,5.03,3.5,8.3,8.12,8.3,4.62,0,7.9-3.27,8.11-8.32.16-3.76.05-7.53.06-11.29,0-2.8,0-5.6,0-8.43h88.36c.12.48.26.8.26,1.12.02,17.91.06,35.81-.08,53.72,0,1.04-1.26,2.53-2.31,3.02-18.46,8.73-28.71,23.31-28.77,43.62-.07,20.32,10.09,35.02,28.57,43.67,2.16,1.01,2.67,2.17,2.66,4.35-.08,16.77-.05,33.53-.05,50.3v3.43h-88.64c0-1.53,0-2.86,0-4.2-.05-5.81.1-11.64-.23-17.44-.23-4.14-3.78-7.08-7.82-7.15-4.15-.08-7.69,2.98-8.13,7.23-.23,2.26-.15,4.55-.16,6.83-.02,4.86,0,9.72,0,14.91-1.86,0-3.21,0-4.56,0-78.93,0-157.85,0-236.78-.01-1.36,0-2.71-.18-4.07-.28,0-18.93,0-37.87,0-56.8,17.11-4.42,31.34-23.27,32.09-42.51.83-21.23-11.37-39.16-32.09-47.15Zm136.18,75.28c-13.11,0-26.22,0-39.33,0-10.03,0-20.06-.04-30.1.02-5.62.04-9.15,3.82-8.67,9.09.4,4.34,3.82,7.28,8.81,7.28,46.28.03,92.57.02,138.85.01.57,0,1.15-.01,1.7-.1,4.89-.79,7.88-5.2,6.8-10.05-.87-3.95-4.1-6.24-8.99-6.24-23.03-.02-46.06,0-69.08,0Zm-15.38-30.79c17.89,0,35.78.03,53.68-.02,5.07-.01,8.71-3.51,8.74-8.13.03-4.61-3.59-8.06-8.66-8.25-.8-.03-1.6,0-2.39,0-34.42,0-68.83,0-103.25,0-1.14,0-2.29-.05-3.42.07-4.47.49-7.51,3.91-7.45,8.29.07,4.88,3.56,8.03,9.08,8.04,17.89.03,35.78,0,53.68,0Zm124.61-33.54c0,5.02-.07,10.04.02,15.05.1,5.55,3.29,8.99,8.15,8.99,4.84,0,8.09-3.44,8.14-9,.09-10.03.1-20.07,0-30.1-.05-5.56-3.3-8.98-8.16-8.98-4.85,0-8.04,3.44-8.13,9-.09,5.02-.02,10.03-.02,15.05Zm0,66.04c0,4.78-.07,9.57.02,14.35.1,5.44,3.45,9.05,8.18,9.02,4.72-.03,8.05-3.63,8.11-9.11.09-9.34.1-18.68-.01-28.02-.06-5.3-3.33-8.71-8.01-8.79-4.8-.08-8.15,3.45-8.27,8.88-.1,4.55-.02,9.11-.02,13.67Z"></path><path class="cls-1" d="m94,177.2c-4.66-8.77-9.3-17.51-13.95-26.25-3.21-6.03-4.89-6.95-11.71-6.09-6.44.8-12.85,1.73-19.92,2.69,3.29-5.53,6.34-10.65,9.39-15.77,3.93-6.58,3.72-8.78-1.41-14.53-6.45-7.23-12.9-14.45-19.42-21.74,1.31-2.18,2.8-2.16,4.83-1.12,10.85,5.54,21.75,10.99,32.64,16.45,5.42,2.72,7.82,2.36,12.3-1.78,30.44-28.08,61.88-54.96,95.32-79.43,9.4-6.88,19.19-13.19,30.8-15.77,5.11-1.14,10.23-1.12,14.83,1.94,6.41,4.26,8.87,12.22,6,19.65-2.36,6.11-6.32,11.29-11.45,15.1-11.41,8.48-22.9,16.94-34.92,24.52-28.72,18.11-58.35,34.68-88.6,50.11-5.9,3.01-7.03,5.07-6.26,11.76,1.38,12,2.73,24,4.3,35.98.32,2.45-.33,3.64-2.79,4.29Z"></path><path class="cls-1" d="m156.78,112.54c12.62-7.47,24.86-14.71,37.56-22.22.69,5.71,1.38,11.07,1.99,16.44,1.95,17.1,3.9,34.2,5.76,51.31.11,1.05-.16,2.67-.87,3.21-4.16,3.16-8.51,6.07-13.2,9.34-10.46-19.44-20.79-38.64-31.24-58.07Z"></path><path class="cls-1" d="m118.94,58.59c-14.72-16.47-29.15-32.6-43.84-49.03,4.59-3.21,9.01-6.38,13.54-9.36.62-.4,1.98-.13,2.78.27,20.29,10.04,40.56,20.15,61.35,30.5-11.37,9.28-22.48,18.35-33.83,27.62Z"></path></svg>