<?xml version="1.0" encoding="utf-8"?>
<!-- Generator: Adobe Illustrator 22.0.0, SVG Export Plug-In . SVG Version: 6.00 Build 0)  -->
<svg version="1.1" id="Layer_1" xmlns="http://www.w3.org/2000/svg" xmlns:xlink="http://www.w3.org/1999/xlink" x="0px" y="0px"
	 viewBox="0 0 141.6 57" style="enable-background:new 0 0 141.6 57;" xml:space="preserve">
<style type="text/css">
	.st0{fill-rule:evenodd;clip-rule:evenodd;fill:#B62126;}
	.st1{fill:#58595B;}
</style>
<g>
	<g>
		<g>
			<path class="st0" d="M2.8,1.1c0,0,12.8-0.7,17.7,18.6c4.7,17,5.1,31.2,30.9,35.8c0,0-15.8,2.8-25.8-7c-5.4-5.6-7.9-17.1-9.9-24.3
				C13.7,16.9,10.2,6.2,2.8,1.1z"/>
			<path class="st0" d="M16.2,2.8c0,0,12.4,4.7,15.7,22.3c2.6,13.4,4.4,20.3,10.3,24.6c0,0-10.2-2.2-13.8-16.1
				C25.2,20.5,24.3,12.4,16.2,2.8z"/>
			<path class="st0" d="M34.2,17.7c0,0,5.2,6.2,7.4,19.1c1.7,9.5,4.9,13,5.7,13.6c0,0-6.7-2-9.8-16.4C35,22,35.3,20.9,34.2,17.7z"/>
		</g>
	</g>
	<g>
		<g>
			<path class="st1" d="M58.7,35.8h-5.9c-0.1,0.1-0.1,0.3-0.2,0.4c0,0.1-0.1,0.2-0.2,0.4v0c-0.1,0.2-0.2,0.5-0.3,0.8
				c-0.1,0.3-0.3,0.5-0.3,0.7h-3l5.4-12h3l5.6,12h-3L58.7,35.8z M57.8,33.5c-0.2-0.3-0.3-0.7-0.5-1c-0.2-0.4-0.3-0.7-0.5-1
				c-0.1-0.2-0.2-0.4-0.3-0.6c-0.1-0.2-0.2-0.3-0.2-0.5c-0.1-0.2-0.1-0.3-0.2-0.5c-0.1-0.2-0.2-0.4-0.3-0.7
				c-0.1,0.3-0.3,0.6-0.4,0.9c-0.1,0.3-0.3,0.6-0.4,0.9c-0.1,0.2-0.2,0.5-0.3,0.7c-0.1,0.2-0.2,0.4-0.3,0.6
				c-0.1,0.2-0.2,0.4-0.3,0.6c-0.1,0.2-0.2,0.4-0.3,0.7H57.8z"/>
			<path class="st1" d="M66.1,28.4v2.3h6.8v2.3h-6.8v2.6h7.1V38h-9.8v-12h9.8v2.4H66.1z"/>
			<path class="st1" d="M73.9,38v-12h7c1.6,0,2.7,0.3,3.4,0.8c0.4,0.3,0.7,0.7,0.9,1.2c0.2,0.5,0.3,1.1,0.3,1.7c0,0.4,0,0.8-0.1,1.1
				c-0.1,0.4-0.1,0.7-0.2,1c-0.1,0.1-0.2,0.3-0.2,0.4c-0.1,0.1-0.2,0.2-0.4,0.3c0.2,0.2,0.4,0.5,0.6,0.9c0.1,0.4,0.2,0.7,0.2,1.1V38
				h-2.8v-3.1c0-0.5-0.2-0.8-0.5-0.9c-0.3-0.2-0.8-0.3-1.4-0.3h-3.9V38H73.9z M76.7,31.4h3.7c0.9,0,1.5-0.1,1.9-0.3v0
				c0.2-0.1,0.4-0.5,0.4-1.1c0-0.3,0-0.6-0.1-0.8c0-0.2-0.1-0.4-0.2-0.6c-0.2-0.2-0.6-0.3-1.4-0.3h-4.2V31.4z"/>
			<path class="st1" d="M86.6,31.6c0-0.8,0-1.5,0.1-2.1c0.1-0.6,0.2-1.2,0.4-1.7c0.2-0.6,0.7-1.1,1.5-1.4c0.7-0.3,1.7-0.5,3-0.5h0.7
				c1,0,1.8,0,2.5,0.1c0.7,0.1,1.3,0.2,1.8,0.4h0c0.6,0.2,1.1,0.6,1.3,1.3c0.3,0.6,0.4,1.4,0.4,2.4v0.8c0,0.5,0,1,0,1.5
				c0,0.5,0,1,0,1.5c0,0.7-0.1,1.4-0.3,1.9c-0.2,0.5-0.5,1-0.9,1.3v0c-0.7,0.6-2,1-3.9,1h-0.6c-0.1,0-0.2,0-0.3,0
				c-0.1,0-0.2,0-0.3,0c-0.8,0-1.5-0.1-2.1-0.2c-0.6-0.1-1.1-0.3-1.6-0.5c-1-0.5-1.6-1.6-1.7-3.2c0-0.3,0-0.7,0-1.1
				c0-0.4,0-0.7,0-1.1V31.6z M89.4,32.2l0,1.7c0,0.9,0.1,1.4,0.4,1.6c0.3,0.2,1,0.3,2.2,0.3c1.4,0,2.4-0.1,2.9-0.3
				c0.4-0.1,0.6-0.7,0.6-1.7v-0.9c0-0.1,0-0.3,0-0.4s0-0.3,0-0.5v-1.7c0-1-0.1-1.5-0.4-1.7c-0.3-0.1-0.6-0.2-1.1-0.2
				c-0.5-0.1-1-0.1-1.7-0.1h-0.5c-1,0-1.7,0.1-2,0.3h0c-0.2,0.2-0.4,0.7-0.4,1.6L89.4,32.2z"/>
			<path class="st1" d="M104.8,31.4h6.9c0.1,0.5,0.1,0.8,0.1,1c0,0.2,0,0.4,0,0.6V34c0,0.9-0.2,1.7-0.5,2.5
				c-0.4,0.9-1.3,1.4-2.9,1.5c-0.5,0-0.9,0.1-1.4,0.1c-0.5,0-0.9,0-1.4,0c-2.3,0-3.9-0.3-4.7-0.9c-1-0.6-1.4-1.9-1.4-3.8
				c0-0.2,0-0.5,0-0.7c0-0.2,0-0.5,0-0.8v-1.4c0-1.6,0.4-2.8,1.2-3.5c0.8-0.7,2.1-1.1,4.1-1.1c0.3,0,0.5,0,0.8,0c0.3,0,0.5,0,0.8,0
				h0.4h1.2c0.7,0,1.3,0.1,1.8,0.3c0.5,0.2,0.9,0.4,1.2,0.7c0.3,0.3,0.5,0.6,0.6,1.1c0.1,0.4,0.2,0.9,0.2,1.4v1.1H109
				c0-1-0.1-1.6-0.2-1.8c-0.1-0.2-0.4-0.2-1.1-0.2c-0.5,0-0.9,0-1.4,0c-0.5,0-0.9,0-1.4,0c-1.2,0-1.9,0.1-2.2,0.3
				c-0.1,0.1-0.2,0.3-0.3,0.7c-0.1,0.3-0.1,0.8-0.1,1.3c0,0.1,0,0.2,0,0.3c0,0.1,0,0.2,0,0.3V32l0,1.5c0,0.6,0.1,1.1,0.2,1.6v0
				c0.1,0.3,0.5,0.5,1.2,0.6c0.3,0,0.6,0.1,1,0.1c0.2,0,0.4,0,0.5,0c0.2,0,0.4,0,0.5,0h0.7c1.1,0,1.8-0.1,2.1-0.3
				c0.1-0.1,0.2-0.3,0.2-0.5c0.1-0.2,0.1-0.5,0.1-0.9v-0.3h-4.2V31.4z"/>
			<path class="st1" d="M113,31.6c0-0.8,0-1.5,0.1-2.1c0.1-0.6,0.2-1.2,0.4-1.7c0.2-0.6,0.7-1.1,1.5-1.4c0.7-0.3,1.7-0.5,3-0.5h0.7
				c1,0,1.8,0,2.5,0.1c0.7,0.1,1.3,0.2,1.8,0.4h0c0.6,0.2,1.1,0.6,1.3,1.3c0.3,0.6,0.4,1.4,0.4,2.4v0.8c0,0.5,0,1,0,1.5
				c0,0.5,0,1,0,1.5c0,0.7-0.1,1.4-0.3,1.9c-0.2,0.5-0.5,1-0.9,1.3v0c-0.7,0.6-2,1-3.9,1H119c-0.1,0-0.2,0-0.3,0c-0.1,0-0.2,0-0.3,0
				c-0.8,0-1.5-0.1-2.1-0.2c-0.6-0.1-1.1-0.3-1.6-0.5c-1-0.5-1.6-1.6-1.7-3.2c0-0.3,0-0.7,0-1.1c0-0.4,0-0.7,0-1.1V31.6z
				 M115.8,32.2l0,1.7c0,0.9,0.1,1.4,0.4,1.6c0.3,0.2,1,0.3,2.2,0.3c1.4,0,2.4-0.1,2.9-0.3c0.4-0.1,0.6-0.7,0.6-1.7v-0.9
				c0-0.1,0-0.3,0-0.4s0-0.3,0-0.5v-1.7c0-1-0.1-1.5-0.4-1.7c-0.3-0.1-0.6-0.2-1.1-0.2c-0.5-0.1-1-0.1-1.7-0.1h-0.5
				c-1,0-1.7,0.1-2,0.3h0c-0.2,0.2-0.4,0.7-0.4,1.6L115.8,32.2z"/>
			<path class="st1" d="M138.7,26.1v12h-3.4l-6.5-8.4V38H126v-12h3.4l6.5,8.4v-8.4H138.7z"/>
		</g>
	</g>
</g>
</svg>
