<svg xmlns="http://www.w3.org/2000/svg" xmlns:xlink="http://www.w3.org/1999/xlink" id="Layer_1" x="0px" y="0px" viewBox="0 0 300.8 121.9" style="enable-background:new 0 0 300.8 121.9;" xml:space="preserve"><style type="text/css">	.st0{fill-rule:evenodd;clip-rule:evenodd;fill:#B72126;}	.st1{fill:#FFFFFF;}</style><g>	<g>		<g>			<path class="st0" d="M0.9,0.8c0,0,28.2-1.6,38.9,40.8c10.3,37.4,11.2,68.6,68,78.8c0,0-34.8,6.1-56.8-15.4    C39.3,92.7,33.6,67.4,29.3,51.5C24.9,35.5,17.2,11.9,0.9,0.8z"></path>			<path class="st0" d="M30.3,4.5c0,0,27.3,10.4,34.5,49.1c5.7,29.4,9.7,44.6,22.7,54.2c0,0-22.4-4.9-30.3-35.5    C50.1,43.5,48.2,25.5,30.3,4.5z"></path>			<path class="st0" d="M69.9,37.2c0,0,11.4,13.5,16.3,42.1c3.8,20.8,10.8,28.6,12.6,29.9c0,0-14.7-4.4-21.6-36.1    C71.8,46.7,72.4,44.3,69.9,37.2z"></path>		</g>	</g>	<g>		<g>			<path class="st1" d="M123.9,77h-13c-0.1,0.3-0.2,0.6-0.3,0.8c-0.1,0.3-0.2,0.5-0.4,0.8v0c-0.2,0.5-0.5,1.1-0.8,1.7    c-0.3,0.6-0.6,1.2-0.8,1.6h-6.7l12-26.3h6.5l12.3,26.3h-6.6L123.9,77z M121.8,72c-0.3-0.7-0.7-1.5-1.1-2.3    c-0.4-0.8-0.7-1.5-1-2.2c-0.2-0.5-0.4-0.9-0.6-1.3c-0.2-0.4-0.3-0.7-0.5-1.1c-0.2-0.4-0.3-0.7-0.5-1.1c-0.2-0.4-0.4-0.9-0.7-1.5    c-0.3,0.7-0.6,1.3-0.9,2c-0.3,0.6-0.6,1.3-0.9,1.9c-0.2,0.5-0.4,1-0.6,1.4c-0.2,0.4-0.4,0.9-0.6,1.3c-0.2,0.4-0.4,0.8-0.6,1.3    c-0.2,0.5-0.5,1-0.7,1.6H121.8z"></path>			<path class="st1" d="M140.1,60.8v5H155V71h-14.9v5.8h15.5v5.1H134V55.6h21.6v5.3H140.1z"></path>			<path class="st1" d="M157.2,81.9V55.6h15.3c3.4,0,5.9,0.6,7.5,1.8c0.8,0.7,1.5,1.5,1.9,2.6c0.5,1.1,0.7,2.3,0.7,3.8    c0,0.9-0.1,1.7-0.2,2.5c-0.1,0.8-0.3,1.5-0.5,2.1c-0.2,0.3-0.3,0.6-0.5,0.9c-0.2,0.3-0.5,0.5-0.8,0.8c0.5,0.5,0.9,1.2,1.3,2    c0.3,0.8,0.5,1.6,0.5,2.5v7.4H176v-6.8c0-1-0.3-1.7-1-2c-0.7-0.4-1.7-0.6-3.1-0.6h-8.5v9.4H157.2z M163.4,67.4h8.1    c1.9,0,3.3-0.2,4.1-0.7v0c0.5-0.3,0.8-1.1,0.8-2.3c0-0.7-0.1-1.3-0.2-1.8c-0.1-0.5-0.2-0.9-0.4-1.2c-0.3-0.4-1.4-0.6-3.2-0.6    h-9.2V67.4z"></path>			<path class="st1" d="M185.2,67.8c0-1.7,0.1-3.3,0.3-4.7c0.2-1.4,0.5-2.6,1-3.7c0.5-1.4,1.6-2.4,3.2-3c1.6-0.7,3.8-1,6.5-1h1.5    c2.1,0,3.9,0.1,5.5,0.3c1.6,0.2,2.9,0.5,4,1h0c1.3,0.5,2.3,1.4,3,2.8c0.6,1.3,1,3.1,1,5.3v1.7c0,1.1,0,2.2,0,3.4    c0,1.1,0,2.3-0.1,3.4c-0.1,1.6-0.3,3-0.7,4.2c-0.4,1.2-1.1,2.2-2,2.9v0c-1.6,1.4-4.4,2.1-8.5,2.1h-1.4c-0.3,0-0.5,0-0.6,0    c-0.2,0-0.4,0-0.6,0c-1.8,0-3.3-0.1-4.7-0.4c-1.3-0.2-2.5-0.6-3.5-1c-2.2-1.2-3.5-3.5-3.7-7c0-0.8,0-1.5,0-2.3c0-0.8,0-1.6,0-2.3    V67.8z M191.4,69.1l0,3.7c0.1,1.9,0.3,3.1,0.8,3.5c0.6,0.5,2.2,0.7,4.8,0.7c3.1,0,5.2-0.2,6.4-0.7c0.8-0.3,1.3-1.6,1.3-3.8v-1.9    c0-0.3,0-0.6,0-1s0-0.7,0-1v-3.8c0-2.2-0.3-3.4-0.9-3.7c-0.6-0.2-1.4-0.4-2.4-0.5c-1-0.1-2.3-0.2-3.8-0.2h-1.1    c-2.3,0-3.7,0.2-4.4,0.7h0c-0.5,0.4-0.8,1.6-0.9,3.6L191.4,69.1z"></path>			<path class="st1" d="M225.2,67.4h15.3c0.1,1,0.2,1.7,0.2,2.2c0,0.5,0,0.9,0,1.3v2.1c0,2-0.4,3.8-1.1,5.5c-0.8,1.9-2.9,3-6.3,3.4    c-1,0.1-2,0.1-3,0.2c-1,0-2.1,0-3.1,0c-5,0-8.5-0.6-10.4-1.9c-2.1-1.4-3.2-4.1-3.2-8.3c0-0.5,0-1.1,0-1.6c0-0.5,0-1.1,0-1.7v-3.1    c0-3.5,0.9-6.1,2.6-7.7c1.7-1.6,4.7-2.4,9-2.4c0.6,0,1.2,0,1.8,0c0.6,0,1.2,0,1.8,0h0.8h2.6c1.5,0.1,2.8,0.2,3.9,0.6    c1.1,0.3,1.9,0.8,2.6,1.5c0.6,0.6,1.1,1.4,1.4,2.4c0.3,0.9,0.4,2,0.4,3.2v2.3h-6.1c0-2.1-0.2-3.5-0.5-4c-0.2-0.3-1-0.5-2.4-0.5    c-1-0.1-2-0.1-3-0.1c-1,0-2,0-3,0c-2.7,0-4.3,0.2-4.8,0.7c-0.2,0.2-0.4,0.7-0.6,1.4c-0.1,0.7-0.2,1.7-0.3,2.9c0,0.3,0,0.5,0,0.7    c0,0.2,0,0.5,0,0.7v1.5l0,3.3c0,1.3,0.2,2.5,0.5,3.5v0c0.2,0.7,1.1,1.1,2.6,1.3c0.7,0.1,1.4,0.1,2.2,0.1c0.4,0,0.8,0,1.2,0    c0.4,0,0.8,0,1.2,0h1.6c2.4,0,3.9-0.2,4.6-0.6c0.2-0.2,0.4-0.6,0.5-1.1c0.1-0.5,0.2-1.2,0.2-2v-0.6h-9.3V67.4z"></path>			<path class="st1" d="M243.4,67.8c0-1.7,0.1-3.3,0.3-4.7c0.2-1.4,0.5-2.6,1-3.7c0.5-1.4,1.6-2.4,3.2-3c1.6-0.7,3.8-1,6.5-1h1.5    c2.1,0,3.9,0.1,5.5,0.3c1.6,0.2,2.9,0.5,4,1h0c1.3,0.5,2.3,1.4,3,2.8c0.6,1.3,1,3.1,1,5.3v1.7c0,1.1,0,2.2,0,3.4    c0,1.1,0,2.3-0.1,3.4c-0.1,1.6-0.3,3-0.7,4.2c-0.4,1.2-1.1,2.2-2,2.9v0c-1.6,1.4-4.4,2.1-8.5,2.1h-1.4c-0.3,0-0.5,0-0.6,0    c-0.2,0-0.4,0-0.6,0c-1.8,0-3.3-0.1-4.7-0.4c-1.3-0.2-2.5-0.6-3.5-1c-2.2-1.2-3.5-3.5-3.7-7c0-0.8,0-1.5,0-2.3c0-0.8,0-1.6,0-2.3    V67.8z M249.6,69.1l0,3.7c0.1,1.9,0.3,3.1,0.8,3.5c0.6,0.5,2.2,0.7,4.8,0.7c3.1,0,5.2-0.2,6.4-0.7c0.8-0.3,1.3-1.6,1.3-3.8v-1.9    c0-0.3,0-0.6,0-1s0-0.7,0-1v-3.8c0-2.2-0.3-3.4-0.9-3.7c-0.6-0.2-1.4-0.4-2.4-0.5c-1-0.1-2.3-0.2-3.8-0.2h-1.1    c-2.2,0-3.7,0.2-4.4,0.7h0c-0.5,0.4-0.8,1.6-0.9,3.6L249.6,69.1z"></path>			<path class="st1" d="M299.9,55.6v26.3h-7.5l-14.4-18.4v18.4H272V55.6h7.5l14.4,18.6V55.6H299.9z"></path>		</g>	</g></g></svg>