<svg xmlns="http://www.w3.org/2000/svg" width="590" height="587" viewBox="0 0 590 587" fill="none"><path d="M43.6549 354.983C-60.3415 241.854 47.2503 91.8192 100.728 48.0643C450.131 -186.563 587.734 524.295 354.376 331.52C121.018 138.745 173.65 496.394 43.6549 354.983Z" fill="url(#paint0_linear_56_28)" fill-opacity="0.8"></path><path d="M290.393 507.734L290.342 521.65L274.689 501.087L298.608 499.483L290.393 507.734Z" stroke="#FF7277" stroke-width="2" stroke-linecap="round"></path><path d="M290.393 507.734L275.712 501.697" stroke="#FF7277" stroke-width="2" stroke-linecap="round"></path><path d="M475.438 195.173C520.882 333.663 511.458 543.968 291.579 509.196" stroke="#FF7277" stroke-width="3" stroke-linecap="round" stroke-dasharray="5 5"></path><path d="M312.469 197.283H298.25V185.908C298.25 184.344 296.97 183.064 295.406 183.064C293.842 183.064 292.562 184.344 292.562 185.908V197.283H275.5V151.783H292.562V174.533C292.562 176.097 293.842 177.376 295.406 177.376C296.97 177.376 298.25 176.097 298.25 174.533V151.783H306.781C308.132 151.818 309.305 150.93 309.625 149.614L315.312 126.864C315.526 126.011 315.348 125.123 314.815 124.412C314.246 123.701 313.393 123.31 312.469 123.345H309.625V114.814C309.625 113.25 308.345 111.97 306.781 111.97H305.039L309.625 98.6757C309.909 97.8226 309.767 96.8628 309.234 96.1163C308.665 95.3343 307.741 94.8722 306.781 94.9077H295.406V89.2202C295.406 82.9284 290.323 77.8452 284.031 77.8452C277.739 77.8452 272.656 82.9284 272.656 89.2202V94.9077H261.281C260.357 94.9077 259.504 95.3698 258.971 96.1163C258.438 96.8628 258.295 97.8226 258.58 98.6757L263.023 111.97H261.281C259.717 111.97 258.438 113.25 258.438 114.814V123.345H255.594C254.705 123.345 253.888 123.736 253.354 124.412C252.821 125.087 252.643 126.011 252.857 126.864L258.544 149.614C258.864 150.894 260.002 151.783 261.317 151.783H269.848V174.106L147.922 157.47C146.358 157.257 144.936 158.323 144.723 159.887C144.688 160.03 144.688 160.172 144.688 160.314V171.689C144.688 173.111 145.718 174.319 147.14 174.533L269.812 191.24V197.283H161.75V184.628C161.75 183.064 160.47 181.784 158.906 181.784C157.342 181.784 156.062 183.064 156.062 184.628V234.251C156.062 235.816 157.342 237.095 158.906 237.095H312.469C314.033 237.095 315.312 235.816 315.312 234.251V200.126C315.312 198.562 314.033 197.283 312.469 197.283ZM277.491 146.095L275.784 129.033H292.278L290.572 146.095H277.491ZM304.577 146.095H296.295L298.001 129.033H308.843L304.577 146.095ZM299.032 111.97H293.629L295.051 100.595H302.8L299.032 111.97ZM278.699 100.595H289.363L287.941 111.97H280.121L278.699 100.595ZM278.344 89.2202C278.344 86.0921 280.903 83.5327 284.031 83.5327C287.159 83.5327 289.719 86.0921 289.719 89.2202V94.9077H278.344V89.2202ZM265.227 100.595H273.012L274.434 111.97H269.03L265.227 100.595ZM264.125 117.658H303.938V123.345H264.125V117.658ZM259.22 129.033H270.061L271.768 146.095H263.485L259.22 129.033ZM150.375 169.201V163.513L269.812 179.794V185.481L150.375 169.201ZM309.625 231.408H161.75V202.97H309.625V231.408Z" fill="white"></path><path d="M175.969 208.658C174.405 208.658 173.125 209.937 173.125 211.501V222.876C173.125 224.441 174.405 225.72 175.969 225.72H295.406C296.97 225.72 298.25 224.441 298.25 222.876C298.25 221.312 296.97 220.033 295.406 220.033H278.344V214.345H295.406C296.97 214.345 298.25 213.066 298.25 211.501C298.25 209.937 296.97 208.658 295.406 208.658H175.969ZM218.625 214.345H232.844V220.033H218.625V214.345ZM212.938 220.033H198.719V214.345H212.938V220.033ZM238.531 214.345H252.75V220.033H238.531V214.345ZM178.812 214.345H193.031V220.033H178.812V214.345ZM272.656 220.033H258.438V214.345H272.656V220.033Z" fill="white"></path><path d="M184.5 191.595C186.064 191.595 187.344 190.316 187.344 188.751C187.344 187.187 186.064 185.908 184.5 185.908H170.281C168.717 185.908 167.438 187.187 167.438 188.751C167.438 190.316 168.717 191.595 170.281 191.595H184.5Z" fill="white"></path><path d="M156.063 111.295L173.125 121.248L171.703 123.701C167.758 130.49 170.033 139.199 176.822 143.145C176.893 143.18 176.964 143.216 177.035 143.251C178.386 144.033 180.128 143.536 180.91 142.185L188.019 129.886L200.318 136.995C202.487 138.239 204.904 138.879 207.392 138.915C208.636 138.915 209.916 138.737 211.125 138.417C214.715 137.422 217.808 135.04 219.656 131.805L222.5 126.9L228.187 117.018C228.578 116.378 228.685 115.596 228.472 114.85C228.258 114.139 227.796 113.534 227.156 113.143C221.327 109.731 213.862 110.939 209.383 115.987L199.288 110.157L206.468 97.7515C206.859 97.1116 206.966 96.3296 206.752 95.5831C206.575 94.8722 206.077 94.2323 205.437 93.8413C198.648 89.9312 189.939 92.2417 186.029 99.0312L184.607 101.519L182.118 100.098C172.592 94.5878 160.435 97.8581 154.925 107.385C154.143 108.735 154.641 110.477 155.992 111.259C156.027 111.259 156.063 111.295 156.063 111.295ZM221.753 116.982L219.158 121.461L214.679 118.866C216.599 117.196 219.158 116.52 221.682 116.947L221.753 116.982ZM191.041 101.946C192.818 98.8179 196.337 97.1472 199.892 97.7515L194.453 107.207L189.548 104.363L191.041 101.946ZM168.611 103.652C172.236 102.692 176.111 103.19 179.381 105.074L184.287 107.918L187.593 109.837L208.921 122.137L212.227 124.056L216.315 126.402L214.893 128.891C212.547 132.978 207.321 134.365 203.233 132.019L190.934 124.909L192.356 122.421C193.209 121.106 192.818 119.328 191.467 118.511C190.152 117.658 188.375 118.049 187.557 119.4C187.522 119.471 187.486 119.542 187.45 119.613L177.711 136.462C176.893 135.467 176.289 134.329 175.969 133.085C175.365 130.881 175.684 128.571 176.822 126.616L179.666 121.71L182.509 116.805C183.292 115.454 182.829 113.712 181.479 112.93C180.128 112.148 178.386 112.646 177.604 113.996L176.182 116.485L161.643 107.953C163.492 105.927 165.874 104.47 168.54 103.759L168.611 103.652Z" fill="white"></path><defs><linearGradient id="paint0_linear_56_28" x1="235.008" y1="0" x2="-195.569" y2="661.178" gradientUnits="userSpaceOnUse"><stop stop-color="#E21D21"></stop><stop offset="1"></stop></linearGradient></defs></svg>