<?xml version="1.0" encoding="UTF-8"?>
<svg id="Layer_1" data-name="Layer 1" xmlns="http://www.w3.org/2000/svg" viewBox="0 0 299 179">
  <defs>
    <style>
      .cls-1 {
        fill: #fff;
      }

      .cls-2 {
        fill: none;
      }

      .cls-3 {
        fill: #b72126;
        fill-rule: evenodd;
      }
    </style>
  </defs>
  <g>
    <g>
      <path class="cls-3" d="m0,29.3s28.19-1.56,38.9,40.83c10.35,37.41,11.25,68.61,68.04,78.77,0,0-34.76,6.12-56.82-15.37-11.77-12.28-17.41-37.63-21.79-53.54-4.38-15.92-12.05-39.55-28.33-50.69Z"/>
      <path class="cls-3" d="m29.42,33.02s27.27,10.36,34.5,49.13c5.7,29.4,9.67,44.62,22.71,54.23,0,0-22.44-4.88-30.27-35.53-7.19-28.86-9.12-46.83-26.94-67.83Z"/>
      <path class="cls-3" d="m68.94,65.71s11.43,13.54,16.32,42.05c3.79,20.84,10.78,28.58,12.62,29.93,0,0-14.72-4.44-21.58-36.12-5.44-26.3-4.79-28.72-7.36-35.87Z"/>
    </g>
    <g>
      <path class="cls-1" d="m123.02,105.51h-12.95c-.13.29-.24.56-.33.8-.09.25-.22.53-.37.84v-.04c-.21.5-.47,1.07-.77,1.71-.3.64-.56,1.19-.77,1.63h-6.67l11.97-26.34h6.52l12.33,26.34h-6.63l-2.32-4.95Zm-2.16-5.03c-.34-.73-.69-1.49-1.06-2.28-.37-.79-.71-1.52-1.02-2.2-.24-.5-.44-.93-.61-1.29-.17-.37-.33-.73-.49-1.08-.16-.35-.33-.73-.51-1.14-.18-.4-.4-.91-.67-1.51-.29.68-.58,1.34-.86,1.98-.29.64-.57,1.29-.86,1.94-.24.52-.45,1-.65,1.43s-.39.85-.59,1.25c-.2.41-.41.84-.63,1.3-.22.46-.47.99-.73,1.59h8.68Z"/>
      <path class="cls-1" d="m139.19,89.38v5.02h14.92v5.14h-14.92v5.77h15.55v5.14h-21.63v-26.34h21.63v5.26h-15.55Z"/>
      <path class="cls-1" d="m156.3,110.46v-26.34h15.35c3.43,0,5.91.62,7.46,1.85.84.65,1.48,1.52,1.94,2.59.46,1.07.69,2.34.69,3.81,0,.86-.07,1.68-.2,2.45-.13.77-.31,1.47-.55,2.1-.16.31-.33.61-.53.88-.2.28-.48.53-.84.77.52.52.94,1.18,1.26,1.98.31.8.47,1.63.47,2.49v7.42h-6.24v-6.83c0-.99-.33-1.67-1-2.04-.67-.37-1.71-.55-3.12-.55h-8.52v9.42h-6.16Zm6.16-14.53h8.13c1.91,0,3.27-.22,4.08-.67v.04c.52-.31.79-1.09.79-2.32,0-.68-.05-1.28-.16-1.79-.1-.51-.25-.92-.43-1.24-.34-.42-1.4-.63-3.18-.63h-9.22v6.6Z"/>
      <path class="cls-1" d="m184.29,96.33c0-1.73.1-3.28.29-4.65.2-1.37.52-2.62.96-3.75.5-1.36,1.56-2.37,3.2-3.04,1.64-.67,3.8-1,6.5-1h1.45c2.09,0,3.93.1,5.5.29,1.57.2,2.9.52,4,.96h-.04c1.33.5,2.32,1.42,2.96,2.77.64,1.35.96,3.11.96,5.28v5.04c0,1.14-.03,2.26-.08,3.36-.05,1.6-.3,3-.75,4.2-.44,1.2-1.11,2.16-2,2.87v-.04c-1.62,1.41-4.45,2.12-8.48,2.12h-1.41c-.26-.03-.48-.04-.65-.04h-.57c-1.75,0-3.3-.13-4.65-.37-1.35-.25-2.51-.58-3.47-1-2.23-1.15-3.46-3.48-3.69-6.99-.03-.76-.04-1.54-.04-2.34v-3.67Zm6.2,1.3l.04,3.73c.05,1.91.33,3.06.82,3.46.57.5,2.17.75,4.79.75,3.12,0,5.25-.24,6.4-.71.81-.31,1.25-1.57,1.33-3.77v-1.92c.03-.31.04-.63.04-.96v-4.85c0-2.17-.31-3.4-.94-3.69-.57-.21-1.38-.37-2.39-.49-1.02-.12-2.28-.18-3.77-.18h-1.06c-2.25,0-3.7.22-4.36.67h.04c-.5.42-.78,1.62-.86,3.61l-.08,4.36Z"/>
      <path class="cls-1" d="m224.29,95.93h15.27c.13,1,.2,1.74.22,2.24.01.5.02.94.02,1.33v2.08c0,1.96-.37,3.79-1.1,5.5-.84,1.88-2.93,3.01-6.28,3.38-.99.08-2,.13-3.02.16-1.02.03-2.05.04-3.1.04-5.02,0-8.49-.64-10.4-1.92-2.12-1.36-3.18-4.12-3.18-8.28v-1.65c0-.55.01-1.11.04-1.69v-3.1c0-3.51.86-6.07,2.59-7.7,1.67-1.57,4.68-2.35,9.03-2.35h1.77c.6,0,1.2.01,1.81.04h3.45c1.55.05,2.85.25,3.91.59,1.06.34,1.91.83,2.55,1.47.64.64,1.11,1.43,1.39,2.36.29.93.43,1.98.43,3.16v2.32h-6.08c0-2.12-.18-3.47-.55-4.04-.16-.34-.97-.52-2.44-.55-.99-.05-2-.09-3-.1-1.01-.01-2.01-.02-3-.02-2.67,0-4.27.25-4.79.74-.24.24-.42.71-.57,1.43-.15.72-.23,1.68-.26,2.89,0,.26,0,.51-.02.75-.01.24-.02.47-.02.71v1.49l.04,3.34c0,1.33.17,2.5.51,3.49v-.04c.24.66,1.09,1.07,2.55,1.26.71.08,1.43.12,2.16.12.42.03.82.04,1.2.04h2.85c2.38,0,3.91-.2,4.59-.59.21-.21.39-.57.53-1.1.14-.52.22-1.18.22-1.96v-.63h-9.31v-5.18Z"/>
      <path class="cls-1" d="m242.43,96.33c0-1.73.1-3.28.29-4.65.2-1.37.52-2.62.96-3.75.5-1.36,1.56-2.37,3.2-3.04,1.63-.67,3.8-1,6.5-1h1.45c2.09,0,3.93.1,5.49.29,1.57.2,2.91.52,4,.96h-.04c1.33.5,2.32,1.42,2.96,2.77.64,1.35.96,3.11.96,5.28v5.04c0,1.14-.03,2.26-.08,3.36-.05,1.6-.3,3-.75,4.2-.44,1.2-1.11,2.16-2,2.87v-.04c-1.62,1.41-4.45,2.12-8.48,2.12h-1.41c-.26-.03-.48-.04-.65-.04h-.57c-1.75,0-3.3-.13-4.65-.37-1.35-.25-2.51-.58-3.48-1-2.22-1.15-3.45-3.48-3.69-6.99-.03-.76-.04-1.54-.04-2.34v-3.67Zm6.2,1.3l.04,3.73c.05,1.91.33,3.06.83,3.46.58.5,2.17.75,4.79.75,3.11,0,5.25-.24,6.4-.71.81-.31,1.25-1.57,1.33-3.77v-1.92c.03-.31.04-.63.04-.96v-4.85c0-2.17-.31-3.4-.94-3.69-.58-.21-1.38-.37-2.39-.49-1.02-.12-2.28-.18-3.77-.18h-1.06c-2.25,0-3.7.22-4.36.67h.04c-.5.42-.78,1.62-.86,3.61l-.08,4.36Z"/>
      <path class="cls-1" d="m299,84.12v26.34h-7.5l-14.37-18.37v18.37h-6.09v-26.34h7.5l14.37,18.57v-18.57h6.09Z"/>
    </g>
  </g>
  <rect class="cls-2" width="299" height="179"/>
</svg>