<svg xmlns="http://www.w3.org/2000/svg" xmlns:xlink="http://www.w3.org/1999/xlink" id="Layer_1" x="0px" y="0px" viewBox="0 0 502.8 528.5" style="enable-background:new 0 0 502.8 528.5;" xml:space="preserve"><style type="text/css">	.st0{fill:url(#SVGID_1_);fill-opacity:0.8;}	.st1{fill:none;stroke:#FF7277;stroke-width:2;stroke-linecap:round;}	.st2{fill:none;stroke:#FF7277;stroke-width:3;stroke-linecap:round;stroke-dasharray:5,5;}	.st3{fill:#FFFFFF;}</style><g>			<linearGradient id="SVGID_1_" gradientUnits="userSpaceOnUse" x1="352.9228" y1="513.6323" x2="-77.6542" y2="-147.5457" gradientTransform="matrix(1 0 0 -1 0 591.1781)">		<stop offset="0" style="stop-color:#E21D21"></stop>		<stop offset="1" style="stop-color:#000000"></stop>	</linearGradient>	<path class="st0" d="M45.5,356.9c-75.1-81.7-39.8-182.7,5.7-249C81,64.6,123.4,31.2,173.1,13.9c296.4-103,400.1,498.8,183.1,319.6  C122.9,140.7,175.5,498.3,45.5,356.9z"></path>	<path class="st1" d="M292.2,509.7l-0.1,13.9L276.5,503l23.9-1.6L292.2,509.7z"></path>	<path class="st1" d="M292.2,509.7l-14.7-6"></path>	<path class="st2" d="M477.3,197.1c45.4,138.5,36,348.8-183.9,314"></path>	<g>		<path class="st3" d="M316.6,116L316.6,116L316.6,116l-10.7-1.5c-1.5-0.2-2.5-1.6-2.3-3.1c0.1-0.7,0.5-1.4,1.1-1.8l8.6-6.5   c1.2-0.9,1.5-2.7,0.6-3.9L303.9,86c-0.9-1.2-2.7-1.5-3.9-0.6l0,0l-8.6,6.5c-1.2,0.9-2.9,0.7-3.9-0.5c-0.4-0.6-0.7-1.3-0.5-2.1   l1.5-10.7c0.2-1.5-0.8-2.9-2.3-3.1l0,0l0,0l-16.4-2.3c-1.5-0.2-2.9,0.8-3.1,2.3l0,0l0,0l-1.5,10.7c-0.2,1.5-1.6,2.5-3.1,2.3   c-0.7-0.1-1.4-0.5-1.8-1.1l-6.5-8.7c-0.9-1.2-2.7-1.5-3.9-0.6l0,0l-8.3,6.2c-3.8-0.4-7.5-0.4-11.3,0   c-24.5,2.8-43.8,22.3-46.1,46.9c-0.1,0.8-0.1,1.5-0.1,2.3h-0.9c-1.3,0-2.4,0.9-2.7,2.2l-1.9,9.1l-7.6-5.3   c-1.1-0.8-2.6-0.6-3.5,0.3l-8.3,8.3c-0.9,0.9-1.1,2.4-0.3,3.5l5.2,7.6l-9.1,1.9c-1.3,0.3-2.2,1.4-2.2,2.8v11   c0,1.3,0.9,2.4,2.2,2.7l9.1,1.9l-5.2,7.6c-0.8,1.1-0.6,2.6,0.3,3.5l8.3,8.3c0.9,0.9,2.4,1.1,3.5,0.3l7.6-5.2l1.9,9.1   c0.3,1.3,1.4,2.2,2.7,2.2h11c1.3,0,2.4-0.9,2.7-2.2l1.9-9.1l7.6,5.2c1.1,0.8,2.6,0.6,3.5-0.3l4.3-4.3v7.9c0,3.9,2.1,7.5,5.5,9.5   v15.3c0,6.1,4.9,11,11,11h11c6.1,0,11-4.9,11-11V212c3.4-2,5.5-5.6,5.5-9.5v-10.9c0.1-4.6,2.5-8.8,6.4-11.3c2.3-1.5,4.4-3.1,6.5-5   l-3.7-4.1c-1.8,1.6-3.8,3.1-5.8,4.4c-5.5,3.4-8.8,9.4-8.9,15.9v10.9c0,3-2.5,5.5-5.5,5.5h-22c-3,0-5.5-2.5-5.5-5.5v-11.1   c-0.1-6.3-3.4-12.2-8.7-15.6c-21.8-13.7-28.4-42.5-14.7-64.4c8.5-13.5,23.4-21.8,39.4-21.9c0,0.1-0.1,0.2-0.1,0.3   c-0.1,0.7,0.1,1.4,0.5,2l6.5,8.6c0.7,0.9,0.8,2.1,0.2,3.1c-0.6,1-1.7,1.5-2.8,1.3l-10.7-1.5c-1.5-0.2-2.9,0.8-3.1,2.3l0,0l0,0   l-2.3,16.4c-0.2,1.5,0.8,2.9,2.3,3.1l0,0l10.7,1.5c1.5,0.2,2.5,1.6,2.3,3.1c-0.1,0.7-0.5,1.4-1.1,1.8l-8.6,6.5   c-1.2,0.9-1.5,2.7-0.6,3.9l9.9,13.2c0.9,1.2,2.7,1.5,3.9,0.6l8.7-6.5c1.2-0.9,3-0.7,3.9,0.6c0.4,0.6,0.6,1.3,0.5,2l-1.5,10.7   c-0.2,1.5,0.8,2.9,2.3,3.1l0,0l0,0l16.4,2.3c0.1,0,0.3,0,0.4,0c1.4,0,2.5-1,2.7-2.4l1.5-10.7c0.2-1.5,1.6-2.5,3.1-2.3   c0.7,0.1,1.4,0.5,1.8,1.1l6.5,8.6c0.9,1.2,2.7,1.5,3.9,0.6l0,0l13.2-9.9c1.2-0.9,1.5-2.7,0.6-3.9l-6.5-8.6   c-0.7-0.9-0.8-2.1-0.2-3.1c0.6-1,1.7-1.5,2.8-1.3l10.7,1.5c1.5,0.2,2.9-0.8,3.1-2.3l0,0l0,0l2.3-16.4   C319.1,117.6,318,116.2,316.6,116L316.6,116L316.6,116z M225.2,213.6h22v5.5h-22V213.6z M225.2,224.6h22v2.8c0,3-2.5,5.5-5.5,5.5   h-11c-3,0-5.5-2.5-5.5-5.5V224.6z M203.3,177.1c1.5,1.2,3.1,2.4,4.7,3.4c2.6,1.7,4.5,4.1,5.5,7.1l-5.9,5.9l-5.7-4   c-2.5-1.7-5.9-1.1-7.7,1.4c-0.4,0.6-0.7,1.3-0.9,2l-1.4,6.9h-6.5L184,193c-0.6-3-3.5-4.9-6.5-4.3c-0.7,0.1-1.4,0.4-2,0.9l-5.7,3.9   l-5-5l3.9-5.7c1.7-2.5,1.1-5.9-1.4-7.7c-0.6-0.4-1.3-0.7-2-0.9l-6.8-1.4v-6.5l6.9-1.4c3-0.6,4.9-3.5,4.2-6.5   c-0.1-0.7-0.4-1.4-0.9-2l-3.9-5.8l5-5l5.7,4c2.5,1.7,5.9,1.1,7.7-1.4c0.4-0.6,0.7-1.3,0.9-2l0.5-2.3c0.4,3.2,1.2,6.3,2.2,9.3   c-9.1,1.1-15.5,9.3-14.5,18.4s9.3,15.5,18.4,14.5C196,185.3,200.8,182,203.3,177.1L203.3,177.1z M199,173.2   c-2.1,5.7-8.4,8.7-14.1,6.6c-5.7-2.1-8.7-8.4-6.6-14.1c1.6-4.4,5.7-7.3,10.4-7.3h0.1C191.4,163.9,194.8,168.9,199,173.2z    M311.5,132l-8-1.1c-4.5-0.7-8.7,2.5-9.4,7c-0.3,2.2,0.2,4.4,1.6,6.1l4.9,6.4l-8.8,6.6l-4.9-6.5c-2.8-3.6-7.9-4.4-11.6-1.7   c-1.8,1.3-2.9,3.3-3.2,5.4l-1.1,8l-10.9-1.5l1.1-8c0.7-4.5-2.5-8.7-7-9.4c-2.2-0.3-4.4,0.2-6.1,1.6l-6.4,4.9l-6.6-8.8l6.4-4.9   c3.6-2.8,4.4-7.9,1.7-11.6c-1.3-1.8-3.3-2.9-5.4-3.2l-8-1.1l1.5-10.9l8,1.1c4.5,0.7,8.7-2.5,9.4-7c0.3-2.2-0.2-4.4-1.6-6.1   l-4.9-6.5l8.8-6.6l4.9,6.4c2.8,3.6,7.9,4.4,11.6,1.7c1.8-1.3,2.9-3.3,3.2-5.4l1.1-8l10.9,1.5l-1.1,8c-0.7,4.5,2.5,8.7,7,9.4   c2.2,0.3,4.4-0.2,6.1-1.6l6.4-4.9l6.6,8.9l-6.4,4.8c-3.6,2.8-4.4,7.9-1.7,11.6c1.3,1.8,3.3,2.9,5.4,3.2l8,1.1L311.5,132L311.5,132   z"></path>		<path class="st3" d="M271.4,98.6c-12.2,0-22,9.9-22,22s9.9,22,22,22s22-9.9,22-22C293.4,108.5,283.5,98.6,271.4,98.6z    M271.4,137.2c-9.1,0-16.5-7.4-16.5-16.5s7.4-16.5,16.5-16.5s16.5,7.4,16.5,16.5S280.5,137.2,271.4,137.2z"></path>		<path class="st3" d="M239,194.3v8.3h-5.5v-8.3H239z"></path>		<path class="st3" d="M224.2,167.3c-17-6.6-25.4-25.8-18.8-42.8c2.6-6.6,7.2-12.2,13.2-15.9l-3-4.6c-18,11.4-23.4,35.2-12.1,53.2   c4.4,7,10.9,12.4,18.6,15.4c6.8,2.6,11.3,9.1,11.3,16.4h5.5C239,179.2,233.1,170.7,224.2,167.3L224.2,167.3z"></path>		<path class="st3" d="M307.9,175v5.5h-19.3V175H307.9z"></path>		<path class="st3" d="M287.6,189.4l16.5,13.8l-3.5,4.2l-16.5-13.8L287.6,189.4L287.6,189.4z"></path>		<path class="st3" d="M277.6,197.1v19.3h-5.5v-19.3H277.6z"></path>		<path class="st3" d="M177.8,114.5l1.3,5.3l-22,5.5l-1.3-5.3L177.8,114.5z"></path>		<path class="st3" d="M163.5,87.4l19.3,13.8l-3.2,4.5l-19.3-13.8L163.5,87.4z"></path>		<path class="st3" d="M189.2,72.4l5.6,22l-5.3,1.4l-5.6-22.1L189.2,72.4z"></path>	</g></g></svg>