<svg xmlns="http://www.w3.org/2000/svg" width="61" height="62" viewBox="0 0 61 62" fill="none"><rect x="0.100098" y="0.5" width="60.8" height="60.8" rx="30.4" fill="#E21D21" fill-opacity="0.13"></rect><path fill-rule="evenodd" clip-rule="evenodd" d="M16.7583 44.0859H14.5L15.5488 42.0859L26.6075 20.9984L27.7077 18.9005L28.8894 20.9535L30.8472 24.3551L32.6075 20.9984L33.7077 18.9005L34.8894 20.9535L47.0527 42.0859L48.2039 44.0859H45.8963H42.2039H39.8963H22.7583H20.5H16.7583ZM23.8072 42.0859H38.7451L30.9287 28.5059L23.8072 42.0859ZM29.7471 26.4529L21.5488 42.0859H17.8072L27.7892 23.0514L29.7471 26.4529ZM32.0289 26.4081L41.0527 42.0859H44.7451L33.7892 23.0514L32.0289 26.4081Z" fill="#E21D21"></path></svg>