<svg xmlns="http://www.w3.org/2000/svg" xmlns:xlink="http://www.w3.org/1999/xlink" id="Layer_1" x="0px" y="0px" viewBox="0 0 502.8 528.5" style="enable-background:new 0 0 502.8 528.5;" xml:space="preserve"><style type="text/css">	.st0{fill:url(#SVGID_1_);fill-opacity:0.8;}	.st1{fill:none;stroke:#FF7277;stroke-width:2;stroke-linecap:round;}	.st2{fill:none;stroke:#FF7277;stroke-width:3;stroke-linecap:round;stroke-dasharray:5,5;}	.st3{fill:#FFFFFF;}</style><g>			<linearGradient id="SVGID_1_" gradientUnits="userSpaceOnUse" x1="352.9228" y1="513.6323" x2="-77.6542" y2="-147.5457" gradientTransform="matrix(1 0 0 -1 0 591.1781)">		<stop offset="0" style="stop-color:#E21D21"></stop>		<stop offset="1" style="stop-color:#000000"></stop>	</linearGradient>	<path class="st0" d="M45.5,356.9c-75.1-81.7-39.8-182.7,5.7-249C81,64.6,123.4,31.2,173.1,13.9c296.4-103,400.1,498.8,183.1,319.6  C122.9,140.7,175.5,498.3,45.5,356.9z"></path>	<path class="st1" d="M292.2,509.7l-0.1,13.9L276.5,503l23.9-1.6L292.2,509.7z"></path>	<path class="st1" d="M292.2,509.7l-14.7-6"></path>	<path class="st2" d="M477.3,197.1c45.4,138.5,36,348.8-183.9,314"></path>	<path class="st3" d="M314.3,199.2h-14.2v-11.4c0-1.6-1.3-2.8-2.8-2.8s-2.8,1.3-2.8,2.8v11.4h-17.1v-45.5h17.1v22.8  c0,1.6,1.3,2.8,2.8,2.8s2.8-1.3,2.8-2.8v-22.8h8.5c1.4,0,2.5-0.9,2.8-2.2l5.7-22.8c0.2-0.9,0-1.7-0.5-2.5c-0.6-0.7-1.4-1.1-2.3-1.1  h-2.8v-8.5c0-1.6-1.3-2.8-2.8-2.8h-1.7l4.6-13.3c0.3-0.9,0.1-1.8-0.4-2.6c-0.6-0.8-1.5-1.2-2.5-1.2h-11.4v-5.7  c0-6.3-5.1-11.4-11.4-11.4s-11.4,5.1-11.4,11.4v5.7h-11.4c-0.9,0-1.8,0.5-2.3,1.2c-0.5,0.7-0.7,1.7-0.4,2.6l4.4,13.3h-1.7  c-1.6,0-2.8,1.3-2.8,2.8v8.5h-2.8c-0.9,0-1.7,0.4-2.2,1.1c-0.5,0.7-0.7,1.6-0.5,2.5l5.7,22.8c0.3,1.3,1.5,2.2,2.8,2.2h8.5v22.3  l-121.9-16.6c-1.6-0.2-3,0.9-3.2,2.4c0,0.1,0,0.3,0,0.4v11.4c0,1.4,1,2.6,2.5,2.8l122.7,16.7v6H163.6v-12.7c0-1.6-1.3-2.8-2.8-2.8  c-1.6,0-2.8,1.3-2.8,2.8v49.6c0,1.6,1.3,2.8,2.8,2.8h153.6c1.6,0,2.8-1.3,2.8-2.8v-34.1C317.1,200.5,315.9,199.2,314.3,199.2z   M279.3,148l-1.7-17.1h16.5l-1.7,17.1H279.3z M306.4,148h-8.3l1.7-17.1h10.8L306.4,148z M300.9,113.9h-5.4l1.4-11.4h7.7  L300.9,113.9z M280.5,102.5h10.7l-1.4,11.4H282L280.5,102.5z M280.2,91.2c0-3.1,2.6-5.7,5.7-5.7s5.7,2.6,5.7,5.7v5.7h-11.4V91.2z   M267.1,102.5h7.8l1.4,11.4h-5.4L267.1,102.5z M266,119.6h39.8v5.7H266V119.6z M261.1,131h10.8l1.7,17.1h-8.3L261.1,131z   M152.2,171.2v-5.7l119.4,16.3v5.7L152.2,171.2z M311.5,233.4H163.6v-28.4h147.9V233.4z"></path>	<path class="st3" d="M177.8,210.6c-1.6,0-2.8,1.3-2.8,2.8v11.4c0,1.6,1.3,2.8,2.8,2.8h119.4c1.6,0,2.8-1.3,2.8-2.8  c0-1.6-1.3-2.8-2.8-2.8h-17.1v-5.7h17.1c1.6,0,2.8-1.3,2.8-2.8c0-1.6-1.3-2.8-2.8-2.8H177.8z M220.5,216.3h14.2v5.7h-14.2V216.3z   M214.8,222h-14.2v-5.7h14.2V222z M240.4,216.3h14.2v5.7h-14.2V216.3z M180.6,216.3h14.2v5.7h-14.2V216.3z M274.5,222h-14.2v-5.7  h14.2V222z"></path>	<path class="st3" d="M186.3,193.5c1.6,0,2.8-1.3,2.8-2.8c0-1.6-1.3-2.8-2.8-2.8h-14.2c-1.6,0-2.8,1.3-2.8,2.8  c0,1.6,1.3,2.8,2.8,2.8H186.3z"></path>	<path class="st3" d="M157.9,113.2l17.1,10l-1.4,2.5c-3.9,6.8-1.7,15.5,5.1,19.4c0.1,0,0.1,0.1,0.2,0.1c1.4,0.8,3.1,0.3,3.9-1.1  l7.1-12.3l12.3,7.1c2.2,1.2,4.6,1.9,7.1,1.9c1.2,0,2.5-0.2,3.7-0.5c3.6-1,6.7-3.4,8.5-6.6l2.8-4.9l5.7-9.9c0.4-0.6,0.5-1.4,0.3-2.2  c-0.2-0.7-0.7-1.3-1.3-1.7c-5.8-3.4-13.3-2.2-17.8,2.8l-10.1-5.8l7.2-12.4c0.4-0.6,0.5-1.4,0.3-2.2c-0.2-0.7-0.7-1.4-1.3-1.7  c-6.8-3.9-15.5-1.6-19.4,5.2l-1.4,2.5L184,102c-9.5-5.5-21.7-2.2-27.2,7.3C156,110.7,156.5,112.4,157.9,113.2  C157.9,113.2,157.9,113.2,157.9,113.2z M223.6,118.9l-2.6,4.5l-4.5-2.6C218.4,119.1,221,118.5,223.6,118.9L223.6,118.9z   M192.9,103.9c1.8-3.1,5.3-4.8,8.9-4.2l-5.4,9.5l-4.9-2.8L192.9,103.9z M170.4,105.6c3.6-1,7.5-0.5,10.8,1.4l4.9,2.8l3.3,1.9  l21.3,12.3l3.3,1.9l4.1,2.3l-1.4,2.5c-2.3,4.1-7.6,5.5-11.7,3.1l-12.3-7.1l1.4-2.5c0.9-1.3,0.5-3.1-0.9-3.9  c-1.3-0.9-3.1-0.5-3.9,0.9c0,0.1-0.1,0.1-0.1,0.2l-9.7,16.8c-0.8-1-1.4-2.1-1.7-3.4c-0.6-2.2-0.3-4.5,0.9-6.5l2.8-4.9l2.8-4.9  c0.8-1.4,0.3-3.1-1-3.9c-1.4-0.8-3.1-0.3-3.9,1.1l-1.4,2.5l-14.5-8.5c1.8-2,4.2-3.5,6.9-4.2L170.4,105.6z"></path></g></svg>