<svg xmlns="http://www.w3.org/2000/svg" xmlns:xlink="http://www.w3.org/1999/xlink" id="Layer_1" x="0px" y="0px" viewBox="0 0 671 493.4" style="enable-background:new 0 0 671 493.4;" xml:space="preserve"><style type="text/css">	.st0{fill:none;stroke:#FF7277;stroke-width:2;stroke-linecap:round;}	.st1{fill:none;stroke:#FF7277;stroke-width:3;stroke-linecap:round;stroke-dasharray:5,5;}	.st2{fill:url(#SVGID_1_);fill-opacity:0.8;}	.st3{fill:#1A202C;stroke:#4A5568;stroke-width:2;}	.st4{fill:#A3ACB1;}	.st5{fill:url(#SVGID_00000095324508387589098800000010597929280651170189_);}	.st6{fill:#647279;}	.st7{fill:url(#SVGID_00000181052437036137064000000009321582019143574162_);}	.st8{fill-rule:evenodd;clip-rule:evenodd;fill:#96A1A8;}	.st9{fill-rule:evenodd;clip-rule:evenodd;fill:url(#SVGID_00000153668355681140850570000008636114467986120891_);}	.st10{fill:#E21D21;}	.st11{clip-path:url(#SVGID_00000119802881720362001860000018235524252165694369_);}	.st12{fill:#FFFFFF;}</style><g>	<path class="st0" d="M252.2,26.2l2.7-13.7l11.4,23.2l-23.8-3L252.2,26.2z"></path>	<path class="st0" d="M252.2,26.2l13.3,8.7"></path>	<path class="st1" d="M10.9,297.7C-7.3,153.1,42.1-51.6,251.3,24.5"></path>			<linearGradient id="SVGID_1_" gradientUnits="userSpaceOnUse" x1="478.2116" y1="345.8958" x2="85.1455" y2="-400.9041" gradientTransform="matrix(1 0 0 -1 0 494.7244)">		<stop offset="0" style="stop-color:#E21D21"></stop>		<stop offset="1" style="stop-color:#000000"></stop>	</linearGradient>	<path class="st2" d="M129.3,450.9c-81.5-71.6-59.3-157.8-14.9-223.2c41.3-60.8,103.5-104,174.1-124  c372-105.3,502.2,505.1,230.2,323.5C226.2,231.9,292.2,594.2,129.3,450.9z"></path>	<g>		<ellipse cx="338.3" cy="373.5" rx="232.5" ry="2.6"></ellipse>	</g>	<path class="st3" d="M150.7,100.4c0-14.9,12.1-27,27-27h363.3c14.9,0,27,12.1,27,27V353c0,1.7-1.3,3-3,3H153.7c-1.7,0-3-1.3-3-3  V100.4z"></path>	<path d="M152.2,97c0-12.1,9.9-22,22-22h370.1c12.2,0,22,9.9,22,22v249.3H152.2V97z"></path>	<path class="st4" d="M89.6,357c0-1.1,0.9-2,2-2h513.9c1.1,0,2,0.9,2,2v7.2H89.6V357z"></path>			<linearGradient id="SVGID_00000127752824717389499570000012678348236960832692_" gradientUnits="userSpaceOnUse" x1="89.5806" y1="135.1262" x2="607.4816" y2="135.1262" gradientTransform="matrix(1 0 0 -1 0 494.7244)">		<stop offset="0" style="stop-color:#0D1012"></stop>		<stop offset="2.953450e-02" style="stop-color:#CAD4DB"></stop>		<stop offset="6.250000e-02" style="stop-color:#242729"></stop>		<stop offset="0.1336" style="stop-color:#A3ACB1"></stop>		<stop offset="0.866" style="stop-color:#A3ACB1"></stop>		<stop offset="0.9419" style="stop-color:#242729"></stop>		<stop offset="0.9713" style="stop-color:#CAD4DB"></stop>		<stop offset="0.9964" style="stop-color:#0D1012"></stop>	</linearGradient>	<path style="fill:url(#SVGID_00000127752824717389499570000012678348236960832692_);" d="M89.6,357c0-1.1,0.9-2,2-2h513.9  c1.1,0,2,0.9,2,2v7.2H89.6V357z"></path>	<path class="st6" d="M89.6,364.2h517.9c-20.3,4.1-41,6.2-61.8,6.2h-400C126.9,370.4,108,368.3,89.6,364.2z"></path>			<linearGradient id="SVGID_00000139288715343450227790000017703418700849354913_" gradientUnits="userSpaceOnUse" x1="348.5311" y1="130.5022" x2="348.5311" y2="124.3362" gradientTransform="matrix(1 0 0 -1 0 494.7244)">		<stop offset="0" style="stop-color:#7A7F83"></stop>		<stop offset="1" style="stop-color:#0B0B0E"></stop>	</linearGradient>	<path style="fill:url(#SVGID_00000139288715343450227790000017703418700849354913_);" d="M89.6,364.2h517.9  c-20.3,4.1-41,6.2-61.8,6.2h-400C126.9,370.4,108,368.3,89.6,364.2z"></path>	<path class="st8" d="M305.9,355c0.3,4,3.6,7.2,7.7,7.2H384c4.1,0,7.4-3.2,7.7-7.2H305.9z"></path>			<linearGradient id="SVGID_00000170961615794026051430000014658909717593858732_" gradientUnits="userSpaceOnUse" x1="314.3636" y1="136.1537" x2="384.7526" y2="136.1537" gradientTransform="matrix(1 0 0 -1 0 494.7244)">		<stop offset="0" style="stop-color:#3C3C3C"></stop>		<stop offset="0.3175" style="stop-color:#3C3C3C;stop-opacity:0"></stop>		<stop offset="0.6606" style="stop-color:#3C3C3C;stop-opacity:0"></stop>		<stop offset="1" style="stop-color:#444444"></stop>	</linearGradient>	<path style="fill-rule:evenodd;clip-rule:evenodd;fill:url(#SVGID_00000170961615794026051430000014658909717593858732_);" d="  M305.9,355c0.3,4,3.6,7.2,7.7,7.2H384c4.1,0,7.4-3.2,7.7-7.2H305.9z"></path>	<path class="st10" d="M187.6,93.5h346.9c9.4,0,17,7.6,17,17v206.7c0,9.4-7.6,17-17,17H187.6c-9.4,0-17-7.6-17-17V110.5  C170.6,101.1,178.2,93.5,187.6,93.5z"></path>	<g>		<defs>			<rect id="SVGID_00000159439321643087418090000000864717370687270061_" x="295.4" y="149.4" width="132.1" height="132.1"></rect>		</defs>		<clipPath id="SVGID_00000130620445388353753900000009795484367962600081_">			<use xlink:href="#SVGID_00000159439321643087418090000000864717370687270061_" style="overflow:visible;"></use>		</clipPath>		<g style="clip-path:url(#SVGID_00000130620445388353753900000009795484367962600081_);">			<path class="st12" d="M427.2,160.9l-0.2-2.4c-0.5-4.9-4.5-8.6-9.5-9l-2-0.1c-6-0.2-11.8,2-16.1,6.2l-19.9,19.8l-65.3-0.1    c-5.5,0-10.8,2.2-14.8,6.2l-2.7,2.7c-0.9,0.9-1.2,2.4-1,3.6c0.4,1.2,1.2,2.2,2.5,2.6l52,14.2L338,216.8l-21.9,0.7    c-2.2,0-4.4,0.9-6,2.6l-2.1,2.1c-0.9,0.9-1.2,2.2-1,3.5c0.4,1.2,1.2,2.1,2.4,2.6l27.9,10.6l11.2,28.9c0.5,1.2,1.6,2.1,2.9,2.2    c1.2,0.1,2.4-0.2,3.2-1.2l2.2-2.2c1.5-1.5,2.4-3.5,2.6-6l0.7-22.1l12.2-12l14.1,52.1c0.4,1.2,1.4,2.2,2.6,2.6    c0.4,0.1,0.6,0.1,1,0.1c1,0,2-0.4,2.7-1.1l2.7-2.7c4-4,6.2-9.3,6.2-15v-65.3l19.3-19.4C425.7,173.5,428,167.1,427.2,160.9z     M417.6,174.5l-20.2,20.2c-0.5,0.5-0.7,1.1-0.7,1.7v66.3c0,4.4-1.7,8.3-4.7,11.5l-1.2,1.2l-14.8-54c-0.2-0.9-0.9-1.5-1.7-1.7    c-0.2,0-0.4-0.1-0.6-0.1c-0.6,0-1.2,0.2-1.7,0.7L355.8,236c-0.5,0.5-0.7,1-0.7,1.7l-0.7,22.9c0,0.7-0.2,1.9-1.1,2.6l-0.9,0.9    l-10.8-28c-0.2-0.6-0.7-1.1-1.5-1.4l-27-10.3l0.7-0.7c0.4-0.4,1.4-1.1,2.6-1.1l23.1-0.7c0.6,0,1.2-0.2,1.6-0.7l15.8-15.8    c0.6-0.6,0.9-1.5,0.6-2.4c-0.2-0.9-0.9-1.5-1.7-1.7l-54.1-14.8l1.2-1.2c3-3,7.1-4.7,11.3-4.7l66.3,0.1c0.6,0,1.2-0.2,1.7-0.7    l20.7-20.6c3.2-3.2,7.7-5,12.3-4.7l2,0.1c2.5,0.1,4.5,2.1,4.7,4.5l0.2,2.4C422.8,166.2,421.1,171,417.6,174.5z"></path>		</g>	</g></g></svg>